<?xml version="1.0" encoding="UTF-8" standalone="no"?>
<!-- Generator: Adobe Illustrator 23.0.6, SVG Export Plug-In . SVG Version: 6.00 Build 0)  -->

<svg
   version="1.1"
   id="Livello_1"
   x="0px"
   y="0px"
   viewBox="0 0 67.059996 56.38"
   xml:space="preserve"
   sodipodi:docname="addressbook2.svg"
   inkscape:version="1.1.1 (1:1.1+202109281949+c3084ef5ed)"
   width="67.059998"
   height="56.380001"
   xmlns:inkscape="http://www.inkscape.org/namespaces/inkscape"
   xmlns:sodipodi="http://sodipodi.sourceforge.net/DTD/sodipodi-0.dtd"
   xmlns="http://www.w3.org/2000/svg"
   xmlns:svg="http://www.w3.org/2000/svg"><defs
   id="defs55" /><sodipodi:namedview
   id="namedview53"
   pagecolor="#ffffff"
   bordercolor="#666666"
   borderopacity="1.0"
   inkscape:pageshadow="2"
   inkscape:pageopacity="0.0"
   inkscape:pagecheckerboard="0"
   showgrid="false"
   inkscape:zoom="6.7489234"
   inkscape:cx="-9.7052517"
   inkscape:cy="28.30081"
   inkscape:window-width="1920"
   inkscape:window-height="997"
   inkscape:window-x="0"
   inkscape:window-y="28"
   inkscape:window-maximized="1"
   inkscape:current-layer="Livello_1" />
<style
   type="text/css"
   id="style2">
	.st0{fill:#B61D1B;}
	.st1{fill:#FFFFFF;}
</style>

<g
   id="g12"
   transform="translate(-26.85,-32.19)">
	
		<rect
   x="33.689999"
   y="39.029999"
   transform="rotate(-90,55.0409,65.7179)"
   class="st0"
   width="42.709999"
   height="53.389999"
   id="rect8" />
	<path
   class="st1"
   d="M 83.23,88.57 H 26.85 V 42.86 h 56.39 v 45.71 z m -53.38,-3 H 80.24 V 45.86 H 29.85 Z"
   id="path10" />
</g>
<g
   id="g18"
   transform="translate(-26.85,-32.19)">
	
		<rect
   x="39.029999"
   y="33.689999"
   transform="rotate(-90,60.3794,60.3794)"
   class="st0"
   width="42.709999"
   height="53.389999"
   id="rect14" />
	<path
   class="st1"
   d="M 88.57,83.23 H 32.19 v -45.7 h 56.39 v 45.7 z m -53.38,-3 H 85.58 V 40.53 H 35.19 Z"
   id="path16" />
</g>
<g
   id="g24"
   transform="translate(-26.85,-32.19)">
	
		<rect
   x="44.360001"
   y="28.35"
   transform="rotate(-90,65.7179,55.0409)"
   class="st0"
   width="42.709999"
   height="53.389999"
   id="rect20" />
	<path
   class="st1"
   d="M 93.91,77.89 H 37.53 v -45.7 h 56.38 z m -53.38,-3 H 90.91 V 35.19 H 40.53 Z"
   id="path22" />
</g>
<g
   id="g38"
   transform="translate(-26.85,-32.19)">
	<g
   id="g30">
		<path
   class="st0"
   d="m 80.28,64.26 c -6.7,0 -12.13,5.43 -12.13,12.13 H 92.42 C 92.41,69.69 86.98,64.26 80.28,64.26 Z"
   id="path26" />
		<path
   class="st1"
   d="M 93.91,77.89 H 66.64 v -1.5 c 0,-7.52 6.12,-13.63 13.63,-13.63 7.52,0 13.63,6.12 13.63,13.63 v 1.5 z m -24.16,-3 H 90.8 c -0.73,-5.15 -5.17,-9.13 -10.53,-9.13 -5.35,0 -9.79,3.98 -10.52,9.13 z"
   id="path28" />
	</g>
	<g
   id="g36">
		<circle
   class="st0"
   cx="79.769997"
   cy="54.459999"
   r="7.5300002"
   id="circle32" />
		<path
   class="st1"
   d="m 79.77,63.49 c -4.98,0 -9.03,-4.05 -9.03,-9.03 0,-4.98 4.05,-9.03 9.03,-9.03 4.98,0 9.03,4.05 9.03,9.03 0,4.98 -4.05,9.03 -9.03,9.03 z m 0,-15.06 c -3.33,0 -6.03,2.71 -6.03,6.03 0,3.33 2.71,6.03 6.03,6.03 3.32,0 6.03,-2.71 6.03,-6.03 0,-3.33 -2.7,-6.03 -6.03,-6.03 z"
   id="path34" />
	</g>
</g>
<g
   id="g42"
   transform="translate(-26.85,-32.19)">
	<path
   class="st1"
   d="M 65.72,49.01 H 44.36 c -0.83,0 -1.5,-0.67 -1.5,-1.5 0,-0.83 0.67,-1.5 1.5,-1.5 h 21.35 c 0.83,0 1.5,0.67 1.5,1.5 0,0.83 -0.66,1.5 -1.49,1.5 z"
   id="path40" />
</g>
<g
   id="g46"
   transform="translate(-26.85,-32.19)">
	<path
   class="st1"
   d="M 65.72,55.96 H 44.36 c -0.83,0 -1.5,-0.67 -1.5,-1.5 0,-0.83 0.67,-1.5 1.5,-1.5 h 21.35 c 0.83,0 1.5,0.67 1.5,1.5 0,0.83 -0.66,1.5 -1.49,1.5 z"
   id="path44" />
</g>
<g
   id="g50"
   transform="translate(-26.85,-32.19)">
	<path
   class="st1"
   d="M 65.72,63.49 H 44.36 c -0.83,0 -1.5,-0.67 -1.5,-1.5 0,-0.83 0.67,-1.5 1.5,-1.5 h 21.35 c 0.83,0 1.5,0.67 1.5,1.5 0,0.83 -0.66,1.5 -1.49,1.5 z"
   id="path48" />
</g>
</svg>
