<svg id="Livello_1" data-name="Livello 1" xmlns="http://www.w3.org/2000/svg" viewBox="0 0 120.76 120.76"><defs><style>.cls-1{fill:#e30613;}.cls-2{fill:#fff;}</style></defs><title>icone unical  per web - organiz - strutture</title><circle class="cls-1" cx="60.38" cy="60.38" r="60.38"/><path class="cls-2" d="M56.65,92.54c-.47-.1-.94-.18-1.4-.31A10,10,0,0,1,48,85c-.12-.41-.28-.51-.67-.5q-5.82,0-11.62,0A4.64,4.64,0,0,1,31,80.17a4.46,4.46,0,0,1,1.61-3.91A18.53,18.53,0,0,0,37,70.69a18.16,18.16,0,0,0,2-8.47c0-2.87-.12-5.75.1-8.6.54-6.76,3.92-11.78,9.8-15.12a18.3,18.3,0,0,1,6.87-2.15v-.74c0-1.63,0-3.27,0-4.9a2.31,2.31,0,0,1,1.56-2.5h1a2.55,2.55,0,0,1,1.49,2.69c-.06,1.8,0,3.6,0,5.38,1.1.25,2.17.43,3.2.73A18.55,18.55,0,0,1,76.37,53.26c.24,3,.11,6,.12,9a17.79,17.79,0,0,0,4.1,11.59,31.65,31.65,0,0,0,2.5,2.55,4.62,4.62,0,0,1,1,5.31,4.5,4.5,0,0,1-4.29,2.75c-3.83,0-7.66,0-11.49,0h-.72c-.07.24-.12.46-.19.68a10,10,0,0,1-8.17,7.25,1.93,1.93,0,0,0-.34.11Zm1.13-12.06H79.32a3.62,3.62,0,0,0,.57,0,.66.66,0,0,0,.43-1.12A2.9,2.9,0,0,0,80,79a21.83,21.83,0,0,1-7.48-16.65c0-2.41,0-4.82,0-7.23A16.79,16.79,0,0,0,72.14,52a14.71,14.71,0,0,0-29.06,1.82c-.17,2.82-.09,5.65-.09,8.48a21.86,21.86,0,0,1-6.76,16.09c-.34.34-.73.62-1,1A.75.75,0,0,0,35,80a1.07,1.07,0,0,0,.59.46c.15.08.37,0,.55,0Zm5.55,4.06H52.14c.51,2.18,3.07,4,5.6,4S62.84,86.7,63.33,84.54Z"/><path class="cls-2" d="M87.21,53.93V55a2,2,0,0,1-4,.14c-.09-1-.07-2-.16-2.94A28.34,28.34,0,0,0,75.57,35.5c-.27-.3-.55-.57-.81-.87a2,2,0,0,1,0-2.88,2,2,0,0,1,2.82.1,52.89,52.89,0,0,1,3.94,4.78A32,32,0,0,1,87.21,53.93Z"/><path class="cls-2" d="M28.15,54.08a33.1,33.1,0,0,1,9.59-22.14,2,2,0,0,1,3-.15,2,2,0,0,1-.1,3,28.13,28.13,0,0,0-7.73,14.51A54.79,54.79,0,0,0,32.28,55a2.13,2.13,0,0,1-1.48,2,1.92,1.92,0,0,1-2.25-1A8.7,8.7,0,0,1,28.15,54.08Z"/></svg>