<?xml version="1.0" encoding="UTF-8" standalone="no"?>
<!DOCTYPE svg PUBLIC "-//W3C//DTD SVG 1.1//EN" "http://www.w3.org/Graphics/SVG/1.1/DTD/svg11.dtd">
<svg version="1.1" xmlns="http://www.w3.org/2000/svg" xmlns:xlink="http://www.w3.org/1999/xlink" preserveAspectRatio="xMidYMid meet" viewBox="6.477224453369124 6.0793673573707565 515.6887366863633 43.78686250209074" width="511.69" height="39.79"><defs><path d="M47.27 40.23L47.27 46.86L7.48 46.86L7.48 40.23L47.27 40.23Z" id="avGKPAQcC"></path><path d="M47.27 31.95L47.27 38.59L7.48 38.59L7.48 31.95L47.27 31.95Z" id="b275hAyytA"></path><path d="M47.27 23.66L47.27 30.29L7.48 30.29L7.48 23.66L47.27 23.66Z" id="apq4dRHtN"></path><path d="M47.27 15.37L47.27 22L7.48 22L7.48 15.37L47.27 15.37Z" id="b1B7O1dglo"></path><path d="M47.27 7.08L47.27 13.71L7.48 13.71L7.48 7.08L47.27 7.08Z" id="dbfMGE3wY"></path><path d="M63.85 31.95L48.93 31.95L48.93 46.87L63.85 31.95Z" id="kO7oPHddo"></path><path d="M68.78 23.66L68.78 30.29L48.93 30.29L48.93 23.66L68.78 23.66Z" id="c8iBL1v9U"></path><path d="M68.78 15.37L68.78 22L48.93 22L48.93 15.37L68.78 15.37Z" id="b3uRp7hTZ"></path><path d="M96.3 38.49C94.8 38.49 93.44 38.26 92.28 37.79C91.1 37.33 90.15 36.64 89.43 35.77C88.93 35.13 88.57 34.35 88.35 33.46C88.14 32.58 88.03 31.19 88.03 29.34C88.03 28.32 88.03 20.13 88.03 19.11C88.03 18.2 87.93 17.56 87.74 17.19C87.57 16.87 87.31 16.72 86.93 16.7C86.91 16.7 86.81 16.7 86.63 16.69L86.63 15.5L93.2 15.5L93.2 16.69C93.02 16.7 92.92 16.7 92.9 16.7C92.52 16.72 92.26 16.87 92.1 17.17C91.9 17.53 91.81 18.18 91.81 19.11C91.81 20.19 91.81 28.86 91.81 29.95C91.81 32.4 92.22 34.14 93.03 35.12C93.82 36.08 95.22 36.57 97.18 36.57C98.1 36.57 98.91 36.47 99.57 36.27C100.22 36.08 100.8 35.78 101.3 35.39C101.94 34.87 102.4 34.14 102.66 33.24C102.93 32.29 103.07 30.64 103.07 28.33C103.07 27.61 103.07 21.83 103.07 21.11C103.07 19.66 102.9 18.56 102.58 17.84C102.29 17.17 101.84 16.8 101.21 16.7C101.19 16.69 101.1 16.68 100.95 16.66L100.95 15.5L106.7 15.5L106.7 16.62C106.57 16.66 106.49 16.68 106.48 16.69C105.85 16.88 105.43 17.27 105.17 17.9C104.9 18.56 104.76 19.69 104.76 21.26C104.76 21.97 104.76 27.65 104.76 28.36C104.76 30.43 104.65 32.01 104.43 33.06C104.21 34.13 103.84 35.02 103.33 35.7C102.59 36.64 101.63 37.35 100.47 37.81C99.33 38.26 97.93 38.49 96.3 38.49" id="a2eEkM758e"></path><path d="M124.35 38.24L124.26 38.11L111.03 19.58C111.03 27.63 111.03 32.1 111.03 32.99C111.03 34.15 111.2 35.07 111.53 35.72C111.85 36.33 112.31 36.69 112.91 36.81C112.93 36.81 113.01 36.83 113.16 36.86L113.16 38L107.28 38L107.28 36.9C107.4 36.85 107.47 36.83 107.48 36.82C108.14 36.58 108.6 36.19 108.9 35.64C109.2 35.07 109.36 34.26 109.36 33.23C109.36 31.83 109.36 20.68 109.36 19.28C109.36 18.39 109.22 17.73 108.96 17.32C108.72 16.95 108.34 16.74 107.82 16.7C107.8 16.7 107.7 16.69 107.53 16.68L107.53 15.5L112.61 15.5L124.38 32.02C124.38 26.13 124.38 22.86 124.38 22.21C124.38 20.22 124.22 18.8 123.9 18C123.6 17.26 123.11 16.83 122.39 16.7C122.38 16.69 122.29 16.68 122.14 16.65L122.14 15.5L127.64 15.5L127.64 16.57C127.55 16.62 127.5 16.65 127.49 16.66C126.97 16.98 126.61 17.44 126.4 18.06C126.18 18.72 126.07 20.04 126.07 21.98C126.07 23.07 126.07 28.49 126.07 38.24L124.35 38.24Z" id="d6WQt6CVxg"></path><path d="M129.64 38L129.64 36.84C129.82 36.82 129.92 36.82 129.94 36.82C130.33 36.79 130.59 36.64 130.75 36.32C130.94 35.96 131.04 35.33 131.04 34.44C131.04 32.91 131.04 20.64 131.04 19.11C131.04 18.2 130.94 17.56 130.75 17.19C130.58 16.87 130.33 16.72 129.94 16.7C129.92 16.7 129.82 16.7 129.64 16.69L129.64 15.5L136.21 15.5L136.21 16.69C136.03 16.7 135.93 16.7 135.91 16.7C135.53 16.72 135.27 16.87 135.11 17.17C134.92 17.53 134.82 18.18 134.82 19.11C134.82 20.64 134.82 32.91 134.82 34.44C134.82 35.35 134.91 35.98 135.1 36.34C135.26 36.64 135.52 36.79 135.91 36.8C135.93 36.8 136.03 36.81 136.21 36.82L136.21 38L129.64 38Z" id="b7DFVPopK"></path><path d="M145.71 38.49C141.78 27.03 139.61 20.66 139.17 19.38C138.88 18.55 138.59 17.9 138.29 17.47C138.02 17.07 137.71 16.81 137.38 16.68C137.37 16.68 137.3 16.65 137.18 16.61L137.18 15.5L143.66 15.5L143.66 16.64C143.51 16.67 143.43 16.69 143.41 16.7C143.14 16.75 142.94 16.85 142.8 17C142.68 17.13 142.62 17.31 142.62 17.55C142.62 17.62 142.63 17.74 142.67 17.93C142.71 18.1 142.77 18.31 142.84 18.57C143.18 19.57 144.84 24.53 147.83 33.47C150.39 25.25 151.82 20.68 152.1 19.77C152.15 19.58 152.19 19.38 152.22 19.18C152.25 18.97 152.26 18.76 152.26 18.56C152.26 18.09 152.14 17.68 151.89 17.3C151.65 16.94 151.38 16.74 151.07 16.7C151.06 16.7 150.97 16.68 150.81 16.66L150.81 15.5L156.56 15.5L156.56 16.6C156.45 16.64 156.39 16.67 156.37 16.68C155.74 16.95 155.2 17.39 154.77 18C154.33 18.62 153.91 19.53 153.54 20.71C153.17 21.9 151.33 27.82 148.01 38.49L145.71 38.49Z" id="hBCAG1Ahx"></path><path d="M157.38 38L157.38 36.81C157.56 36.81 157.66 36.8 157.68 36.8C158.07 36.8 158.32 36.65 158.48 36.33C158.68 35.96 158.77 35.33 158.77 34.44C158.77 32.91 158.77 20.64 158.77 19.11C158.77 18.18 158.68 17.53 158.48 17.18C158.32 16.87 158.06 16.72 157.68 16.7C157.66 16.7 157.56 16.7 157.38 16.69L157.38 15.5L173.25 15.5L173.66 20.34L172.48 20.5C172.43 20.36 172.4 20.28 172.39 20.27C171.97 19.11 171.34 18.3 170.52 17.87C169.68 17.42 167.97 17.19 165.43 17.19C165.34 17.19 164.59 17.19 164.5 17.19C163.05 17.19 162.76 17.36 162.72 17.4C162.68 17.43 162.49 17.63 162.49 18.59C162.49 18.98 162.49 20.95 162.49 24.51C164.2 24.51 165.15 24.51 165.34 24.51C166.95 24.51 168.09 24.36 168.72 24.07C169.32 23.79 169.73 23.31 169.98 22.61C169.98 22.6 170 22.53 170.05 22.4L171.08 22.4L171.08 28.23L170.02 28.23C169.97 28.1 169.95 28.03 169.95 28.02C169.71 27.32 169.35 26.84 168.89 26.59C168.55 26.4 167.74 26.18 165.77 26.18C165.56 26.18 164.46 26.18 162.49 26.18C162.49 31.19 162.49 33.98 162.49 34.53C162.49 35.7 162.73 35.99 162.84 36.07C162.99 36.17 163.48 36.34 165.14 36.34C166.72 36.34 167.86 36.31 168.53 36.24C169.19 36.17 169.77 36.06 170.27 35.91C170.87 35.71 171.47 35.36 172.04 34.87C172.62 34.37 173.25 33.65 173.9 32.74C173.91 32.72 173.97 32.65 174.06 32.51L175.16 33.1L173.75 38L157.38 38Z" id="f57VdgAcb4"></path><path d="M182.35 26.47C182.71 26.5 183.14 26.51 183.65 26.51C186.05 26.51 187.84 26.1 188.98 25.3C190.09 24.52 190.63 23.33 190.63 21.69C190.63 20.08 190.14 18.82 189.15 17.94C188.16 17.06 186.71 16.61 184.86 16.61C183.62 16.61 182.76 16.77 182.31 17.09C181.9 17.38 181.69 17.97 181.69 18.82C181.69 19.33 181.69 21.85 181.69 26.4C181.97 26.44 182.19 26.46 182.35 26.47ZM194.71 40.47C192.55 39.55 190.57 37.99 188.83 35.82C187.15 33.72 185.72 31.07 184.58 27.95C184.46 27.95 184.3 27.95 184.12 27.96C183.79 27.97 183.56 27.97 183.41 27.97C183.02 27.97 182.45 27.96 181.69 27.93C181.69 28.58 181.69 33.79 181.69 34.44C181.69 35.35 181.78 35.99 181.98 36.34C182.14 36.65 182.39 36.8 182.78 36.8C182.8 36.8 182.9 36.81 183.08 36.81L183.08 38L176.57 38L176.57 36.81C176.75 36.81 176.86 36.8 176.88 36.8C177.26 36.8 177.51 36.65 177.68 36.33C177.87 35.96 177.97 35.33 177.97 34.44C177.97 32.91 177.97 20.64 177.97 19.11C177.97 18.18 177.87 17.53 177.68 17.18C177.51 16.87 177.26 16.72 176.87 16.7C176.85 16.7 176.75 16.7 176.57 16.69L176.57 15.52C179.72 15.37 181.47 15.28 181.82 15.27C182.56 15.24 183.16 15.21 183.63 15.2C184.1 15.18 184.45 15.18 184.68 15.18C187.67 15.18 190.09 15.77 191.87 16.95C193.69 18.15 194.62 19.78 194.62 21.78C194.62 23.25 194.04 24.54 192.9 25.6C191.86 26.58 190.43 27.26 188.65 27.63C189.69 30.53 190.74 32.98 191.79 34.92C192.87 36.91 193.96 38.39 195.03 39.31C195.04 39.32 195.07 39.35 195.14 39.4L195.14 40.65C194.88 40.54 194.74 40.48 194.71 40.47Z" id="d2AfvzCyIs"></path><path d="M204.53 38.49C203.06 38.49 201.62 38.24 200.26 37.74C198.9 37.25 197.66 36.52 196.56 35.58C196.55 35.57 196.5 35.53 196.4 35.46L197.72 30.78L198.87 30.99C198.9 31.11 198.91 31.17 198.91 31.19C199.32 33.05 200.06 34.49 201.1 35.49C202.13 36.48 203.39 36.98 204.86 36.98C206.16 36.98 207.23 36.61 208.04 35.88C208.84 35.15 209.23 34.22 209.23 33.05C209.23 31.93 208.92 31.06 208.28 30.38C207.63 29.68 206.22 28.89 204.07 28.04C203.99 28.01 203.33 27.75 203.24 27.72C201.14 26.9 199.75 26.12 198.99 25.33C198.45 24.75 198.03 24.11 197.75 23.43C197.47 22.75 197.32 22.02 197.32 21.26C197.32 19.48 197.99 17.98 199.3 16.8C200.61 15.62 202.26 15.03 204.22 15.03C205.28 15.03 206.4 15.22 207.52 15.59C208.65 15.95 209.8 16.5 210.95 17.23C210.97 17.23 211.03 17.27 211.15 17.35L210.04 21.62L208.95 21.4C208.92 21.29 208.9 21.23 208.9 21.22C208.52 19.75 207.88 18.59 207 17.78C206.11 16.98 205.11 16.58 203.92 16.58C202.75 16.58 201.8 16.89 201.11 17.49C200.43 18.09 200.09 18.87 200.09 19.86C200.09 20.76 200.37 21.48 200.95 22.08C201.55 22.7 202.78 23.39 204.59 24.13C204.78 24.21 205.07 24.33 205.45 24.49C208.07 25.54 209.72 26.42 210.49 27.18C211.07 27.74 211.51 28.39 211.8 29.12C212.08 29.85 212.23 30.68 212.23 31.58C212.23 33.57 211.49 35.24 210.05 36.54C208.61 37.84 206.75 38.49 204.53 38.49" id="b18XSyExzD"></path><path d="M214.45 38L214.45 36.84C214.63 36.82 214.72 36.82 214.74 36.82C215.14 36.79 215.4 36.64 215.56 36.32C215.75 35.96 215.85 35.33 215.85 34.44C215.85 32.91 215.85 20.64 215.85 19.11C215.85 18.2 215.75 17.56 215.56 17.19C215.39 16.87 215.13 16.72 214.75 16.7C214.73 16.7 214.63 16.7 214.45 16.69L214.45 15.5L221.02 15.5L221.02 16.69C220.84 16.7 220.74 16.7 220.72 16.7C220.34 16.72 220.08 16.87 219.92 17.17C219.72 17.53 219.63 18.18 219.63 19.11C219.63 20.64 219.63 32.91 219.63 34.44C219.63 35.35 219.72 35.98 219.91 36.34C220.07 36.64 220.33 36.79 220.72 36.8C220.74 36.8 220.84 36.81 221.02 36.82L221.02 38L214.45 38Z" id="fsdz4E13r"></path><path d="M228.68 38L228.71 36.82C228.89 36.81 228.98 36.8 229 36.8C229.39 36.79 229.64 36.64 229.8 36.32C229.99 35.96 230.09 35.33 230.09 34.44C230.09 32.78 230.09 19.44 230.09 17.77C230.09 17.35 230.02 17.26 230.01 17.26C230.01 17.26 229.93 17.19 229.58 17.19C227.95 17.19 226.7 17.45 225.86 17.95C225.02 18.45 224.22 19.36 223.5 20.65C223.49 20.67 223.45 20.75 223.37 20.89L222.2 20.4L223.48 15.5L240.48 15.5L241.77 20.4L240.6 20.89C240.52 20.75 240.47 20.67 240.46 20.65C239.74 19.35 238.95 18.44 238.11 17.94C237.27 17.44 236.03 17.19 234.41 17.19C234.03 17.19 233.95 17.27 233.94 17.27C233.94 17.27 233.86 17.36 233.86 17.77C233.86 19.44 233.86 32.78 233.86 34.44C233.86 35.33 233.97 35.97 234.17 36.33C234.34 36.65 234.6 36.8 234.98 36.8C235 36.8 235.1 36.81 235.28 36.81L235.31 38L228.68 38Z" id="axxj0E9Na"></path><path d="M251.86 29.21L248.99 19.74L245.9 29.21L251.86 29.21ZM252.8 38L252.8 36.86C252.95 36.83 253.03 36.81 253.04 36.81C253.3 36.75 253.5 36.65 253.65 36.49C253.79 36.35 253.85 36.18 253.85 35.99C253.85 35.87 253.81 35.59 253.61 34.95C253.56 34.77 253.52 34.67 253.5 34.59C253.42 34.34 253.04 33.11 252.36 30.9L245.34 30.9C244.81 32.52 244.52 33.42 244.46 33.6C244.38 33.88 244.31 34.15 244.27 34.4C244.23 34.66 244.21 34.88 244.21 35.08C244.21 35.58 244.31 35.97 244.53 36.26C244.73 36.55 245.03 36.73 245.44 36.81C245.46 36.81 245.54 36.83 245.69 36.86L245.69 38L239.73 38L239.73 36.89C239.86 36.85 239.93 36.83 239.94 36.82C240.63 36.59 241.21 36.14 241.68 35.49C242.17 34.81 242.68 33.64 243.2 32.01C243.57 30.87 245.42 25.21 248.75 15.03L251.11 15.03C254.78 26.34 256.82 32.63 257.23 33.89C257.57 34.93 257.9 35.7 258.21 36.17C258.48 36.58 258.76 36.79 259.03 36.8C259.05 36.8 259.14 36.81 259.32 36.82L259.35 38L252.8 38Z" id="ieTufn8rW"></path><path d="M251.48 14C248.5 12.15 246.84 11.12 246.51 10.91C246.17 10.69 245.91 10.46 245.73 10.23C245.54 9.97 245.44 9.69 245.44 9.41C245.44 9.02 245.58 8.7 245.84 8.44C246.28 8.01 246.97 7.92 247.6 8.28C247.83 8.41 248.13 8.66 248.5 9.04C248.82 9.37 250.41 11.03 253.29 14L251.48 14Z" id="a1QfKkIeRl"></path><path d="M278.34 16.89C276.34 16.89 275.54 17.14 275.22 17.35C274.8 17.62 274.58 18.21 274.58 19.11C274.58 20.68 274.58 33.23 274.58 34.8C274.58 35.47 274.72 35.92 274.98 36.13C275.15 36.26 275.64 36.48 277.09 36.48C280.29 36.48 282.56 35.76 283.84 34.35C285.13 32.93 285.78 30.44 285.78 26.94C285.78 23.54 285.16 20.98 283.93 19.34C282.71 17.72 280.83 16.89 278.34 16.89M277.86 38L269.47 38L269.47 36.81C269.65 36.81 269.75 36.8 269.77 36.8C270.15 36.8 270.41 36.65 270.57 36.33C270.77 35.96 270.86 35.33 270.86 34.44C270.86 32.91 270.86 20.64 270.86 19.11C270.86 18.18 270.77 17.54 270.57 17.18C270.41 16.87 270.15 16.72 269.77 16.7C269.75 16.7 269.65 16.7 269.47 16.69L269.47 15.51C272.57 15.42 274.29 15.37 274.63 15.35C275 15.35 275.37 15.34 275.73 15.33C276.09 15.33 276.55 15.32 277.09 15.32C278.68 15.32 280.02 15.42 281.06 15.62C282.11 15.82 283.07 16.14 283.92 16.58C285.72 17.49 287.16 18.9 288.2 20.77C289.24 22.64 289.77 24.75 289.77 27.06C289.77 30.46 288.7 33.17 286.6 35.1C284.5 37.03 281.56 38 277.86 38" id="bGJp2Xmws"></path><path d="M292.07 38L292.07 36.81C292.25 36.81 292.36 36.8 292.38 36.8C292.76 36.8 293.01 36.65 293.18 36.33C293.37 35.96 293.47 35.33 293.47 34.44C293.47 32.91 293.47 20.64 293.47 19.11C293.47 18.18 293.37 17.53 293.18 17.18C293.01 16.87 292.76 16.72 292.37 16.7C292.35 16.7 292.25 16.7 292.07 16.69L292.07 15.5L307.94 15.5L308.35 20.34L307.17 20.5C307.12 20.36 307.09 20.28 307.09 20.27C306.66 19.11 306.03 18.3 305.22 17.87C304.37 17.42 302.66 17.19 300.12 17.19C300.03 17.19 299.28 17.19 299.19 17.19C297.74 17.19 297.45 17.36 297.41 17.4C297.37 17.43 297.19 17.63 297.19 18.59C297.19 18.98 297.19 20.95 297.19 24.51C298.9 24.51 299.85 24.51 300.04 24.51C301.64 24.51 302.78 24.36 303.41 24.07C304.02 23.79 304.43 23.31 304.67 22.61C304.67 22.6 304.7 22.53 304.74 22.4L305.77 22.4L305.77 28.23L304.71 28.23C304.67 28.1 304.64 28.03 304.64 28.02C304.4 27.32 304.04 26.84 303.58 26.59C303.24 26.4 302.43 26.18 300.47 26.18C300.25 26.18 299.15 26.18 297.19 26.18C297.19 31.19 297.19 33.98 297.19 34.53C297.19 35.7 297.43 35.99 297.53 36.07C297.68 36.17 298.17 36.34 299.83 36.34C301.41 36.34 302.56 36.31 303.22 36.24C303.88 36.17 304.47 36.06 304.96 35.91C305.56 35.71 306.16 35.36 306.73 34.87C307.31 34.36 307.94 33.65 308.6 32.74C308.61 32.72 308.66 32.65 308.75 32.51L309.85 33.1L308.44 38L292.07 38Z" id="a2sms98zFA"></path><path d="M311.41 38L311.41 36.84C311.59 36.82 311.69 36.82 311.71 36.82C312.1 36.79 312.36 36.64 312.52 36.32C312.71 35.96 312.81 35.33 312.81 34.44C312.81 32.91 312.81 20.64 312.81 19.11C312.81 18.2 312.71 17.56 312.52 17.19C312.35 16.87 312.09 16.72 311.71 16.7C311.69 16.7 311.59 16.7 311.41 16.69L311.41 15.5L317.98 15.5L317.98 16.69C317.8 16.7 317.7 16.7 317.68 16.7C317.3 16.72 317.04 16.87 316.88 17.17C316.69 17.53 316.59 18.18 316.59 19.11C316.59 20.65 316.59 32.99 316.59 34.53C316.59 35.68 316.81 35.97 316.91 36.04C317.04 36.14 317.46 36.31 318.77 36.31C320.32 36.31 321.48 36.24 322.2 36.1C322.91 35.97 323.56 35.74 324.12 35.42C324.48 35.22 324.87 34.89 325.29 34.45C325.71 34 326.18 33.41 326.69 32.71C326.7 32.69 326.74 32.63 326.82 32.52L327.98 32.91L326.73 38L311.41 38Z" id="aeckeIlT0"></path><path d="M329.43 38L329.43 36.84C329.61 36.82 329.71 36.82 329.73 36.82C330.12 36.79 330.38 36.64 330.54 36.32C330.73 35.96 330.83 35.33 330.83 34.44C330.83 32.91 330.83 20.64 330.83 19.11C330.83 18.2 330.73 17.56 330.54 17.19C330.37 16.87 330.11 16.72 329.73 16.7C329.71 16.7 329.61 16.7 329.43 16.69L329.43 15.5L336 15.5L336 16.69C335.82 16.7 335.72 16.7 335.7 16.7C335.32 16.72 335.06 16.87 334.9 17.17C334.71 17.53 334.61 18.18 334.61 19.11C334.61 20.65 334.61 32.99 334.61 34.53C334.61 35.68 334.83 35.97 334.93 36.04C335.06 36.14 335.48 36.31 336.79 36.31C338.34 36.31 339.5 36.24 340.22 36.1C340.93 35.97 341.58 35.74 342.14 35.42C342.5 35.22 342.89 34.89 343.31 34.45C343.73 34 344.2 33.41 344.71 32.71C344.72 32.69 344.76 32.63 344.84 32.52L346 32.91L344.75 38L329.43 38Z" id="b3nNF1XPtn"></path><path d="M358.46 29.21L355.59 19.74L352.49 29.21L358.46 29.21ZM359.39 38L359.39 36.86C359.54 36.83 359.62 36.81 359.64 36.81C359.89 36.75 360.09 36.65 360.24 36.49C360.38 36.35 360.45 36.18 360.45 35.99C360.45 35.89 360.42 35.62 360.21 34.95C360.16 34.8 360.12 34.68 360.09 34.59C360.02 34.34 359.64 33.11 358.96 30.9L351.94 30.9C351.41 32.52 351.11 33.42 351.05 33.6C350.97 33.87 350.91 34.14 350.86 34.41C350.82 34.65 350.8 34.88 350.8 35.08C350.8 35.58 350.91 35.97 351.12 36.26C351.33 36.55 351.63 36.73 352.04 36.81C352.06 36.81 352.14 36.83 352.29 36.86L352.29 38L346.33 38L346.33 36.89C346.45 36.85 346.52 36.83 346.54 36.82C347.23 36.58 347.8 36.15 348.28 35.49C348.77 34.81 349.28 33.63 349.8 32.01C350.17 30.87 352.01 25.21 355.34 15.03L357.7 15.03L357.77 15.24C361.4 26.43 363.42 32.64 363.82 33.89C364.16 34.93 364.49 35.7 364.81 36.17C365.08 36.58 365.35 36.79 365.62 36.8C365.64 36.8 365.74 36.81 365.91 36.82L365.94 38L359.39 38Z" id="b1qfIs6Cl7"></path><path d="M386.06 38.49C383.03 38.49 380.57 37.47 378.75 35.44C376.93 33.43 376.01 30.73 376.01 27.4C376.01 25.31 376.35 23.39 377.04 21.68C377.73 19.97 378.77 18.48 380.11 17.26C380.88 16.55 381.83 16 382.94 15.61C385.13 14.85 387.61 14.8 390.16 15.68C391.41 16.11 392.72 16.78 394.06 17.66C394.07 17.67 394.14 17.71 394.25 17.79L392.96 21.94L391.82 21.77C391.78 21.66 391.76 21.6 391.76 21.59C391.22 19.94 390.44 18.68 389.43 17.82C388.43 16.98 387.2 16.55 385.79 16.55C383.94 16.55 382.49 17.35 381.35 18.98C380.2 20.62 379.62 22.85 379.62 25.6C379.62 28.71 380.37 31.27 381.84 33.23C383.3 35.18 385.12 36.14 387.4 36.14C388.7 36.14 389.91 35.81 390.99 35.17C392.09 34.52 393.12 33.52 394.07 32.2C394.08 32.18 394.14 32.1 394.25 31.95L395.29 32.68C395.19 32.83 395.14 32.91 395.13 32.93C393.98 34.82 392.65 36.24 391.19 37.13C389.72 38.03 388 38.49 386.06 38.49" id="f37GzUCvf"></path><path d="M406.08 29.21L403.21 19.74L400.12 29.21L406.08 29.21ZM407.02 38L407.02 36.86C407.17 36.83 407.25 36.81 407.26 36.81C407.52 36.75 407.72 36.65 407.87 36.49C408.01 36.35 408.07 36.18 408.07 35.99C408.07 35.87 408.03 35.59 407.83 34.95C407.75 34.68 407.33 33.33 406.58 30.9L399.56 30.9C399.03 32.52 398.74 33.42 398.68 33.6C398.59 33.89 398.53 34.16 398.49 34.4C398.45 34.67 398.43 34.89 398.43 35.08C398.43 35.58 398.54 35.97 398.75 36.26C398.96 36.55 399.25 36.73 399.66 36.81C399.68 36.81 399.76 36.83 399.91 36.86L399.91 38L393.95 38L393.95 36.89C394.08 36.85 394.15 36.83 394.16 36.82C394.85 36.59 395.43 36.14 395.9 35.49C396.39 34.81 396.9 33.64 397.42 32.01C397.79 30.87 399.64 25.21 402.97 15.03L405.33 15.03L405.4 15.24C409.03 26.43 411.05 32.64 411.45 33.89C411.79 34.93 412.11 35.7 412.43 36.17C412.7 36.58 412.98 36.79 413.25 36.8C413.27 36.8 413.37 36.81 413.54 36.82L413.57 38L407.02 38Z" id="ffsS3s8Ns"></path><path d="M414.33 38L414.33 36.84C414.51 36.82 414.6 36.82 414.62 36.82C415.02 36.79 415.28 36.64 415.44 36.32C415.63 35.96 415.73 35.33 415.73 34.44C415.73 32.91 415.73 20.64 415.73 19.11C415.73 18.2 415.63 17.56 415.43 17.19C415.27 16.87 415.01 16.72 414.63 16.7C414.61 16.7 414.51 16.7 414.33 16.69L414.33 15.5L420.9 15.5L420.9 16.69C420.72 16.7 420.62 16.7 420.6 16.7C420.22 16.72 419.96 16.87 419.8 17.17C419.6 17.53 419.51 18.18 419.51 19.11C419.51 20.65 419.51 32.99 419.51 34.53C419.51 35.68 419.73 35.97 419.83 36.04C419.96 36.14 420.38 36.31 421.69 36.31C423.24 36.31 424.4 36.24 425.12 36.1C425.83 35.97 426.47 35.74 427.04 35.42C427.4 35.22 427.79 34.89 428.2 34.45C428.63 34 429.1 33.41 429.61 32.71C429.62 32.69 429.66 32.63 429.74 32.52L430.9 32.91L429.64 38L414.33 38Z" id="d52Ajwparv"></path><path d="M442.78 29.21L439.91 19.74L436.81 29.21L442.78 29.21ZM443.72 38L443.72 36.86C443.86 36.83 443.94 36.81 443.96 36.81C444.22 36.75 444.41 36.65 444.57 36.49C444.7 36.35 444.77 36.18 444.77 35.99C444.77 35.87 444.73 35.59 444.53 34.95C444.45 34.68 444.03 33.33 443.28 30.9L436.26 30.9C435.73 32.52 435.44 33.42 435.38 33.6C435.29 33.89 435.23 34.16 435.19 34.4C435.14 34.67 435.12 34.89 435.12 35.08C435.12 35.58 435.23 35.97 435.44 36.26C435.65 36.55 435.95 36.73 436.36 36.81C436.37 36.81 436.46 36.83 436.61 36.86L436.61 38L430.65 38L430.65 36.89C430.77 36.85 430.84 36.83 430.86 36.82C431.55 36.59 432.13 36.14 432.6 35.49C433.08 34.81 433.59 33.64 434.12 32.01C434.49 30.87 436.34 25.21 439.66 15.03L442.02 15.03L442.09 15.24C445.72 26.43 447.74 32.64 448.15 33.89C448.48 34.93 448.81 35.7 449.13 36.17C449.4 36.58 449.67 36.79 449.95 36.8C449.97 36.8 450.06 36.81 450.23 36.82L450.26 38L443.72 38Z" id="a6e3Hu4PXy"></path><path d="M457.63 25.23C460.05 25.23 461.8 24.91 462.8 24.26C463.77 23.63 464.24 22.61 464.24 21.14C464.24 19.75 463.81 18.72 462.91 17.98C462.01 17.24 460.69 16.86 458.99 16.86C457.39 16.86 456.76 17.08 456.5 17.26C456.17 17.5 455.99 18.12 455.99 19.08C455.99 19.49 455.99 21.54 455.99 25.23C456.97 25.23 457.52 25.23 457.63 25.23ZM455.99 34.47C455.99 35.68 456.25 36.04 456.4 36.15C456.57 36.27 457.11 36.48 458.84 36.48C460.96 36.48 462.52 36.08 463.5 35.29C464.46 34.52 464.94 33.29 464.94 31.64C464.94 29.99 464.47 28.76 463.54 27.97C462.6 27.17 461.12 26.76 459.14 26.76C458.93 26.76 457.88 26.76 455.99 26.76C455.99 31.39 455.99 33.96 455.99 34.47ZM459.27 38L450.88 38L450.88 36.81C451.06 36.81 451.16 36.8 451.18 36.8C451.56 36.8 451.82 36.65 451.98 36.33C452.18 35.96 452.27 35.33 452.27 34.44C452.27 32.91 452.27 20.64 452.27 19.11C452.27 18.18 452.18 17.54 451.98 17.18C451.82 16.87 451.56 16.72 451.18 16.7C451.16 16.7 451.06 16.7 450.88 16.69L450.88 15.51C453.93 15.44 455.62 15.39 455.96 15.38C456.5 15.37 457.08 15.36 457.68 15.35C458.29 15.33 458.63 15.32 458.69 15.32C461.37 15.32 463.59 15.86 465.28 16.91C467.02 18 467.9 19.41 467.9 21.11C467.9 22.36 467.39 23.45 466.39 24.33C465.63 24.99 464.6 25.53 463.32 25.94C464.78 26.37 465.99 27.02 466.92 27.9C468.12 29.02 468.72 30.39 468.72 31.95C468.72 33.91 467.88 35.44 466.23 36.48C464.63 37.49 462.28 38 459.27 38" id="b6bIjHPxlb"></path><path d="M476.08 26.47C476.43 26.5 476.86 26.51 477.37 26.51C479.77 26.51 481.57 26.1 482.7 25.3C483.82 24.52 484.36 23.33 484.36 21.69C484.36 20.08 483.86 18.82 482.87 17.94C481.88 17.06 480.44 16.61 478.59 16.61C477.34 16.61 476.48 16.77 476.04 17.09C475.62 17.38 475.41 17.97 475.41 18.82C475.41 19.33 475.41 21.85 475.41 26.4C475.69 26.44 475.92 26.46 476.08 26.47ZM488.43 40.47C486.27 39.55 484.29 37.99 482.56 35.82C480.87 33.72 479.44 31.07 478.31 27.95C478.18 27.95 478.03 27.95 477.84 27.96C477.52 27.97 477.28 27.97 477.13 27.97C476.74 27.97 476.17 27.96 475.41 27.93C475.41 28.58 475.41 33.79 475.41 34.44C475.41 35.35 475.51 35.99 475.7 36.34C475.86 36.65 476.12 36.8 476.5 36.8C476.52 36.8 476.62 36.81 476.8 36.81L476.8 38L470.3 38L470.3 36.81C470.48 36.81 470.58 36.8 470.6 36.8C470.98 36.8 471.23 36.65 471.4 36.33C471.59 35.96 471.69 35.33 471.69 34.44C471.69 32.91 471.69 20.64 471.69 19.11C471.69 18.18 471.59 17.53 471.4 17.18C471.24 16.87 470.98 16.72 470.59 16.7C470.57 16.7 470.48 16.7 470.3 16.69L470.3 15.52C473.45 15.37 475.19 15.28 475.54 15.27C476.28 15.24 476.88 15.21 477.35 15.2C477.83 15.18 478.18 15.18 478.41 15.18C481.39 15.18 483.81 15.77 485.59 16.95C487.42 18.15 488.34 19.78 488.34 21.78C488.34 23.25 487.77 24.54 486.63 25.6C485.58 26.58 484.15 27.26 482.38 27.63C483.41 30.53 484.46 32.98 485.51 34.92C486.59 36.91 487.68 38.39 488.76 39.31C488.76 39.32 488.8 39.35 488.86 39.4L488.86 40.65C488.61 40.54 488.46 40.48 488.43 40.47Z" id="a3BBqCnA1"></path><path d="M489.8 38L489.8 36.84C489.98 36.82 490.07 36.82 490.09 36.82C490.49 36.79 490.75 36.64 490.91 36.32C491.1 35.96 491.2 35.33 491.2 34.44C491.2 32.91 491.2 20.64 491.2 19.11C491.2 18.2 491.1 17.56 490.9 17.19C490.74 16.87 490.48 16.72 490.1 16.7C490.08 16.7 489.98 16.7 489.8 16.69L489.8 15.5L496.37 15.5L496.37 16.69C496.19 16.7 496.09 16.7 496.07 16.7C495.68 16.72 495.43 16.87 495.26 17.18C495.07 17.53 494.97 18.18 494.97 19.11C494.97 20.64 494.97 32.91 494.97 34.44C494.97 35.35 495.07 35.98 495.26 36.34C495.42 36.64 495.68 36.79 496.07 36.8C496.09 36.8 496.19 36.81 496.37 36.82L496.37 38L489.8 38Z" id="dqhRBvcCC"></path><path d="M509.7 29.21L506.82 19.74L503.73 29.21L509.7 29.21ZM510.63 38L510.63 36.86C510.78 36.83 510.86 36.81 510.88 36.81C511.14 36.75 511.33 36.65 511.49 36.49C511.62 36.35 511.69 36.18 511.69 35.99C511.69 35.87 511.65 35.59 511.45 34.95C511.37 34.68 510.95 33.33 510.2 30.9L503.17 30.9C502.65 32.52 502.35 33.42 502.3 33.6C502.21 33.89 502.15 34.16 502.11 34.4C502.06 34.67 502.04 34.89 502.04 35.08C502.04 35.58 502.15 35.97 502.36 36.26C502.57 36.55 502.87 36.73 503.28 36.81C503.29 36.81 503.38 36.83 503.53 36.86L503.53 38L497.57 38L497.57 36.89C497.69 36.85 497.76 36.83 497.78 36.82C498.46 36.59 499.05 36.14 499.52 35.49C500 34.81 500.51 33.64 501.04 32.01C501.41 30.87 503.26 25.21 506.58 15.03L508.94 15.03L509.01 15.24C512.64 26.43 514.66 32.64 515.06 33.89C515.4 34.93 515.73 35.7 516.04 36.17C516.32 36.58 516.59 36.79 516.87 36.8C516.88 36.8 516.98 36.81 517.15 36.82L517.18 38L510.63 38Z" id="a2KJtNGf5e"></path><path d="M78.39 46.86L78.39 7.08L79.01 7.08L79.01 46.86L78.39 46.86Z" id="a1jtZukST2"></path><path d="M519.17 46.25L519.17 46.87L78.7 46.87L78.7 46.25L519.17 46.25Z" id="eg6xlLtro"></path></defs><g><g><use xlink:href="#avGKPAQcC" opacity="1" fill="#b71e24" fill-opacity="1"></use><g><use xlink:href="#avGKPAQcC" opacity="1" fill-opacity="0" stroke="#000000" stroke-width="1" stroke-opacity="0"></use></g></g><g><use xlink:href="#b275hAyytA" opacity="1" fill="#b71e24" fill-opacity="1"></use><g><use xlink:href="#b275hAyytA" opacity="1" fill-opacity="0" stroke="#000000" stroke-width="1" stroke-opacity="0"></use></g></g><g><use xlink:href="#apq4dRHtN" opacity="1" fill="#b71e24" fill-opacity="1"></use><g><use xlink:href="#apq4dRHtN" opacity="1" fill-opacity="0" stroke="#000000" stroke-width="1" stroke-opacity="0"></use></g></g><g><use xlink:href="#b1B7O1dglo" opacity="1" fill="#b71e24" fill-opacity="1"></use><g><use xlink:href="#b1B7O1dglo" opacity="1" fill-opacity="0" stroke="#000000" stroke-width="1" stroke-opacity="0"></use></g></g><g><use xlink:href="#dbfMGE3wY" opacity="1" fill="#b71e24" fill-opacity="1"></use><g><use xlink:href="#dbfMGE3wY" opacity="1" fill-opacity="0" stroke="#000000" stroke-width="1" stroke-opacity="0"></use></g></g><g><use xlink:href="#kO7oPHddo" opacity="1" fill="#ffffff" fill-opacity="1"></use><g><use xlink:href="#kO7oPHddo" opacity="1" fill-opacity="0" stroke="#b71e24" stroke-width="1" stroke-opacity="1"></use></g></g><g><use xlink:href="#c8iBL1v9U" opacity="1" fill="#ffffff" fill-opacity="1"></use><g><use xlink:href="#c8iBL1v9U" opacity="1" fill-opacity="0" stroke="#b71e24" stroke-width="1" stroke-opacity="1"></use></g></g><g><use xlink:href="#b3uRp7hTZ" opacity="1" fill="#ffffff" fill-opacity="1"></use><g><use xlink:href="#b3uRp7hTZ" opacity="1" fill-opacity="0" stroke="#b71e24" stroke-width="1" stroke-opacity="1"></use></g></g><g><use xlink:href="#a2eEkM758e" opacity="1" fill="#b71e24" fill-opacity="1"></use><g><use xlink:href="#a2eEkM758e" opacity="1" fill-opacity="0" stroke="#000000" stroke-width="1" stroke-opacity="0"></use></g></g><g><use xlink:href="#d6WQt6CVxg" opacity="1" fill="#b71e24" fill-opacity="1"></use><g><use xlink:href="#d6WQt6CVxg" opacity="1" fill-opacity="0" stroke="#000000" stroke-width="1" stroke-opacity="0"></use></g></g><g><use xlink:href="#b7DFVPopK" opacity="1" fill="#b71e24" fill-opacity="1"></use><g><use xlink:href="#b7DFVPopK" opacity="1" fill-opacity="0" stroke="#000000" stroke-width="1" stroke-opacity="0"></use></g></g><g><use xlink:href="#hBCAG1Ahx" opacity="1" fill="#b71e24" fill-opacity="1"></use><g><use xlink:href="#hBCAG1Ahx" opacity="1" fill-opacity="0" stroke="#000000" stroke-width="1" stroke-opacity="0"></use></g></g><g><use xlink:href="#f57VdgAcb4" opacity="1" fill="#b71e24" fill-opacity="1"></use><g><use xlink:href="#f57VdgAcb4" opacity="1" fill-opacity="0" stroke="#000000" stroke-width="1" stroke-opacity="0"></use></g></g><g><use xlink:href="#d2AfvzCyIs" opacity="1" fill="#b71e24" fill-opacity="1"></use><g><use xlink:href="#d2AfvzCyIs" opacity="1" fill-opacity="0" stroke="#000000" stroke-width="1" stroke-opacity="0"></use></g></g><g><use xlink:href="#b18XSyExzD" opacity="1" fill="#b71e24" fill-opacity="1"></use><g><use xlink:href="#b18XSyExzD" opacity="1" fill-opacity="0" stroke="#000000" stroke-width="1" stroke-opacity="0"></use></g></g><g><use xlink:href="#fsdz4E13r" opacity="1" fill="#b71e24" fill-opacity="1"></use><g><use xlink:href="#fsdz4E13r" opacity="1" fill-opacity="0" stroke="#000000" stroke-width="1" stroke-opacity="0"></use></g></g><g><use xlink:href="#axxj0E9Na" opacity="1" fill="#b71e24" fill-opacity="1"></use><g><use xlink:href="#axxj0E9Na" opacity="1" fill-opacity="0" stroke="#000000" stroke-width="1" stroke-opacity="0"></use></g></g><g><use xlink:href="#ieTufn8rW" opacity="1" fill="#b71e24" fill-opacity="1"></use><g><use xlink:href="#ieTufn8rW" opacity="1" fill-opacity="0" stroke="#000000" stroke-width="1" stroke-opacity="0"></use></g></g><g><use xlink:href="#a1QfKkIeRl" opacity="1" fill="#b71e24" fill-opacity="1"></use><g><use xlink:href="#a1QfKkIeRl" opacity="1" fill-opacity="0" stroke="#000000" stroke-width="1" stroke-opacity="0"></use></g></g><g><use xlink:href="#bGJp2Xmws" opacity="1" fill="#b71e24" fill-opacity="1"></use><g><use xlink:href="#bGJp2Xmws" opacity="1" fill-opacity="0" stroke="#000000" stroke-width="1" stroke-opacity="0"></use></g></g><g><use xlink:href="#a2sms98zFA" opacity="1" fill="#b71e24" fill-opacity="1"></use><g><use xlink:href="#a2sms98zFA" opacity="1" fill-opacity="0" stroke="#000000" stroke-width="1" stroke-opacity="0"></use></g></g><g><use xlink:href="#aeckeIlT0" opacity="1" fill="#b71e24" fill-opacity="1"></use><g><use xlink:href="#aeckeIlT0" opacity="1" fill-opacity="0" stroke="#000000" stroke-width="1" stroke-opacity="0"></use></g></g><g><use xlink:href="#b3nNF1XPtn" opacity="1" fill="#b71e24" fill-opacity="1"></use><g><use xlink:href="#b3nNF1XPtn" opacity="1" fill-opacity="0" stroke="#000000" stroke-width="1" stroke-opacity="0"></use></g></g><g><use xlink:href="#b1qfIs6Cl7" opacity="1" fill="#b71e24" fill-opacity="1"></use><g><use xlink:href="#b1qfIs6Cl7" opacity="1" fill-opacity="0" stroke="#000000" stroke-width="1" stroke-opacity="0"></use></g></g><g><use xlink:href="#f37GzUCvf" opacity="1" fill="#b71e24" fill-opacity="1"></use><g><use xlink:href="#f37GzUCvf" opacity="1" fill-opacity="0" stroke="#000000" stroke-width="1" stroke-opacity="0"></use></g></g><g><use xlink:href="#ffsS3s8Ns" opacity="1" fill="#b71e24" fill-opacity="1"></use><g><use xlink:href="#ffsS3s8Ns" opacity="1" fill-opacity="0" stroke="#000000" stroke-width="1" stroke-opacity="0"></use></g></g><g><use xlink:href="#d52Ajwparv" opacity="1" fill="#b71e24" fill-opacity="1"></use><g><use xlink:href="#d52Ajwparv" opacity="1" fill-opacity="0" stroke="#000000" stroke-width="1" stroke-opacity="0"></use></g></g><g><use xlink:href="#a6e3Hu4PXy" opacity="1" fill="#b71e24" fill-opacity="1"></use><g><use xlink:href="#a6e3Hu4PXy" opacity="1" fill-opacity="0" stroke="#000000" stroke-width="1" stroke-opacity="0"></use></g></g><g><use xlink:href="#b6bIjHPxlb" opacity="1" fill="#b71e24" fill-opacity="1"></use><g><use xlink:href="#b6bIjHPxlb" opacity="1" fill-opacity="0" stroke="#000000" stroke-width="1" stroke-opacity="0"></use></g></g><g><use xlink:href="#a3BBqCnA1" opacity="1" fill="#b71e24" fill-opacity="1"></use><g><use xlink:href="#a3BBqCnA1" opacity="1" fill-opacity="0" stroke="#000000" stroke-width="1" stroke-opacity="0"></use></g></g><g><use xlink:href="#dqhRBvcCC" opacity="1" fill="#b71e24" fill-opacity="1"></use><g><use xlink:href="#dqhRBvcCC" opacity="1" fill-opacity="0" stroke="#000000" stroke-width="1" stroke-opacity="0"></use></g></g><g><use xlink:href="#a2KJtNGf5e" opacity="1" fill="#b71e24" fill-opacity="1"></use><g><use xlink:href="#a2KJtNGf5e" opacity="1" fill-opacity="0" stroke="#000000" stroke-width="1" stroke-opacity="0"></use></g></g><g><use xlink:href="#a1jtZukST2" opacity="1" fill="#b71e24" fill-opacity="1"></use><g><use xlink:href="#a1jtZukST2" opacity="1" fill-opacity="0" stroke="#000000" stroke-width="1" stroke-opacity="0"></use></g></g><g><use xlink:href="#eg6xlLtro" opacity="1" fill="#b71e24" fill-opacity="1"></use><g><use xlink:href="#eg6xlLtro" opacity="1" fill-opacity="0" stroke="#000000" stroke-width="1" stroke-opacity="0"></use></g></g></g></svg>