<?xml version="1.0" encoding="UTF-8" standalone="no"?>
<svg
   id="Livello_1"
   data-name="Livello 1"
   viewBox="0 0 388.20001 49.180001"
   version="1.1"
   width="388.20001"
   height="49.18"
   xmlns="http://www.w3.org/2000/svg"
   xmlns:svg="http://www.w3.org/2000/svg"
   xmlns:rdf="http://www.w3.org/1999/02/22-rdf-syntax-ns#"
   xmlns:cc="http://creativecommons.org/ns#"
   xmlns:dc="http://purl.org/dc/elements/1.1/">
  <defs
     id="defs4">
    <style
       id="style2">.cls-1{fill:#fff;}.cls-2{fill:#b71918;}</style>
  </defs>
  <title
     id="title6">testate dipartimenti</title>
  <path
     class="cls-1"
     d="M 67.849999,8.74 V 0.19 h 2.86 c 3,0 3.64,1.27 3.64,4.11 0,2.84 -0.57,4.44 -3.64,4.44 z m 2.88,-7 h -1.14 v 5.49 h 1.12 c 1.69,0 1.85,-1 1.85,-2.93 0,-1.93 -0.14,-2.61 -1.85,-2.61 z"
     id="path8" />
  <path
     class="cls-1"
     d="m 75.869999,0.19 h 1.74 v 8.55 h -1.74 z"
     id="path10" />
  <path
     class="cls-1"
     d="m 81.199999,6.25 v 2.49 h -1.73 V 0.19 h 3.14 c 2,0 3,1 3,3 a 2.75,2.75 0 0 1 -3,3.1 z m 1.4,-1.49 c 0.87,0 1.29,-0.53 1.29,-1.61 0,-1.08 -0.42,-1.48 -1.29,-1.48 h -1.4 v 3.09 z"
     id="path12" />
  <path
     class="cls-1"
     d="m 87.839999,0.19 h 3.3 l 1.92,8.55 h -1.74 l -0.34,-1.55 h -3 l -0.34,1.55 h -1.73 z m 0.48,5.49 h 2.39 l -0.87,-4.06 h -0.6 z"
     id="path14" />
  <path
     class="cls-1"
     d="m 95.939999,5.87 v 2.87 h -1.74 V 0.19 h 3.32 c 1.95,0 3.000001,0.86 3.000001,2.81 A 2.72,2.72 0 0 1 99.259999,5.47 L 100.48,8.74 h -1.900001 l -1,-2.87 z m 1.58,-4.2 h -1.58 v 2.72 h 1.61 c 0.86,0 1.22,-0.61 1.22,-1.36 a 1.19,1.19 0 0 0 -1.25,-1.36 z"
     id="path16" />
  <path
     class="cls-1"
     d="m 101.23,0.19 h 6.29 v 1.53 h -2.27 v 7 h -1.73 v -7 h -2.29 z"
     id="path18" />
  <path
     class="cls-1"
     d="m 108.61,0.19 h 1.73 v 8.55 h -1.73 z"
     id="path20" />
  <path
     class="cls-1"
     d="m 112.2,0.19 h 3 l 1.51,6.23 1.51,-6.23 h 2.95 v 8.55 h -1.73 V 2.13 h -0.19 l -1.68,6.24 h -1.73 l -1.71,-6.24 h -0.19 v 6.62 h -1.74 z"
     id="path22" />
  <path
     class="cls-1"
     d="m 122.99,0.19 h 5.53 v 1.5 h -3.81 v 2 h 3.05 v 1.49 h -3.05 v 2.05 h 3.8 v 1.51 h -5.53 z"
     id="path24" />
  <path
     class="cls-1"
     d="m 129.95,0.19 h 2.93 l 2.07,7 h 0.12 v -7 h 1.74 v 8.55 h -2.86 l -2.14,-7 h -0.1 v 7 h -1.74 z"
     id="path26" />
  <path
     class="cls-1"
     d="m 137.9,0.19 h 6.29 v 1.53 h -2.27 v 7 h -1.73 v -7 h -2.29 z"
     id="path28" />
  <path
     class="cls-1"
     d="m 144.83,4.51 c 0,-2.89 0.85,-4.48 3.54,-4.48 2.69,0 3.55,1.59 3.55,4.48 0,2.89 -0.86,4.38 -3.55,4.38 -2.69,0 -3.54,-1.49 -3.54,-4.38 z m 5.3,0 c 0,-2 -0.35,-3 -1.76,-3 -1.41,0 -1.76,1 -1.76,3 0,2 0.35,2.87 1.76,2.87 1.41,0 1.76,-0.9 1.76,-2.87 z"
     id="path30" />
  <path
     class="cls-1"
     d="M 156.16,8.74 V 0.19 h 2.88 c 3,0 3.64,1.27 3.64,4.11 0,2.84 -0.57,4.44 -3.64,4.44 z m 2.88,-7 h -1.14 v 5.49 h 1.14 c 1.69,0 1.85,-1 1.85,-2.93 0,-1.93 -0.18,-2.61 -1.85,-2.61 z"
     id="path32" />
  <path
     class="cls-1"
     d="m 164.18,0.19 h 1.74 v 8.55 h -1.74 z"
     id="path34" />
  <path
     class="cls-1"
     d="m 175.96,8.6 a 14.57,14.57 0 0 1 -2.48,0.29 c -2.65,0 -3.27,-1.44 -3.27,-4.43 0,-3.24 0.73,-4.43 3.27,-4.43 a 12.58,12.58 0 0 1 2.5,0.34 v 1.39 a 18.5,18.5 0 0 0 -2.2,-0.19 c -1.32,0 -1.74,0.46 -1.74,2.89 0,2.43 0.3,2.89 1.79,2.89 a 20.59,20.59 0 0 0 2.15,-0.17 z"
     id="path36" />
  <path
     class="cls-1"
     d="m 182.29,5.19 h -3.18 v 3.55 h -1.74 V 0.19 h 1.74 v 3.49 h 3.18 V 0.19 h 1.73 v 8.55 h -1.73 z"
     id="path38" />
  <path
     class="cls-1"
     d="m 185.88,0.19 h 1.74 v 8.55 h -1.74 z"
     id="path40" />
  <path
     class="cls-1"
     d="m 189.48,0.19 h 3 l 1.51,6.23 1.51,-6.23 h 3 v 8.55 h -1.79 V 2.13 h -0.19 l -1.67,6.24 h -1.74 L 191.4,2.13 h -0.19 v 6.62 h -1.73 z"
     id="path42" />
  <path
     class="cls-1"
     d="M 200.26,0.19 H 202 v 8.55 h -1.74 z"
     id="path44" />
  <path
     class="cls-1"
     d="m 209.28,8.6 a 14.7,14.7 0 0 1 -2.49,0.29 c -2.64,0 -3.27,-1.44 -3.27,-4.43 0,-3.24 0.73,-4.43 3.27,-4.43 a 12.58,12.58 0 0 1 2.5,0.34 l -0.05,1.39 a 18.32,18.32 0 0 0 -2.2,-0.19 c -1.32,0 -1.73,0.46 -1.73,2.89 0,2.43 0.3,2.89 1.78,2.89 a 20.38,20.38 0 0 0 2.15,-0.17 z"
     id="path46" />
  <path
     class="cls-1"
     d="m 211.89,0.19 h 3.3 l 1.92,8.55 h -1.74 l -0.33,-1.55 h -3 l -0.33,1.55 h -1.73 z m 0.48,5.49 h 2.34 l -0.87,-4.06 h -0.6 z"
     id="path48" />
  <path
     class="cls-1"
     d="m 221.02,0.19 h 5.53 v 1.5 h -3.84 v 2 h 3 v 1.49 h -3 v 2.05 h 3.8 v 1.51 h -5.53 z"
     id="path50" />
  <path
     class="cls-1"
     d="m 229.98,0.19 h 6.29 V 1.72 H 234 v 7 h -1.73 v -7 h -2.29 z"
     id="path52" />
  <path
     class="cls-1"
     d="m 237.36,0.19 h 5.53 v 1.5 h -3.79 v 2 h 3 v 1.49 h -3 v 2.05 h 3.79 v 1.51 h -5.53 z"
     id="path54" />
  <path
     class="cls-1"
     d="m 249.71,8.6 a 14.7,14.7 0 0 1 -2.49,0.29 c -2.64,0 -3.27,-1.44 -3.27,-4.43 0,-3.24 0.73,-4.43 3.27,-4.43 a 12.47,12.47 0 0 1 2.5,0.34 l -0.05,1.39 a 18.14,18.14 0 0 0 -2.2,-0.19 c -1.32,0 -1.73,0.46 -1.73,2.89 0,2.43 0.3,2.89 1.78,2.89 a 20.38,20.38 0 0 0 2.15,-0.17 z"
     id="path56" />
  <path
     class="cls-1"
     d="m 251.09,0.19 h 2.93 l 2.06,7 h 0.13 v -7 h 1.73 v 8.55 h -2.85 l -2.14,-7 h -0.13 v 7 h -1.73 z"
     id="path58" />
  <path
     class="cls-1"
     d="m 259.42,4.51 c 0,-2.89 0.86,-4.48 3.55,-4.48 2.69,0 3.54,1.59 3.54,4.48 0,2.89 -0.85,4.38 -3.54,4.38 -2.69,0 -3.55,-1.49 -3.55,-4.38 z m 5.31,0 c 0,-2 -0.35,-3 -1.76,-3 -1.41,0 -1.76,1 -1.76,3 0,2 0.35,2.87 1.76,2.87 1.41,0 1.74,-0.9 1.74,-2.87 z"
     id="path60" />
  <path
     class="cls-1"
     d="M 268,8.74 V 0.19 h 1.71 v 7 h 3.13 v 1.54 z"
     id="path62" />
  <path
     class="cls-1"
     d="m 273.48,4.51 c 0,-2.89 0.85,-4.48 3.54,-4.48 2.69,0 3.55,1.59 3.55,4.48 0,2.89 -0.86,4.38 -3.55,4.38 -2.69,0 -3.54,-1.49 -3.54,-4.38 z m 5.3,0 c 0,-2 -0.35,-3 -1.76,-3 -1.41,0 -1.76,1 -1.76,3 0,2 0.36,2.87 1.76,2.87 1.4,0 1.76,-0.9 1.76,-2.87 z"
     id="path64" />
  <path
     class="cls-1"
     d="m 285.61,4.13 h 2.49 v 4.44 a 23.85,23.85 0 0 1 -2.92,0.29 c -2.79,0 -3.49,-1.56 -3.49,-4.43 0,-3.12 0.9,-4.43 3.43,-4.43 a 17,17 0 0 1 3,0.36 l -0.05,1.34 c 0,0 -1.51,-0.16 -2.65,-0.16 -1.49,0 -1.93,0.49 -1.93,2.89 0,2.4 0.32,2.92 1.87,2.92 0.52,0 1.05,0 1.05,0 V 5.67 h -0.78 z"
     id="path66" />
  <path
     class="cls-1"
     d="m 289.71,0.19 h 1.74 v 8.55 h -1.74 z"
     id="path68" />
  <path
     class="cls-1"
     d="m 293.33,0.19 h 5.53 v 1.5 h -3.8 v 2 h 3 v 1.49 h -3 v 2.05 h 3.8 v 1.51 h -5.53 z"
     id="path70" />
  <path
     class="cls-1"
     d="m 308.48,8.6 a 14.7,14.7 0 0 1 -2.49,0.29 c -2.64,0 -3.27,-1.44 -3.27,-4.43 0,-3.24 0.73,-4.43 3.27,-4.43 a 12.58,12.58 0 0 1 2.5,0.34 v 1.39 a 18.5,18.5 0 0 0 -2.2,-0.19 c -1.32,0 -1.74,0.46 -1.74,2.89 0,2.43 0.31,2.89 1.79,2.89 a 20.38,20.38 0 0 0 2.15,-0.17 z"
     id="path72" />
  <path
     class="cls-1"
     d="m 314.8,5.19 h -3.18 v 3.55 h -1.74 V 0.19 h 1.74 v 3.49 h 3.18 V 0.19 h 1.73 v 8.55 h -1.73 z"
     id="path74" />
  <path
     class="cls-1"
     d="m 318.39,0.19 h 1.74 v 8.55 h -1.74 z"
     id="path76" />
  <path
     class="cls-1"
     d="m 321.99,0.19 h 3 l 1.51,6.23 1.51,-6.23 h 3 v 8.55 h -1.74 V 2.13 h -0.19 l -1.67,6.24 h -1.74 l -1.76,-6.24 h -0.2 v 6.62 h -1.73 z"
     id="path78" />
  <path
     class="cls-1"
     d="m 332.78,0.19 h 1.73 v 8.55 h -1.73 z"
     id="path80" />
  <path
     class="cls-1"
     d="m 341.79,8.6 a 14.7,14.7 0 0 1 -2.49,0.29 c -2.64,0 -3.27,-1.44 -3.27,-4.43 0,-3.24 0.73,-4.43 3.27,-4.43 a 12.58,12.58 0 0 1 2.5,0.34 v 1.39 a 18.32,18.32 0 0 0 -2.2,-0.19 c -1.32,0 -1.73,0.46 -1.73,2.89 0,2.43 0.3,2.89 1.78,2.89 a 20.38,20.38 0 0 0 2.15,-0.17 z"
     id="path82" />
  <path
     class="cls-1"
     d="m 348.11,5.19 h -3.18 V 8.74 H 343.2 V 0.19 h 1.73 v 3.49 h 3.18 V 0.19 h 1.74 v 8.55 h -1.74 z"
     id="path84" />
  <path
     class="cls-1"
     d="m 351.71,0.19 h 5.53 v 1.5 h -3.8 v 2 h 3 v 1.49 h -3 v 2.05 h 3.8 v 1.51 h -5.53 z"
     id="path86" />
  <path
     class="cls-1"
     d="m 361.21,4.62 h 3.72 v 1.51 h -3.72 z"
     id="path88" />
  <path
     class="cls-1"
     d="m 374.71,8.6 a 14.7,14.7 0 0 1 -2.49,0.29 c -2.64,0 -3.27,-1.44 -3.27,-4.43 0,-3.24 0.73,-4.43 3.27,-4.43 a 12.47,12.47 0 0 1 2.5,0.34 l -0.01,1.39 a 18.32,18.32 0 0 0 -2.2,-0.19 c -1.32,0 -1.73,0.46 -1.73,2.89 0,2.43 0.3,2.89 1.78,2.89 a 20.38,20.38 0 0 0 2.15,-0.17 z"
     id="path90" />
  <path
     class="cls-1"
     d="m 375.39,0.19 h 6.32 v 1.53 h -2.3 v 7 h -1.7 v -7 h -2.29 z"
     id="path92" />
  <path
     class="cls-1"
     d="m 388.19,8.6 a 14.7,14.7 0 0 1 -2.49,0.29 c -2.64,0 -3.27,-1.44 -3.27,-4.43 0,-3.24 0.73,-4.43 3.27,-4.43 a 12.58,12.58 0 0 1 2.5,0.34 l -0.05,1.39 a 18.32,18.32 0 0 0 -2.2,-0.19 c -1.32,0 -1.73,0.46 -1.73,2.89 0,2.43 0.3,2.89 1.78,2.89 a 20.38,20.38 0 0 0 2.15,-0.17 z"
     id="path94" />
  <rect
     class="cls-2"
     width="841.89001"
     height="121.67"
     id="rect96"
     x="-50.923752"
     y="149.02493" />
  <path
     class="cls-1"
     d="m 131.98,22.13 v -8.7 h 3.11 c 2.53,0 3.22,1.75 3.22,4.22 0,2.47 -0.66,4.48 -3.22,4.48 z m 3.11,-7.85 h -2.14 v 7 h 2.14 c 1.81,0 2.23,-1.73 2.23,-3.62 0,-1.89 -0.42,-3.42 -2.23,-3.42 z"
     id="path98" />
  <path
     class="cls-1"
     d="m 140.34,13.39 h 1 v 8.74 h -1 z"
     id="path100" />
  <path
     class="cls-1"
     d="m 144.71,19.13 v 3 h -1 v -8.7 h 3.18 c 1.9,0 2.78,0.91 2.78,2.8 0,1.89 -0.88,3 -2.78,3 z m 2.2,-0.86 c 1.27,0 1.79,-0.77 1.79,-2.11 0,-1.34 -0.52,-2 -1.79,-2 h -2.2 v 4.06 z"
     id="path102" />
  <path
     class="cls-1"
     d="m 152.63,13.39 h 2.08 l 2.39,8.7 h -1 l -0.63,-2.24 h -3.72 l -0.56,2.28 h -0.95 z m -0.59,5.59 h 3.29 l -1.32,-4.76 h -0.65 z"
     id="path104" />
  <path
     class="cls-1"
     d="m 159.71,18.75 v 3.38 h -1 v -8.7 h 3.22 c 1.82,0 2.78,0.8 2.78,2.64 a 2.36,2.36 0 0 1 -1.6,2.52 l 1.71,3.54 h -1.11 l -1.57,-3.34 z m 2.25,-4.51 h -2.25 v 3.66 h 2.26 c 1.31,0 1.77,-0.78 1.77,-1.87 a 1.56,1.56 0 0 0 -1.77,-1.79 z"
     id="path106" />
  <path
     class="cls-1"
     d="M 165.71,13.39 H 172 v 0.86 h -2.65 v 7.88 h -1 v -7.88 h -2.64 z"
     id="path108" />
  <path
     class="cls-1"
     d="m 173.48,13.39 h 1 v 8.74 h -1 z"
     id="path110" />
  <path
     class="cls-1"
     d="m 176.83,13.39 h 1.74 l 2.47,7.35 2.46,-7.35 h 1.75 v 8.74 h -1 v -7.71 h -0.17 l -2.53,7.35 h -1.08 l -2.53,-7.35 h -0.18 v 7.71 h -1 z"
     id="path112" />
  <path
     class="cls-1"
     d="m 187.64,13.39 h 5.29 v 0.85 h -4.33 v 3 h 3.58 v 0.89 h -3.58 v 3.1 h 4.33 v 0.9 h -5.29 z"
     id="path114" />
  <path
     class="cls-1"
     d="m 194.84,13.39 h 1.81 l 3.33,7.84 h 0.27 v -7.84 h 0.95 v 8.74 h -1.77 l -3.38,-7.85 h -0.24 v 7.85 h -1 z"
     id="path116" />
  <path
     class="cls-1"
     d="M 202.71,13.39 H 209 v 0.86 h -2.65 v 7.88 h -1 v -7.88 h -2.64 z"
     id="path118" />
  <path
     class="cls-1"
     d="m 209.85,17.77 c 0,-2.86 0.74,-4.51 3.43,-4.51 2.69,0 3.43,1.62 3.43,4.51 0,2.89 -0.74,4.44 -3.45,4.44 -2.71,0 -3.41,-1.52 -3.41,-4.44 z m 5.87,0 c 0,-2.35 -0.45,-3.66 -2.44,-3.66 -1.99,0 -2.44,1.3 -2.44,3.66 0,2.36 0.43,3.59 2.44,3.59 2.01,0 2.43,-1.13 2.43,-3.59 z"
     id="path120" />
  <path
     class="cls-1"
     d="m 221.77,22.13 v -8.7 h 3.1 c 2.53,0 3.22,1.75 3.22,4.22 0,2.47 -0.65,4.48 -3.22,4.48 z m 3.1,-7.85 h -2.16 v 7 h 2.13 c 1.81,0 2.23,-1.73 2.23,-3.62 0,-1.89 -0.36,-3.42 -2.2,-3.42 z"
     id="path122" />
  <path
     class="cls-1"
     d="m 230.13,13.39 h 1 v 8.74 h -1 z"
     id="path124" />
  <path
     class="cls-1"
     d="m 137.26,35.13 a 14.57,14.57 0 0 1 -2.48,0.29 c -2.65,0 -3.27,-1.44 -3.27,-4.43 0,-3.24 0.73,-4.42 3.27,-4.42 a 12.66,12.66 0 0 1 2.5,0.33 v 1.39 a 18.5,18.5 0 0 0 -2.2,-0.19 c -1.32,0 -1.74,0.46 -1.74,2.89 0,2.43 0.3,2.89 1.79,2.89 a 20.59,20.59 0 0 0 2.15,-0.17 z"
     id="path126" />
  <path
     class="cls-1"
     d="m 143.84,31.71 h -3.13 v 3.55 h -1.74 v -8.55 h 1.74 v 3.49 h 3.18 v -3.49 h 1.73 v 8.55 h -1.73 z"
     id="path128" />
  <path
     class="cls-1"
     d="m 147.71,26.71 h 1.73 v 8.55 h -1.73 z"
     id="path130" />
  <path
     class="cls-1"
     d="m 151.53,26.71 h 3 l 1.51,6.23 1.5,-6.23 h 3 v 8.55 h -1.83 v -6.62 h -0.18 l -1.68,6.24 h -1.73 l -1.67,-6.24 h -0.19 v 6.62 h -1.74 z"
     id="path132" />
  <path
     class="cls-1"
     d="m 162.57,26.71 h 1.73 v 8.55 h -1.73 z"
     id="path134" />
  <path
     class="cls-1"
     d="m 171.84,35.13 a 14.7,14.7 0 0 1 -2.49,0.29 c -2.64,0 -3.27,-1.44 -3.27,-4.43 0,-3.24 0.73,-4.42 3.27,-4.42 a 12.66,12.66 0 0 1 2.5,0.33 l -0.05,1.39 a 18.5,18.5 0 0 0 -2.2,-0.19 c -1.32,0 -1.74,0.46 -1.74,2.89 0,2.43 0.3,2.89 1.79,2.89 a 20.59,20.59 0 0 0 2.15,-0.17 z"
     id="path136" />
  <path
     class="cls-1"
     d="m 174.71,26.71 h 3.3 l 1.92,8.55 h -1.74 l -0.34,-1.55 h -3 l -0.34,1.55 h -1.73 z m 0.48,5.49 h 2.34 l -0.88,-4.07 h -0.6 z"
     id="path138" />
  <path
     class="cls-1"
     d="m 184.33,26.71 h 5.53 v 1.5 h -3.79 v 2 h 3 v 1.49 h -3 v 2.05 h 3.79 v 1.51 h -5.53 z"
     id="path140" />
  <path
     class="cls-1"
     d="m 193.8,26.71 h 6.28 v 1.53 h -2.26 v 7 h -1.74 v -7 h -2.28 z"
     id="path142" />
  <path
     class="cls-1"
     d="m 201.43,26.71 h 5.53 v 1.5 h -3.8 v 2 h 3 v 1.49 h -3 v 2.05 h 3.8 v 1.51 h -5.53 z"
     id="path144" />
  <path
     class="cls-1"
     d="m 214,35.13 a 14.7,14.7 0 0 1 -2.49,0.29 c -2.64,0 -3.27,-1.44 -3.27,-4.43 0,-3.24 0.73,-4.42 3.27,-4.42 a 12.66,12.66 0 0 1 2.5,0.33 l -0.05,1.39 a 18.32,18.32 0 0 0 -2.2,-0.19 c -1.32,0 -1.73,0.46 -1.73,2.89 0,2.43 0.3,2.89 1.78,2.89 a 20.38,20.38 0 0 0 2.15,-0.17 z"
     id="path146" />
  <path
     class="cls-1"
     d="m 215.71,26.71 h 2.93 l 2.06,7 h 0.12 v -7 h 1.74 v 8.55 h -2.85 l -2.14,-7 h -0.13 v 7 h -1.73 z"
     id="path148" />
  <path
     class="cls-1"
     d="m 224.24,31.03 c 0,-2.89 0.86,-4.47 3.55,-4.47 2.69,0 3.54,1.58 3.54,4.47 0,2.89 -0.85,4.38 -3.54,4.38 -2.69,0 -3.55,-1.49 -3.55,-4.38 z m 5.31,0 c 0,-2 -0.35,-3 -1.76,-3 -1.41,0 -1.76,1 -1.76,3 0,2 0.35,2.87 1.76,2.87 1.41,0 1.76,-0.89 1.76,-2.87 z"
     id="path150" />
  <path
     class="cls-1"
     d="m 233.07,35.26 v -8.55 h 1.73 v 7 h 3.13 v 1.54 z"
     id="path152" />
  <path
     class="cls-1"
     d="m 238.8,31.03 c 0,-2.89 0.86,-4.47 3.55,-4.47 2.69,0 3.54,1.58 3.54,4.47 0,2.89 -0.85,4.38 -3.54,4.38 -2.69,0 -3.55,-1.49 -3.55,-4.38 z m 5.31,0 c 0,-2 -0.36,-3 -1.76,-3 -1.4,0 -1.76,1 -1.76,3 0,2 0.35,2.87 1.76,2.87 1.41,0 1.76,-0.89 1.76,-2.87 z"
     id="path154" />
  <path
     class="cls-1"
     d="m 251.18,30.68 h 2.53 v 4.45 a 23.84,23.84 0 0 1 -2.91,0.29 c -2.8,0 -3.5,-1.56 -3.5,-4.43 0,-3.12 0.91,-4.42 3.43,-4.42 a 17.43,17.43 0 0 1 3,0.35 v 1.34 c 0,0 -1.62,-0.13 -2.76,-0.13 -1.48,0 -1.92,0.49 -1.92,2.89 0,2.4 0.31,2.92 1.87,2.92 0.52,0 1,0 1,0 v -1.75 h -0.78 z"
     id="path156" />
  <path
     class="cls-1"
     d="m 255.56,26.71 h 1.73 v 8.55 h -1.73 z"
     id="path158" />
  <path
     class="cls-1"
     d="m 259.41,26.71 h 5.53 v 1.5 h -3.8 v 2 h 3 v 1.49 h -3 v 2.05 h 3.8 v 1.51 h -5.53 z"
     id="path160" />
  <path
     class="cls-1"
     d="m 137.26,48.29 a 14.57,14.57 0 0 1 -2.48,0.29 c -2.65,0 -3.27,-1.44 -3.27,-4.43 0,-3.24 0.73,-4.42 3.27,-4.42 a 12.66,12.66 0 0 1 2.5,0.33 v 1.39 a 18.5,18.5 0 0 0 -2.2,-0.19 c -1.32,0 -1.74,0.46 -1.74,2.89 0,2.43 0.3,2.89 1.79,2.89 a 20.59,20.59 0 0 0 2.15,-0.17 z"
     id="path162" />
  <path
     class="cls-1"
     d="m 143.84,44.88 h -3.13 v 3.55 h -1.74 v -8.55 h 1.74 v 3.49 h 3.18 v -3.49 h 1.73 v 8.55 h -1.73 z"
     id="path164" />
  <path
     class="cls-1"
     d="m 147.71,39.88 h 1.73 v 8.55 h -1.73 z"
     id="path166" />
  <path
     class="cls-1"
     d="m 151.53,39.88 h 3 l 1.47,6.25 1.5,-6.23 h 3 v 8.53 h -1.79 v -6.62 h -0.18 l -1.68,6.24 h -1.73 l -1.67,-6.24 h -0.19 v 6.62 h -1.74 z"
     id="path168" />
  <path
     class="cls-1"
     d="m 162.57,39.88 h 1.73 v 8.55 h -1.73 z"
     id="path170" />
  <path
     class="cls-1"
     d="m 171.84,48.29 a 14.7,14.7 0 0 1 -2.49,0.29 c -2.64,0 -3.27,-1.44 -3.27,-4.43 0,-3.24 0.73,-4.42 3.27,-4.42 a 12.66,12.66 0 0 1 2.5,0.33 l -0.05,1.39 a 18.5,18.5 0 0 0 -2.2,-0.19 c -1.32,0 -1.74,0.46 -1.74,2.89 0,2.43 0.3,2.89 1.79,2.89 a 20.59,20.59 0 0 0 2.15,-0.17 z"
     id="path172" />
  <path
     class="cls-1"
     d="m 178.41,44.88 h -3.18 v 3.55 h -1.74 v -8.55 h 1.74 v 3.49 h 3.18 v -3.49 h 1.74 v 8.55 h -1.74 z"
     id="path174" />
  <path
     class="cls-1"
     d="m 182.26,39.88 h 5.53 v 1.5 h -3.8 v 2 h 3 v 1.49 h -3 v 2.05 h 3.8 v 1.51 h -5.53 z"
     id="path176" />
  <rect
     class="cls-1"
     x="0"
     y="23.309999"
     width="19.23"
     height="3.2"
     id="rect178" />
  <rect
     class="cls-1"
     x="0"
     y="19.309999"
     width="19.23"
     height="3.21"
     id="rect180" />
  <rect
     class="cls-1"
     x="0"
     y="15.31"
     width="19.23"
     height="3.2"
     id="rect182" />
  <rect
     class="cls-1"
     x="0"
     y="11.299998"
     width="19.23"
     height="3.2"
     id="rect184" />
  <rect
     class="cls-1"
     x="0"
     y="7.2999983"
     width="19.23"
     height="3.2"
     id="rect186" />
  <path
     class="cls-1"
     d="m 26.519999,19.61 -6.19,6.19 v -6.19 h 6.19 m 0.72,-0.3 h -7.21 v 7.21 z"
     id="path188" />
  <path
     class="cls-1"
     d="m 29.319999,15.61 v 2.6 h -9 v -2.6 h 9 m 0.3,-0.3 h -9.59 v 3.2 h 9.59 z"
     id="path190" />
  <path
     class="cls-1"
     d="m 29.319999,11.6 v 2.6 h -9 v -2.6 h 9 m 0.3,-0.3 h -9.59 v 3.2 h 9.59 z"
     id="path192" />
  <rect
     class="cls-1"
     x="34.269997"
     y="7.29"
     width="0.30000001"
     height="41.68"
     id="rect194" />
  <path
     class="cls-1"
     d="m 42.919999,22.47 a 5.29,5.29 0 0 1 -1.94,-0.33 3.43,3.43 0 0 1 -1.38,-1 2.89,2.89 0 0 1 -0.52,-1.12 9.34,9.34 0 0 1 -0.16,-2 v -4.89 a 2.09,2.09 0 0 0 -0.14,-0.93 0.43,0.43 0 0 0 -0.39,-0.24 h -0.14 v -0.57 h 3.17 v 0.57 h -0.14 a 0.42,0.42 0 0 0 -0.39,0.23 2.27,2.27 0 0 0 -0.18,0.94 v 5.23 a 4,4 0 0 0 0.59,2.5 2.46,2.46 0 0 0 2,0.7 4.33,4.33 0 0 0 1.16,-0.14 2.39,2.39 0 0 0 0.84,-0.43 2,2 0 0 0 0.65,-1 9.75,9.75 0 0 0 0.2,-2.37 v -3.55 a 4.21,4.21 0 0 0 -0.23,-1.58 0.86,0.86 0 0 0 -0.67,-0.55 h -0.12 v -0.55 h 2.77 v 0.54 h -0.1 a 0.94,0.94 0 0 0 -0.63,0.58 4.51,4.51 0 0 0 -0.2,1.62 v 3.44 a 12.56,12.56 0 0 1 -0.16,2.27 2.91,2.91 0 0 1 -1.87,2.29 5.51,5.51 0 0 1 -2.02,0.34 z"
     id="path196" />
  <path
     class="cls-1"
     d="m 57.299999,22.35 h -0.83 v -0.06 l -6.39,-8.95 v 6.47 a 2.93,2.93 0 0 0 0.24,1.32 0.93,0.93 0 0 0 0.67,0.53 h 0.12 v 0.56 h -2.85 v -0.54 h 0.1 a 1.25,1.25 0 0 0 0.69,-0.58 2.57,2.57 0 0 0 0.22,-1.16 v -6.75 a 1.91,1.91 0 0 0 -0.19,-1 0.68,0.68 0 0 0 -0.55,-0.3 h -0.14 v -0.56 h 2.45 v 0.06 l 5.64,7.92 V 14.6 a 6.3,6.3 0 0 0 -0.23,-2 1,1 0 0 0 -0.73,-0.63 h -0.12 v -0.55 h 2.65 v 0.51 h -0.07 a 1.3,1.3 0 0 0 -0.53,0.68 7.56,7.56 0 0 0 -0.16,1.9 z"
     id="path198" />
  <path
     class="cls-1"
     d="m 62.209999,22.24 h -3.18 v -0.57 h 0.14 a 0.44,0.44 0 0 0 0.4,-0.23 2.2,2.2 0 0 0 0.14,-0.91 v -7.4 a 2.25,2.25 0 0 0 -0.14,-0.93 0.44,0.44 0 0 0 -0.39,-0.24 h -0.15 v -0.57 h 3.18 v 0.57 h -0.15 a 0.43,0.43 0 0 0 -0.35,0.17 2.27,2.27 0 0 0 -0.14,0.94 v 7.41 a 2.14,2.14 0 0 0 0.14,0.91 0.42,0.42 0 0 0 0.39,0.23 h 0.15 z"
     id="path200" />
  <path
     class="cls-1"
     d="m 67.909999,22.47 h -1.12 l -3.16,-9.23 a 3.65,3.65 0 0 0 -0.42,-0.92 0.94,0.94 0 0 0 -0.44,-0.39 h -0.1 V 11.4 h 3.13 v 0.55 h -0.12 a 0.53,0.53 0 0 0 -0.29,0.15 0.36,0.36 0 0 0 -0.09,0.26 0.92,0.92 0 0 0 0,0.18 c 0,0.09 0,0.19 0.08,0.32 l 2.41,7.19 2.06,-6.61 a 1.36,1.36 0 0 0 0.06,-0.29 1.51,1.51 0 0 0 0,-0.3 1.09,1.09 0 0 0 -0.18,-0.61 0.59,0.59 0 0 0 -0.39,-0.29 h -0.13 V 11.4 h 2.78 v 0.52 h -0.09 a 1.85,1.85 0 0 0 -0.78,0.64 4.93,4.93 0 0 0 -0.59,1.31 z"
     id="path202" />
  <path
     class="cls-1"
     d="m 80.339999,22.24 h -7.91 v -0.58 h 0.15 a 0.43,0.43 0 0 0 0.39,-0.23 2.2,2.2 0 0 0 0.14,-0.91 v -7.39 a 2.27,2.27 0 0 0 -0.14,-0.94 0.43,0.43 0 0 0 -0.39,-0.23 h -0.15 v -0.57 h 7.67 l 0.2,2.33 -0.57,0.08 v -0.11 a 2,2 0 0 0 -0.91,-1.16 6,6 0 0 0 -2.46,-0.33 h -0.45 c -0.68,0 -0.83,0.08 -0.86,0.1 -0.03,0.02 -0.11,0.12 -0.11,0.58 v 2.86 h 1.38 a 4.29,4.29 0 0 0 1.63,-0.22 1.1,1.1 0 0 0 0.61,-0.7 v -0.1 h 0.5 v 2.81 h -0.51 v -0.1 a 1.19,1.19 0 0 0 -0.52,-0.69 3.42,3.42 0 0 0 -1.5,-0.2 h -1.59 v 4 c 0,0.56 0.12,0.71 0.17,0.74 a 2.42,2.42 0 0 0 1.11,0.13 c 0.76,0 1.32,0 1.64,0 a 5.47,5.47 0 0 0 0.84,-0.16 2.67,2.67 0 0 0 0.86,-0.51 6.11,6.11 0 0 0 0.9,-1 l 0.07,-0.11 0.53,0.29 z"
     id="path204" />
  <path
     class="cls-1"
     d="m 90.709999,23.52 -0.21,-0.09 a 7.36,7.36 0 0 1 -2.84,-2.25 13.38,13.38 0 0 1 -2,-3.8 h -0.57 -0.83 v 3.15 a 2.14,2.14 0 0 0 0.14,0.91 0.42,0.42 0 0 0 0.38,0.23 h 0.15 v 0.58 h -3.22 v -0.58 h 0.14 a 0.42,0.42 0 0 0 0.39,-0.23 2.2,2.2 0 0 0 0.14,-0.91 v -7.4 a 2.27,2.27 0 0 0 -0.14,-0.94 0.42,0.42 0 0 0 -0.39,-0.23 h -0.14 v -0.57 l 2.53,-0.12 h 0.88 0.51 a 6.32,6.32 0 0 1 3.47,0.85 2.71,2.71 0 0 1 1.33,2.34 2.44,2.44 0 0 1 -0.83,1.84 4.38,4.38 0 0 1 -2,1 24.86,24.86 0 0 0 1.51,3.52 7.6,7.6 0 0 0 1.57,2.12 h 0.05 z m -6.5,-6.89 h 0.32 0.63 a 4.5,4.5 0 0 0 2.55,-0.5 2,2 0 0 0 0.8,-1.75 2.31,2.31 0 0 0 -0.72,-1.81 3.05,3.05 0 0 0 -2.07,-0.64 2.34,2.34 0 0 0 -1.23,0.23 1,1 0 0 0 -0.3,0.84 z"
     id="path206" />
  <path
     class="cls-1"
     d="m 95.219999,22.47 a 5.92,5.92 0 0 1 -3.86,-1.4 l -0.07,-0.06 0.64,-2.26 0.55,0.1 v 0.09 a 4,4 0 0 0 1.06,2.08 2.47,2.47 0 0 0 1.81,0.72 2.22,2.22 0 0 0 1.54,-0.53 1.74,1.74 0 0 0 0.58,-1.37 1.85,1.85 0 0 0 -0.46,-1.29 6,6 0 0 0 -2,-1.13 l -0.41,-0.15 a 6,6 0 0 1 -2,-1.16 3,3 0 0 1 -0.6,-0.92 2.63,2.63 0 0 1 -0.29,-1.06 2.78,2.78 0 0 1 1,-2.15 3.41,3.41 0 0 1 2.37,-0.85 5.35,5.35 0 0 1 1.6,0.26 7.63,7.63 0 0 1 1.66,0.8 l 0.09,0.06 -0.53,2.06 -0.53,-0.1 v -0.09 a 3.42,3.42 0 0 0 -0.92,-1.66 2.13,2.13 0 0 0 -1.49,-0.58 2,2 0 0 0 -1.36,0.44 1.43,1.43 0 0 0 -0.49,1.14 1.47,1.47 0 0 0 0.42,1.07 5.59,5.59 0 0 0 1.75,1 l 0.42,0.18 a 7.79,7.79 0 0 1 2.43,1.3 2.5,2.5 0 0 1 0.64,0.94 3.4,3.4 0 0 1 0.2,1.18 3.09,3.09 0 0 1 -1.05,2.4 3.81,3.81 0 0 1 -2.7,0.94 z"
     id="path208" />
  <path
     class="cls-1"
     d="m 103.18,22.24 h -3.17 v -0.57 h 0.14 a 0.44,0.44 0 0 0 0.4,-0.23 2.24,2.24 0 0 0 0.13,-0.91 v -7.4 a 2.09,2.09 0 0 0 -0.14,-0.93 0.43,0.43 0 0 0 -0.39,-0.24 h -0.14 v -0.57 h 3.17 v 0.57 h -0.14 a 0.42,0.42 0 0 0 -0.39,0.23 2.27,2.27 0 0 0 -0.14,0.94 v 7.41 a 2.14,2.14 0 0 0 0.14,0.91 0.41,0.41 0 0 0 0.39,0.23 h 0.14 z"
     id="path210" />
  <path
     class="cls-1"
     d="m 110.09,22.24 h -3.2 v -0.58 h 0.14 a 0.42,0.42 0 0 0 0.39,-0.23 2.24,2.24 0 0 0 0.13,-0.91 v -8.06 a 0.59,0.59 0 0 0 0,-0.25 v 0 a 0.41,0.41 0 0 0 -0.21,0 3.5,3.5 0 0 0 -1.8,0.37 3.39,3.39 0 0 0 -1.14,1.3 l -0.06,0.12 -0.63,-0.27 0.62,-2.36 h 8.22 l 0.62,2.36 -0.57,0.24 -0.06,-0.12 a 3.35,3.35 0 0 0 -1.14,-1.31 3.55,3.55 0 0 0 -1.79,-0.36 c -0.18,0 -0.22,0 -0.22,0 0,0 0,0 0,0.24 v 8.06 a 2,2 0 0 0 0.15,0.91 0.43,0.43 0 0 0 0.39,0.23 h 0.14 z"
     id="path212" />
  <path
     class="cls-1"
     d="m 122.3,22.24 h -3.16 v -0.55 h 0.12 a 0.67,0.67 0 0 0 0.29,-0.15 0.37,0.37 0 0 0 0.1,-0.25 1.93,1.93 0 0 0 -0.12,-0.5 v -0.17 l -0.55,-1.79 h -3.4 l -0.47,1.3 a 2.74,2.74 0 0 0 -0.09,0.39 2,2 0 0 0 0,0.32 1,1 0 0 0 0.15,0.58 0.73,0.73 0 0 0 0.44,0.26 h 0.12 v 0.56 h -2.88 V 21.7 h 0.1 a 1.73,1.73 0 0 0 0.85,-0.65 6.6,6.6 0 0 0 0.73,-1.68 l 2.68,-8.2 h 1.14 v 0.1 l 2.93,9 a 4.82,4.82 0 0 0 0.47,1.1 0.58,0.58 0 0 0 0.4,0.31 h 0.14 z m -6.5,-4.25 h 2.91 l -1.38,-4.58 z"
     id="path214" />
  <path
     class="cls-1"
     d="m 119.38,10.64 h -0.88 l -2.4,-1.51 a 1.61,1.61 0 0 1 -0.38,-0.33 0.72,0.72 0 0 1 -0.14,-0.4 0.63,0.63 0 0 1 0.2,-0.47 0.7,0.7 0 0 1 0.84,-0.08 2.37,2.37 0 0 1 0.44,0.37 z"
     id="path216" />
  <path
     class="cls-1"
     d="m 42.229999,35.07 h -4.05 v -0.58 h 0.14 a 0.39,0.39 0 0 0 0.39,-0.23 2.14,2.14 0 0 0 0.14,-0.91 v -7.41 a 2.18,2.18 0 0 0 -0.14,-0.93 0.42,0.42 0 0 0 -0.39,-0.23 h -0.14 v -0.57 l 2.53,-0.08 h 1.19 a 10.23,10.23 0 0 1 1.92,0.15 5,5 0 0 1 1.38,0.46 4.85,4.85 0 0 1 2.07,2 6.2,6.2 0 0 1 0.76,3 5.05,5.05 0 0 1 -1.53,3.89 6.06,6.06 0 0 1 -4.27,1.44 z m 0.23,-10.2 a 3.06,3.06 0 0 0 -1.5,0.22 c -0.21,0.13 -0.31,0.42 -0.31,0.85 v 7.58 a 0.83,0.83 0 0 0 0.19,0.65 1.89,1.89 0 0 0 1,0.16 4.3,4.3 0 0 0 3.26,-1 5.33,5.33 0 0 0 0.94,-3.59 6.12,6.12 0 0 0 -0.9,-3.67 3.16,3.16 0 0 0 -2.68,-1.2 z"
     id="path218" />
  <path
     class="cls-1"
     d="m 57.009999,35.07 h -7.91 v -0.58 h 0.15 a 0.38,0.38 0 0 0 0.38,-0.23 2,2 0 0 0 0.14,-0.91 v -7.41 a 2,2 0 0 0 -0.14,-0.93 0.42,0.42 0 0 0 -0.39,-0.23 h -0.14 v -0.57 h 7.67 l 0.19,2.33 -0.56,0.08 -0.05,-0.11 a 2,2 0 0 0 -0.9,-1.16 6,6 0 0 0 -2.46,-0.32 h -0.45 a 2,2 0 0 0 -0.83,0.1 c 0,0 -0.11,0.13 -0.11,0.58 v 2.86 h 1.38 a 4.41,4.41 0 0 0 1.63,-0.21 1.17,1.17 0 0 0 0.61,-0.71 v -0.1 h 0.5 v 2.82 h -0.51 v -0.1 a 1.21,1.21 0 0 0 -0.51,-0.7 3.5,3.5 0 0 0 -1.5,-0.19 h -1.59 v 4 c 0,0.57 0.12,0.71 0.17,0.75 0.05,0.04 0.28,0.13 1.11,0.13 0.83,0 1.31,0 1.64,0 a 4.48,4.48 0 0 0 0.84,-0.16 2.67,2.67 0 0 0 0.85,-0.5 5.69,5.69 0 0 0 0.9,-1 l 0.08,-0.11 0.53,0.28 z"
     id="path220" />
  <path
     class="cls-1"
     d="m 65.839999,35.07 h -7.4 v -0.56 h 0.15 a 0.43,0.43 0 0 0 0.39,-0.24 2.17,2.17 0 0 0 0.14,-0.91 v -7.42 a 2.25,2.25 0 0 0 -0.14,-0.93 0.43,0.43 0 0 0 -0.39,-0.23 h -0.15 v -0.57 h 3.18 v 0.57 h -0.15 a 0.4,0.4 0 0 0 -0.38,0.23 2,2 0 0 0 -0.15,0.93 v 7.45 c 0,0.56 0.11,0.7 0.16,0.73 a 1.73,1.73 0 0 0 0.9,0.13 9.52,9.52 0 0 0 1.71,-0.12 2.72,2.72 0 0 0 0.92,-0.33 2.21,2.21 0 0 0 0.57,-0.46 c 0.2,-0.22 0.43,-0.51 0.68,-0.85 l 0.06,-0.09 0.56,0.19 z"
     id="path222" />
  <path
     class="cls-1"
     d="m 74.549999,35.07 h -7.4 v -0.56 h 0.14 a 0.44,0.44 0 0 0 0.4,-0.24 2.17,2.17 0 0 0 0.14,-0.91 v -7.42 a 2.06,2.06 0 0 0 -0.15,-0.93 0.42,0.42 0 0 0 -0.38,-0.23 h -0.15 v -0.57 h 3.18 v 0.57 h -0.15 a 0.42,0.42 0 0 0 -0.39,0.23 2.18,2.18 0 0 0 -0.14,0.93 v 7.45 c 0,0.56 0.11,0.7 0.16,0.73 0.05,0.03 0.27,0.13 0.9,0.13 a 9.52,9.52 0 0 0 1.66,-0.1 2.72,2.72 0 0 0 0.92,-0.33 2.6,2.6 0 0 0 0.57,-0.46 9.05,9.05 0 0 0 0.67,-0.85 l 0.07,-0.09 0.56,0.19 z"
     id="path224" />
  <path
     class="cls-1"
     d="m 84.789999,35.07 h -3.16 v -0.55 h 0.12 a 0.48,0.48 0 0 0 0.29,-0.15 0.33,0.33 0 0 0 0.1,-0.24 1.85,1.85 0 0 0 -0.12,-0.5 l -0.05,-0.18 -0.55,-1.78 h -3.4 l -0.42,1.31 a 2.34,2.34 0 0 0 -0.09,0.38 2,2 0 0 0 0,0.33 1,1 0 0 0 0.15,0.57 0.68,0.68 0 0 0 0.44,0.26 h 0.12 v 0.55 h -2.91 v -0.54 h 0.11 a 1.75,1.75 0 0 0 0.84,-0.65 6.44,6.44 0 0 0 0.73,-1.68 l 2.68,-8.2 h 1.14 v 0.1 l 2.92,9 a 4.44,4.44 0 0 0 0.47,1.1 0.58,0.58 0 0 0 0.4,0.31 h 0.14 z m -6.5,-4.25 h 2.88 l -1.38,-4.57 z"
     id="path226" />
  <path
     class="cls-1"
     d="m 43.009999,48.13 a 4.57,4.57 0 0 1 -3.54,-1.47 5.64,5.64 0 0 1 -1.32,-3.89 7.37,7.37 0 0 1 0.5,-2.76 5.72,5.72 0 0 1 1.48,-2.14 3.85,3.85 0 0 1 1.37,-0.79 5.29,5.29 0 0 1 3.49,0 8.37,8.37 0 0 1 1.88,1 l 0.1,0.06 -0.63,2 -0.55,-0.09 v -0.09 a 4,4 0 0 0 -1.16,-1.83 2.66,2.66 0 0 0 -1.75,-0.61 2.49,2.49 0 0 0 -2.17,1.19 5.56,5.56 0 0 0 -0.83,3.2 6,6 0 0 0 1.07,3.69 3.21,3.21 0 0 0 2.68,1.4 3.35,3.35 0 0 0 1.74,-0.46 5.17,5.17 0 0 0 1.51,-1.41 l 0.08,-0.12 0.51,0.35 -0.08,0.12 a 6,6 0 0 1 -1.9,2 4.62,4.62 0 0 1 -2.48,0.65 z"
     id="path228" />
  <path
     class="cls-1"
     d="m 56.299999,47.9 h -3.16 v -0.54 h 0.11 a 0.58,0.58 0 0 0 0.3,-0.16 0.32,0.32 0 0 0 0.09,-0.24 2.18,2.18 0 0 0 -0.11,-0.5 l -0.61,-2 h -3.39 l -0.42,1.31 a 3.75,3.75 0 0 0 -0.1,0.39 2,2 0 0 0 0,0.32 1,1 0 0 0 0.16,0.57 0.67,0.67 0 0 0 0.44,0.27 h 0.12 v 0.55 h -2.88 v -0.53 h 0.1 a 1.65,1.65 0 0 0 0.84,-0.64 6.22,6.22 0 0 0 0.74,-1.68 l 2.68,-8.21 h 1.14 v 0.11 l 2.93,9 a 4.82,4.82 0 0 0 0.47,1.1 c 0.13,0.2 0.26,0.3 0.4,0.31 h 0.13 z m -6.5,-4.24 h 2.91 l -1.42,-4.53 z"
     id="path230" />
  <path
     class="cls-1"
     d="m 64.069999,47.9 h -7.36 v -0.56 h 0.14 a 0.43,0.43 0 0 0 0.4,-0.24 2.15,2.15 0 0 0 0.13,-0.9 v -7.43 a 2.07,2.07 0 0 0 -0.14,-0.92 0.43,0.43 0 0 0 -0.39,-0.24 h -0.14 v -0.58 h 3.17 v 0.58 h -0.17 a 0.42,0.42 0 0 0 -0.39,0.23 2.25,2.25 0 0 0 -0.14,0.93 v 7.46 c 0,0.55 0.11,0.69 0.15,0.73 a 1.73,1.73 0 0 0 0.9,0.13 9.52,9.52 0 0 0 1.66,-0.1 3.3,3.3 0 0 0 0.93,-0.33 2.73,2.73 0 0 0 0.56,-0.47 8.72,8.72 0 0 0 0.68,-0.84 l 0.06,-0.09 0.56,0.18 z"
     id="path232" />
  <path
     class="cls-1"
     d="m 74.029999,47.9 h -3.16 v -0.54 h 0.11 a 0.58,0.58 0 0 0 0.3,-0.16 0.33,0.33 0 0 0 0.1,-0.24 1.93,1.93 0 0 0 -0.12,-0.5 l -0.61,-2 h -3.39 l -0.42,1.31 a 3.56,3.56 0 0 0 -0.13,0.36 1.33,1.33 0 0 0 0,0.32 1,1 0 0 0 0.16,0.57 0.67,0.67 0 0 0 0.44,0.27 h 0.12 v 0.55 h -2.88 v -0.53 h 0.1 a 1.65,1.65 0 0 0 0.84,-0.64 6.22,6.22 0 0 0 0.74,-1.68 l 2.68,-8.21 h 1.14 v 0.11 l 2.93,9 a 4.82,4.82 0 0 0 0.47,1.1 0.58,0.58 0 0 0 0.4,0.31 h 0.14 z m -6.5,-4.24 h 2.88 l -1.38,-4.53 z"
     id="path234" />
  <path
     class="cls-1"
     d="m 78.379999,47.9 h -4 v -0.57 h 0.15 a 0.42,0.42 0 0 0 0.38,-0.23 2.2,2.2 0 0 0 0.14,-0.91 v -7.42 a 2.25,2.25 0 0 0 -0.14,-0.93 0.42,0.42 0 0 0 -0.39,-0.23 h -0.14 v -0.57 l 2.45,-0.06 h 0.83 0.49 a 6,6 0 0 1 3.19,0.77 2.32,2.32 0 0 1 1.26,2 2,2 0 0 1 -0.73,1.56 4.12,4.12 0 0 1 -1.48,0.78 4.16,4.16 0 0 1 1.74,0.94 2.62,2.62 0 0 1 0.87,2 2.46,2.46 0 0 1 -1.29,2.1 6.39,6.39 0 0 1 -3.33,0.77 z m -1.58,-5.43 v 3.73 c 0,0.58 0.12,0.76 0.19,0.81 a 2.42,2.42 0 0 0 1.19,0.16 3.61,3.61 0 0 0 2.25,-0.57 2.16,2.16 0 0 0 0.69,-1.77 2.2,2.2 0 0 0 -0.67,-1.77 3.24,3.24 0 0 0 -2.13,-0.59 z m 0,-0.73 h 0.79 a 4.81,4.81 0 0 0 2.5,-0.48 1.63,1.63 0 0 0 0.7,-1.5 1.85,1.85 0 0 0 -0.65,-1.53 2.92,2.92 0 0 0 -1.89,-0.54 2.44,2.44 0 0 0 -1.21,0.19 c -0.16,0.12 -0.24,0.42 -0.24,0.88 z"
     id="path236" />
  <path
     class="cls-1"
     d="m 92.709999,49.18 -0.21,-0.08 a 7.46,7.46 0 0 1 -2.84,-2.25 13.66,13.66 0 0 1 -2,-3.8 h -0.57 -0.83 v 3.15 a 2.14,2.14 0 0 0 0.14,0.91 0.42,0.42 0 0 0 0.39,0.23 h 0.14 v 0.57 h -3.22 v -0.58 h 0.15 a 0.42,0.42 0 0 0 0.38,-0.23 2,2 0 0 0 0.14,-0.91 v -7.42 a 2.09,2.09 0 0 0 -0.14,-0.93 0.42,0.42 0 0 0 -0.39,-0.23 h -0.14 v -0.57 l 2.54,-0.12 h 0.87 0.51 a 6.23,6.23 0 0 1 3.47,0.85 2.7,2.7 0 0 1 1.33,2.33 2.44,2.44 0 0 1 -0.83,1.85 4.28,4.28 0 0 1 -2,1 24.53,24.53 0 0 0 1.51,3.53 7.6,7.6 0 0 0 1.57,2.12 h 0.05 z m -6.5,-6.88 a 3.16,3.16 0 0 0 0.32,0 5.83,5.83 0 0 0 0.63,0 4.48,4.48 0 0 0 2.57,-0.58 2,2 0 0 0 0.8,-1.75 2.33,2.33 0 0 0 -0.71,-1.81 3.08,3.08 0 0 0 -2.08,-0.64 2.34,2.34 0 0 0 -1.23,0.23 1,1 0 0 0 -0.3,0.84 z"
     id="path238" />
  <path
     class="cls-1"
     d="m 96.309999,47.9 h -3.18 v -0.56 h 0.14 a 0.42,0.42 0 0 0 0.44,-0.21 2.12,2.12 0 0 0 0.14,-0.9 v -7.46 a 2.23,2.23 0 0 0 -0.14,-0.92 0.44,0.44 0 0 0 -0.39,-0.24 h -0.15 v -0.58 h 3.18 v 0.58 h -0.15 a 0.43,0.43 0 0 0 -0.39,0.23 2.25,2.25 0 0 0 -0.14,0.93 v 7.42 a 2.14,2.14 0 0 0 0.14,0.91 0.42,0.42 0 0 0 0.39,0.23 h 0.15 z"
     id="path240" />
  <path
     class="cls-1"
     d="m 106.36,47.9 h -3.16 v -0.54 h 0.12 a 0.55,0.55 0 0 0 0.29,-0.16 0.3,0.3 0 0 0 0.1,-0.24 1.93,1.93 0 0 0 -0.12,-0.5 l -0.6,-2 h -3.390001 l -0.43,1.31 a 3.56,3.56 0 0 0 -0.09,0.39 2,2 0 0 0 0,0.32 1,1 0 0 0 0.15,0.57 0.69,0.69 0 0 0 0.45,0.27 h 0.12 v 0.55 h -2.88 v -0.53 h 0.1 a 1.73,1.73 0 0 0 0.84,-0.64 6.6,6.6 0 0 0 0.73,-1.68 L 101.27,36.81 h 1.14 v 0.11 l 2.92,9 a 4.82,4.82 0 0 0 0.47,1.1 c 0.14,0.2 0.27,0.3 0.4,0.31 h 0.14 z M 99.869999,43.66 H 102.71 l -1.35,-4.53 z"
     id="path242" />
  <path
     class="cls-1"
     d="m 289.71,16.35 c 0,-1.57 -0.63,-2.35 -1.89,-2.35 -1.26,0 -1.89,0.78 -1.89,2.35 v 27.1 c 0,1.57 0.63,2.35 1.89,2.35 1.26,0 1.89,-0.78 1.89,-2.35 v -5.16 h 3.37 v 5.26 a 5.11,5.11 0 0 1 -1.33,3.76 6.37,6.37 0 0 1 -7.87,0 5.11,5.11 0 0 1 -1.33,-3.76 v -27.3 a 5.12,5.12 0 0 1 1.33,-3.76 6.41,6.41 0 0 1 7.87,0 5.12,5.12 0 0 1 1.33,3.76 v 4.88 h -3.37 z"
     id="path244" />
  <path
     class="cls-1"
     d="m 297.24,14.31 h -3.79 v -2.87 h 10.94 v 2.87 h -3.78 v 34.05 h -3.37 z"
     id="path246" />
  <path
     class="cls-1"
     d="m 312.08,16.35 c 0,-1.57 -0.63,-2.35 -1.89,-2.35 -1.26,0 -1.89,0.78 -1.89,2.35 v 27.1 c 0,1.57 0.63,2.35 1.89,2.35 1.26,0 1.89,-0.78 1.89,-2.35 v -5.16 h 3.38 v 5.26 a 5.15,5.15 0 0 1 -1.33,3.76 6.39,6.39 0 0 1 -7.88,0 5.15,5.15 0 0 1 -1.33,-3.76 v -27.3 a 5.17,5.17 0 0 1 1.33,-3.76 6.42,6.42 0 0 1 7.88,0 5.17,5.17 0 0 1 1.33,3.76 v 4.88 h -3.38 z"
     id="path248" />
  <metadata
     id="metadata368">
    <rdf:RDF>
      <cc:Work
         rdf:about="">
        <dc:title>testate dipartimenti</dc:title>
      </cc:Work>
    </rdf:RDF>
  </metadata>
</svg>
