<svg id="Livello_1" data-name="Livello 1" xmlns="http://www.w3.org/2000/svg" viewBox="0 0 841.89 121.67"><defs><style>.cls-1{fill:#fff;}.cls-2{fill:#b71918;}</style></defs><title>testate dipartimenti</title><path class="cls-1" d="M161.14,40.61V32.06H164c3,0,3.64,1.27,3.64,4.11s-.57,4.44-3.64,4.44Zm2.88-7h-1.14V39.1H164c1.69,0,1.85-1,1.85-2.93S165.71,33.56,164,33.56Z"/><path class="cls-1" d="M169.16,32.06h1.74v8.55h-1.74Z"/><path class="cls-1" d="M174.49,38.12v2.49h-1.73V32.06h3.14c2,0,3,1,3,3a2.75,2.75,0,0,1-3,3.1Zm1.4-1.49c.87,0,1.29-.53,1.29-1.61s-.42-1.48-1.29-1.48h-1.4v3.09Z"/><path class="cls-1" d="M181.13,32.06h3.3l1.92,8.55h-1.74l-.34-1.55h-3l-.34,1.55h-1.73Zm.48,5.49H184l-.87-4.06h-.6Z"/><path class="cls-1" d="M189.23,37.74v2.87h-1.74V32.06h3.32c1.95,0,3,.86,3,2.81a2.72,2.72,0,0,1-1.26,2.47l1.22,3.27h-1.9l-1-2.87Zm1.58-4.2h-1.58v2.72h1.61c.86,0,1.22-.61,1.22-1.36A1.19,1.19,0,0,0,190.81,33.54Z"/><path class="cls-1" d="M194.52,32.06h6.29v1.53h-2.27v7h-1.73v-7h-2.29Z"/><path class="cls-1" d="M201.9,32.06h1.73v8.55H201.9Z"/><path class="cls-1" d="M205.49,32.06h3L210,38.29l1.51-6.23h2.95v8.55h-1.73V34h-.19l-1.68,6.24h-1.73L207.42,34h-.19v6.62h-1.74Z"/><path class="cls-1" d="M216.28,32.06h5.53v1.5H218v2h3.05v1.49H218V39.1h3.8v1.51h-5.53Z"/><path class="cls-1" d="M223.24,32.06h2.93l2.07,7h.12v-7h1.74v8.55h-2.86l-2.14-7H225v7h-1.74Z"/><path class="cls-1" d="M231.19,32.06h6.29v1.53h-2.27v7h-1.73v-7h-2.29Z"/><path class="cls-1" d="M238.12,36.38c0-2.89.85-4.48,3.54-4.48s3.55,1.59,3.55,4.48-.86,4.38-3.55,4.38S238.12,39.27,238.12,36.38Zm5.3,0c0-2-.35-3-1.76-3s-1.76,1-1.76,3,.35,2.87,1.76,2.87S243.42,38.35,243.42,36.38Z"/><path class="cls-1" d="M249.45,40.61V32.06h2.88c3,0,3.64,1.27,3.64,4.11s-.57,4.44-3.64,4.44Zm2.88-7h-1.14V39.1h1.14c1.69,0,1.85-1,1.85-2.93S254,33.56,252.33,33.56Z"/><path class="cls-1" d="M257.47,32.06h1.74v8.55h-1.74Z"/><path class="cls-1" d="M269.25,40.47a14.57,14.57,0,0,1-2.48.29c-2.65,0-3.27-1.44-3.27-4.43,0-3.24.73-4.43,3.27-4.43a12.58,12.58,0,0,1,2.5.34l0,1.39a18.5,18.5,0,0,0-2.2-.19c-1.32,0-1.74.46-1.74,2.89s.3,2.89,1.79,2.89a20.59,20.59,0,0,0,2.15-.17Z"/><path class="cls-1" d="M275.58,37.06H272.4v3.55h-1.74V32.06h1.74v3.49h3.18V32.06h1.73v8.55h-1.73Z"/><path class="cls-1" d="M279.17,32.06h1.74v8.55h-1.74Z"/><path class="cls-1" d="M282.77,32.06h3l1.51,6.23,1.51-6.23h3v8.55H290V34h-.19l-1.67,6.24h-1.74L284.69,34h-.19v6.62h-1.73Z"/><path class="cls-1" d="M293.55,32.06h1.74v8.55h-1.74Z"/><path class="cls-1" d="M302.57,40.47a14.7,14.7,0,0,1-2.49.29c-2.64,0-3.27-1.44-3.27-4.43,0-3.24.73-4.43,3.27-4.43a12.58,12.58,0,0,1,2.5.34l-.05,1.39a18.32,18.32,0,0,0-2.2-.19c-1.32,0-1.73.46-1.73,2.89s.3,2.89,1.78,2.89a20.38,20.38,0,0,0,2.15-.17Z"/><path class="cls-1" d="M305.18,32.06h3.3l1.92,8.55h-1.74l-.33-1.55h-3L305,40.61h-1.73Zm.48,5.49H308l-.87-4.06h-.6Z"/><path class="cls-1" d="M314.31,32.06h5.53v1.5H316v2h3v1.49h-3V39.1h3.8v1.51h-5.53Z"/><path class="cls-1" d="M323.27,32.06h6.29v1.53h-2.27v7h-1.73v-7h-2.29Z"/><path class="cls-1" d="M330.65,32.06h5.53v1.5h-3.79v2h3v1.49h-3V39.1h3.79v1.51h-5.53Z"/><path class="cls-1" d="M343,40.47a14.7,14.7,0,0,1-2.49.29c-2.64,0-3.27-1.44-3.27-4.43,0-3.24.73-4.43,3.27-4.43a12.47,12.47,0,0,1,2.5.34l-.05,1.39a18.14,18.14,0,0,0-2.2-.19c-1.32,0-1.73.46-1.73,2.89s.3,2.89,1.78,2.89a20.38,20.38,0,0,0,2.15-.17Z"/><path class="cls-1" d="M344.38,32.06h2.93l2.06,7h.13v-7h1.73v8.55h-2.85l-2.14-7h-.13v7h-1.73Z"/><path class="cls-1" d="M352.71,36.38c0-2.89.86-4.48,3.55-4.48s3.54,1.59,3.54,4.48-.85,4.38-3.54,4.38S352.71,39.27,352.71,36.38Zm5.31,0c0-2-.35-3-1.76-3s-1.76,1-1.76,3,.35,2.87,1.76,2.87S358,38.35,358,36.38Z"/><path class="cls-1" d="M361.29,40.61V32.06H363v7h3.13v1.54Z"/><path class="cls-1" d="M366.77,36.38c0-2.89.85-4.48,3.54-4.48s3.55,1.59,3.55,4.48-.86,4.38-3.55,4.38S366.77,39.27,366.77,36.38Zm5.3,0c0-2-.35-3-1.76-3s-1.76,1-1.76,3,.36,2.87,1.76,2.87S372.07,38.35,372.07,36.38Z"/><path class="cls-1" d="M378.9,36h2.49v4.44a23.85,23.85,0,0,1-2.92.29c-2.79,0-3.49-1.56-3.49-4.43,0-3.12.9-4.43,3.43-4.43a17,17,0,0,1,3,.36l-.05,1.34s-1.51-.16-2.65-.16c-1.49,0-1.93.49-1.93,2.89s.32,2.92,1.87,2.92c.52,0,1.05,0,1.05,0V37.54h-.78Z"/><path class="cls-1" d="M383,32.06h1.74v8.55H383Z"/><path class="cls-1" d="M386.62,32.06h5.53v1.5h-3.8v2h3v1.49h-3V39.1h3.8v1.51h-5.53Z"/><path class="cls-1" d="M401.77,40.47a14.7,14.7,0,0,1-2.49.29c-2.64,0-3.27-1.44-3.27-4.43,0-3.24.73-4.43,3.27-4.43a12.58,12.58,0,0,1,2.5.34l0,1.39a18.5,18.5,0,0,0-2.2-.19c-1.32,0-1.74.46-1.74,2.89s.31,2.89,1.79,2.89a20.38,20.38,0,0,0,2.15-.17Z"/><path class="cls-1" d="M408.09,37.06h-3.18v3.55h-1.74V32.06h1.74v3.49h3.18V32.06h1.73v8.55h-1.73Z"/><path class="cls-1" d="M411.68,32.06h1.74v8.55h-1.74Z"/><path class="cls-1" d="M415.28,32.06h3l1.51,6.23,1.51-6.23h3v8.55h-1.74V34h-.19l-1.67,6.24h-1.74L417.2,34H417v6.62h-1.73Z"/><path class="cls-1" d="M426.07,32.06h1.73v8.55h-1.73Z"/><path class="cls-1" d="M435.08,40.47a14.7,14.7,0,0,1-2.49.29c-2.64,0-3.27-1.44-3.27-4.43,0-3.24.73-4.43,3.27-4.43a12.58,12.58,0,0,1,2.5.34l0,1.39a18.32,18.32,0,0,0-2.2-.19c-1.32,0-1.73.46-1.73,2.89s.3,2.89,1.78,2.89a20.38,20.38,0,0,0,2.15-.17Z"/><path class="cls-1" d="M441.4,37.06h-3.18v3.55h-1.73V32.06h1.73v3.49h3.18V32.06h1.74v8.55H441.4Z"/><path class="cls-1" d="M445,32.06h5.53v1.5h-3.8v2h3v1.49h-3V39.1h3.8v1.51H445Z"/><path class="cls-1" d="M454.5,36.49h3.72V38H454.5Z"/><path class="cls-1" d="M468,40.47a14.7,14.7,0,0,1-2.49.29c-2.64,0-3.27-1.44-3.27-4.43,0-3.24.73-4.43,3.27-4.43a12.47,12.47,0,0,1,2.5.34L468,33.63a18.32,18.32,0,0,0-2.2-.19c-1.32,0-1.73.46-1.73,2.89s.3,2.89,1.78,2.89a20.38,20.38,0,0,0,2.15-.17Z"/><path class="cls-1" d="M468.68,32.06H475v1.53H472.7v7H471v-7h-2.29Z"/><path class="cls-1" d="M481.48,40.47a14.7,14.7,0,0,1-2.49.29c-2.64,0-3.27-1.44-3.27-4.43,0-3.24.73-4.43,3.27-4.43a12.58,12.58,0,0,1,2.5.34l-.05,1.39a18.32,18.32,0,0,0-2.2-.19c-1.32,0-1.73.46-1.73,2.89s.3,2.89,1.78,2.89a20.38,20.38,0,0,0,2.15-.17Z"/><rect class="cls-2" width="841.89" height="121.67"/><path class="cls-1" d="M225.27,54v-8.7h3.11c2.53,0,3.22,1.75,3.22,4.22S230.94,54,228.38,54Zm3.11-7.85h-2.14v7h2.14c1.81,0,2.23-1.73,2.23-3.62S230.19,46.11,228.38,46.11Z"/><path class="cls-1" d="M233.63,45.26h1V54h-1Z"/><path class="cls-1" d="M238,51V54h-1v-8.7h3.18c1.9,0,2.78.91,2.78,2.8s-.88,3-2.78,3Zm2.2-.86c1.27,0,1.79-.77,1.79-2.11s-.52-2-1.79-2H238v4.06Z"/><path class="cls-1" d="M245.92,45.26H248l2.39,8.7h-1l-.63-2.24h-3.72L244.48,54h-.95Zm-.59,5.59h3.29l-1.32-4.76h-.65Z"/><path class="cls-1" d="M253,50.62V54h-1v-8.7h3.22c1.82,0,2.78.8,2.78,2.64a2.36,2.36,0,0,1-1.6,2.52L258.11,54H257l-1.57-3.34Zm2.25-4.51H253v3.66h2.26c1.31,0,1.77-.78,1.77-1.87A1.56,1.56,0,0,0,255.26,46.11Z"/><path class="cls-1" d="M259,45.26h6.29v.86h-2.65V54h-1V46.12H259Z"/><path class="cls-1" d="M266.77,45.26h1V54h-1Z"/><path class="cls-1" d="M270.12,45.26h1.74l2.47,7.35,2.46-7.35h1.75V54h-1V46.29h-.17l-2.53,7.35h-1.08l-2.53-7.35h-.18V54h-1Z"/><path class="cls-1" d="M280.93,45.26h5.29v.85h-4.33v3h3.58V50h-3.58V53.1h4.33V54h-5.29Z"/><path class="cls-1" d="M288.13,45.26h1.81l3.33,7.84h.27V45.26h.95V54h-1.77l-3.38-7.85h-.24V54h-1Z"/><path class="cls-1" d="M296,45.26h6.29v.86h-2.65V54h-1V46.12H296Z"/><path class="cls-1" d="M303.14,49.64c0-2.86.74-4.51,3.43-4.51S310,46.75,310,49.64s-.74,4.44-3.45,4.44S303.14,52.56,303.14,49.64Zm5.87,0c0-2.35-.45-3.66-2.44-3.66s-2.44,1.3-2.44,3.66.43,3.59,2.44,3.59S309,52.1,309,49.64Z"/><path class="cls-1" d="M315.06,54v-8.7h3.1c2.53,0,3.22,1.75,3.22,4.22S320.73,54,318.16,54Zm3.1-7.85H316v7h2.13c1.81,0,2.23-1.73,2.23-3.62S320,46.11,318.16,46.11Z"/><path class="cls-1" d="M323.42,45.26h1V54h-1Z"/><path class="cls-1" d="M230.55,67a14.57,14.57,0,0,1-2.48.29c-2.65,0-3.27-1.44-3.27-4.43,0-3.24.73-4.42,3.27-4.42a12.66,12.66,0,0,1,2.5.33l0,1.39a18.5,18.5,0,0,0-2.2-.19c-1.32,0-1.74.46-1.74,2.89s.3,2.89,1.79,2.89a20.59,20.59,0,0,0,2.15-.17Z"/><path class="cls-1" d="M237.13,63.58H234v3.55h-1.74V58.58H234v3.49h3.18V58.58h1.73v8.55h-1.73Z"/><path class="cls-1" d="M241,58.58h1.73v8.55H241Z"/><path class="cls-1" d="M244.82,58.58h3l1.51,6.23,1.5-6.23h3v8.55H252V60.51h-.18l-1.68,6.24h-1.73l-1.67-6.24h-.19v6.62h-1.74Z"/><path class="cls-1" d="M255.86,58.58h1.73v8.55h-1.73Z"/><path class="cls-1" d="M265.13,67a14.7,14.7,0,0,1-2.49.29c-2.64,0-3.27-1.44-3.27-4.43,0-3.24.73-4.42,3.27-4.42a12.66,12.66,0,0,1,2.5.33l-.05,1.39a18.5,18.5,0,0,0-2.2-.19c-1.32,0-1.74.46-1.74,2.89s.3,2.89,1.79,2.89a20.59,20.59,0,0,0,2.15-.17Z"/><path class="cls-1" d="M268,58.58h3.3l1.92,8.55h-1.74l-.34-1.55h-3l-.34,1.55h-1.73Zm.48,5.49h2.34L269.94,60h-.6Z"/><path class="cls-1" d="M277.62,58.58h5.53v1.5h-3.79v2h3v1.49h-3v2.05h3.79v1.51h-5.53Z"/><path class="cls-1" d="M287.09,58.58h6.28v1.53h-2.26v7h-1.74v-7h-2.28Z"/><path class="cls-1" d="M294.72,58.58h5.53v1.5h-3.8v2h3v1.49h-3v2.05h3.8v1.51h-5.53Z"/><path class="cls-1" d="M307.29,67a14.7,14.7,0,0,1-2.49.29c-2.64,0-3.27-1.44-3.27-4.43,0-3.24.73-4.42,3.27-4.42a12.66,12.66,0,0,1,2.5.33l-.05,1.39a18.32,18.32,0,0,0-2.2-.19c-1.32,0-1.73.46-1.73,2.89s.3,2.89,1.78,2.89a20.38,20.38,0,0,0,2.15-.17Z"/><path class="cls-1" d="M309,58.58h2.93l2.06,7h.12v-7h1.74v8.55H313l-2.14-7h-.13v7H309Z"/><path class="cls-1" d="M317.53,62.9c0-2.89.86-4.47,3.55-4.47s3.54,1.58,3.54,4.47-.85,4.38-3.54,4.38S317.53,65.79,317.53,62.9Zm5.31,0c0-2-.35-3-1.76-3s-1.76,1-1.76,3,.35,2.87,1.76,2.87S322.84,64.88,322.84,62.9Z"/><path class="cls-1" d="M326.36,67.13V58.58h1.73v7h3.13v1.54Z"/><path class="cls-1" d="M332.09,62.9c0-2.89.86-4.47,3.55-4.47s3.54,1.58,3.54,4.47-.85,4.38-3.54,4.38S332.09,65.79,332.09,62.9Zm5.31,0c0-2-.36-3-1.76-3s-1.76,1-1.76,3,.35,2.87,1.76,2.87S337.4,64.88,337.4,62.9Z"/><path class="cls-1" d="M344.47,62.55H347V67a23.84,23.84,0,0,1-2.91.29c-2.8,0-3.5-1.56-3.5-4.43,0-3.12.91-4.42,3.43-4.42a17.43,17.43,0,0,1,3,.35l0,1.34S345.4,60,344.26,60c-1.48,0-1.92.49-1.92,2.89s.31,2.92,1.87,2.92c.52,0,1,0,1,0V64.06h-.78Z"/><path class="cls-1" d="M348.85,58.58h1.73v8.55h-1.73Z"/><path class="cls-1" d="M352.7,58.58h5.53v1.5h-3.8v2h3v1.49h-3v2.05h3.8v1.51H352.7Z"/><path class="cls-1" d="M230.55,80.16a14.57,14.57,0,0,1-2.48.29c-2.65,0-3.27-1.44-3.27-4.43,0-3.24.73-4.42,3.27-4.42a12.66,12.66,0,0,1,2.5.33l0,1.39a18.5,18.5,0,0,0-2.2-.19c-1.32,0-1.74.46-1.74,2.89s.3,2.89,1.79,2.89a20.59,20.59,0,0,0,2.15-.17Z"/><path class="cls-1" d="M237.13,76.75H234V80.3h-1.74V71.75H234v3.49h3.18V71.75h1.73V80.3h-1.73Z"/><path class="cls-1" d="M241,71.75h1.73V80.3H241Z"/><path class="cls-1" d="M244.82,71.75h3L249.29,78l1.5-6.23h3V80.3H252V73.68h-.18l-1.68,6.24h-1.73l-1.67-6.24h-.19V80.3h-1.74Z"/><path class="cls-1" d="M255.86,71.75h1.73V80.3h-1.73Z"/><path class="cls-1" d="M265.13,80.16a14.7,14.7,0,0,1-2.49.29c-2.64,0-3.27-1.44-3.27-4.43,0-3.24.73-4.42,3.27-4.42a12.66,12.66,0,0,1,2.5.33l-.05,1.39a18.5,18.5,0,0,0-2.2-.19c-1.32,0-1.74.46-1.74,2.89s.3,2.89,1.79,2.89a20.59,20.59,0,0,0,2.15-.17Z"/><path class="cls-1" d="M271.7,76.75h-3.18V80.3h-1.74V71.75h1.74v3.49h3.18V71.75h1.74V80.3H271.7Z"/><path class="cls-1" d="M275.55,71.75h5.53v1.5h-3.8v2h3v1.49h-3v2.05h3.8V80.3h-5.53Z"/><rect class="cls-1" x="93.29" y="55.18" width="19.23" height="3.2"/><rect class="cls-1" x="93.29" y="51.18" width="19.23" height="3.21"/><rect class="cls-1" x="93.29" y="47.18" width="19.23" height="3.2"/><rect class="cls-1" x="93.29" y="43.17" width="19.23" height="3.2"/><rect class="cls-1" x="93.29" y="39.17" width="19.23" height="3.2"/><path class="cls-1" d="M119.81,51.48l-6.19,6.19V51.48h6.19m.72-.3h-7.21v7.21l7.21-7.21Z"/><path class="cls-1" d="M122.61,47.48v2.6h-9v-2.6h9m.3-.3h-9.59v3.2h9.59v-3.2Z"/><path class="cls-1" d="M122.61,43.47v2.6h-9v-2.6h9m.3-.3h-9.59v3.2h9.59v-3.2Z"/><rect class="cls-1" x="127.56" y="39.16" width="0.3" height="41.68"/><path class="cls-1" d="M136.21,54.34a5.29,5.29,0,0,1-1.94-.33,3.43,3.43,0,0,1-1.38-1,2.89,2.89,0,0,1-.52-1.12,9.34,9.34,0,0,1-.16-2V45a2.09,2.09,0,0,0-.14-.93.43.43,0,0,0-.39-.24h-.14v-.57h3.17v.57h-.14a.42.42,0,0,0-.39.23A2.27,2.27,0,0,0,134,45v5.23a4,4,0,0,0,.59,2.5,2.46,2.46,0,0,0,2,.7,4.33,4.33,0,0,0,1.16-.14,2.39,2.39,0,0,0,.84-.43,2,2,0,0,0,.65-1,9.75,9.75,0,0,0,.2-2.37V45.94a4.21,4.21,0,0,0-.23-1.58.86.86,0,0,0-.67-.55l-.12,0v-.55h2.77v.54l-.1,0a.94.94,0,0,0-.63.58,4.51,4.51,0,0,0-.2,1.62v3.44a12.56,12.56,0,0,1-.16,2.27A2.91,2.91,0,0,1,138.23,54,5.51,5.51,0,0,1,136.21,54.34Z"/><path class="cls-1" d="M150.59,54.22h-.83l0-.06-6.39-8.95v6.47a2.93,2.93,0,0,0,.24,1.32.93.93,0,0,0,.67.53l.12,0v.56h-2.85v-.54l.1,0a1.25,1.25,0,0,0,.69-.58,2.57,2.57,0,0,0,.22-1.16V45.06a1.91,1.91,0,0,0-.19-1,.68.68,0,0,0-.55-.3h-.14v-.56h2.45l0,.06,5.64,7.92V46.47a6.3,6.3,0,0,0-.23-2,1,1,0,0,0-.73-.63l-.12,0v-.55h2.65v.51l-.07,0a1.3,1.3,0,0,0-.53.68,7.56,7.56,0,0,0-.16,1.9Z"/><path class="cls-1" d="M155.5,54.11h-3.18v-.57h.14a.44.44,0,0,0,.4-.23,2.2,2.2,0,0,0,.14-.91V45a2.25,2.25,0,0,0-.14-.93.44.44,0,0,0-.39-.24h-.15v-.57h3.18v.57h-.15A.43.43,0,0,0,155,44a2.27,2.27,0,0,0-.14.94v7.41a2.14,2.14,0,0,0,.14.91.42.42,0,0,0,.39.23h.15Z"/><path class="cls-1" d="M161.2,54.34h-1.12l-3.16-9.23a3.65,3.65,0,0,0-.42-.92.94.94,0,0,0-.44-.39l-.1,0v-.53h3.13v.55l-.12,0a.53.53,0,0,0-.29.15.36.36,0,0,0-.09.26.92.92,0,0,0,0,.18c0,.09,0,.19.08.32l2.41,7.19,2.06-6.61a1.36,1.36,0,0,0,.06-.29,1.51,1.51,0,0,0,0-.3,1.09,1.09,0,0,0-.18-.61.59.59,0,0,0-.39-.29l-.13,0v-.55h2.78v.52l-.09,0a1.85,1.85,0,0,0-.78.64,4.93,4.93,0,0,0-.59,1.31Z"/><path class="cls-1" d="M173.63,54.11h-7.91v-.58h.15a.43.43,0,0,0,.39-.23,2.2,2.2,0,0,0,.14-.91V45a2.27,2.27,0,0,0-.14-.94.43.43,0,0,0-.39-.23h-.15v-.57h7.67l.2,2.33-.57.08,0-.11a2,2,0,0,0-.91-1.16,6,6,0,0,0-2.46-.33h-.45c-.68,0-.83.08-.86.1s-.11.12-.11.58v2.86h1.38a4.29,4.29,0,0,0,1.63-.22,1.1,1.1,0,0,0,.61-.7l0-.1h.5v2.81h-.51l0-.1a1.19,1.19,0,0,0-.52-.69,3.42,3.42,0,0,0-1.5-.2h-1.59v4c0,.56.12.71.17.74a2.42,2.42,0,0,0,1.11.13c.76,0,1.32,0,1.64,0a5.47,5.47,0,0,0,.84-.16,2.67,2.67,0,0,0,.86-.51,6.11,6.11,0,0,0,.9-1l.07-.11.53.29Z"/><path class="cls-1" d="M184,55.39l-.21-.09a7.36,7.36,0,0,1-2.84-2.25,13.38,13.38,0,0,1-2-3.8h-.57l-.83,0v3.15a2.14,2.14,0,0,0,.14.91.42.42,0,0,0,.38.23h.15v.58H175v-.58h.14a.42.42,0,0,0,.39-.23,2.2,2.2,0,0,0,.14-.91V45a2.27,2.27,0,0,0-.14-.94.42.42,0,0,0-.39-.23H175v-.57l2.53-.12.88,0h.51a6.32,6.32,0,0,1,3.47.85,2.71,2.71,0,0,1,1.33,2.34,2.44,2.44,0,0,1-.83,1.84,4.38,4.38,0,0,1-2,1,24.86,24.86,0,0,0,1.51,3.52,7.6,7.6,0,0,0,1.57,2.12l.05,0Zm-6.5-6.89.32,0h.63A4.5,4.5,0,0,0,181,48a2,2,0,0,0,.8-1.75,2.31,2.31,0,0,0-.72-1.81,3.05,3.05,0,0,0-2.07-.64,2.34,2.34,0,0,0-1.23.23,1,1,0,0,0-.3.84Z"/><path class="cls-1" d="M188.51,54.34a5.92,5.92,0,0,1-3.86-1.4l-.07-.06.64-2.26.55.1,0,.09a4,4,0,0,0,1.06,2.08,2.47,2.47,0,0,0,1.81.72,2.22,2.22,0,0,0,1.54-.53,1.74,1.74,0,0,0,.58-1.37,1.85,1.85,0,0,0-.46-1.29,6,6,0,0,0-2-1.13l-.41-.15a6,6,0,0,1-2-1.16,3,3,0,0,1-.6-.92A2.63,2.63,0,0,1,185,46a2.78,2.78,0,0,1,1-2.15,3.41,3.41,0,0,1,2.37-.85,5.35,5.35,0,0,1,1.6.26,7.63,7.63,0,0,1,1.66.8l.09.06-.53,2.06-.53-.1,0-.09a3.42,3.42,0,0,0-.92-1.66,2.13,2.13,0,0,0-1.49-.58,2,2,0,0,0-1.36.44,1.43,1.43,0,0,0-.49,1.14,1.47,1.47,0,0,0,.42,1.07,5.59,5.59,0,0,0,1.75,1l.42.18a7.79,7.79,0,0,1,2.43,1.3,2.5,2.5,0,0,1,.64.94,3.4,3.4,0,0,1,.2,1.18,3.09,3.09,0,0,1-1.05,2.4A3.81,3.81,0,0,1,188.51,54.34Z"/><path class="cls-1" d="M196.47,54.11H193.3v-.57h.14a.44.44,0,0,0,.4-.23,2.24,2.24,0,0,0,.13-.91V45a2.09,2.09,0,0,0-.14-.93.43.43,0,0,0-.39-.24h-.14v-.57h3.17v.57h-.14a.42.42,0,0,0-.39.23,2.27,2.27,0,0,0-.14.94v7.41a2.14,2.14,0,0,0,.14.91.41.41,0,0,0,.39.23h.14Z"/><path class="cls-1" d="M203.38,54.11h-3.2v-.58h.14a.42.42,0,0,0,.39-.23,2.24,2.24,0,0,0,.13-.91V44.33a.59.59,0,0,0,0-.25h0a.41.41,0,0,0-.21,0,3.5,3.5,0,0,0-1.8.37,3.39,3.39,0,0,0-1.14,1.3l-.06.12L197,45.6l.62-2.36h8.22l.62,2.36-.57.24-.06-.12a3.35,3.35,0,0,0-1.14-1.31,3.55,3.55,0,0,0-1.79-.36c-.18,0-.22,0-.22,0s0,0,0,.24v8.06a2,2,0,0,0,.15.91.43.43,0,0,0,.39.23h.14Z"/><path class="cls-1" d="M215.59,54.11h-3.16v-.55l.12,0a.67.67,0,0,0,.29-.15.37.37,0,0,0,.1-.25,1.93,1.93,0,0,0-.12-.5l0-.17-.55-1.79h-3.4L208.4,52a2.74,2.74,0,0,0-.09.39,2,2,0,0,0,0,.32,1,1,0,0,0,.15.58.73.73,0,0,0,.44.26l.12,0v.56h-2.88v-.54l.1,0a1.73,1.73,0,0,0,.85-.65,6.6,6.6,0,0,0,.73-1.68l2.68-8.2h1.14l0,.1,2.93,9a4.82,4.82,0,0,0,.47,1.1.58.58,0,0,0,.4.31h.14Zm-6.5-4.25H212l-1.38-4.58Z"/><path class="cls-1" d="M212.67,42.51h-.88L209.39,41a1.61,1.61,0,0,1-.38-.33.72.72,0,0,1-.14-.4.63.63,0,0,1,.2-.47.7.7,0,0,1,.84-.08,2.37,2.37,0,0,1,.44.37Z"/><path class="cls-1" d="M135.52,66.94h-4.05v-.58h.14a.39.39,0,0,0,.39-.23,2.14,2.14,0,0,0,.14-.91V57.81a2.18,2.18,0,0,0-.14-.93.42.42,0,0,0-.39-.23h-.14v-.57L134,56h1.19a10.23,10.23,0,0,1,1.92.15,5,5,0,0,1,1.38.46,4.85,4.85,0,0,1,2.07,2,6.2,6.2,0,0,1,.76,3,5.05,5.05,0,0,1-1.53,3.89A6.06,6.06,0,0,1,135.52,66.94Zm.23-10.2a3.06,3.06,0,0,0-1.5.22c-.21.13-.31.42-.31.85v7.58a.83.83,0,0,0,.19.65,1.89,1.89,0,0,0,1,.16,4.3,4.3,0,0,0,3.26-1,5.33,5.33,0,0,0,.94-3.59,6.12,6.12,0,0,0-.9-3.67A3.16,3.16,0,0,0,135.75,56.74Z"/><path class="cls-1" d="M150.3,66.94h-7.91v-.58h.15a.38.38,0,0,0,.38-.23,2,2,0,0,0,.14-.91V57.81a2,2,0,0,0-.14-.93.42.42,0,0,0-.39-.23h-.14v-.57h7.67l.19,2.33-.56.08-.05-.11a2,2,0,0,0-.9-1.16,6,6,0,0,0-2.46-.32h-.45A2,2,0,0,0,145,57s-.11.13-.11.58v2.86h1.38a4.41,4.41,0,0,0,1.63-.21,1.17,1.17,0,0,0,.61-.71l0-.1h.5v2.82h-.51l0-.1a1.21,1.21,0,0,0-.51-.7,3.5,3.5,0,0,0-1.5-.19h-1.59v4c0,.57.12.71.17.75s.28.13,1.11.13,1.31,0,1.64,0a4.48,4.48,0,0,0,.84-.16,2.67,2.67,0,0,0,.85-.5,5.69,5.69,0,0,0,.9-1l.08-.11.53.28Z"/><path class="cls-1" d="M159.13,66.94h-7.4v-.56h.15a.43.43,0,0,0,.39-.24,2.17,2.17,0,0,0,.14-.91V57.81a2.25,2.25,0,0,0-.14-.93.43.43,0,0,0-.39-.23h-.15v-.57h3.18v.57h-.15a.4.4,0,0,0-.38.23,2,2,0,0,0-.15.93v7.45c0,.56.11.7.16.73a1.73,1.73,0,0,0,.9.13A9.52,9.52,0,0,0,157,66a2.72,2.72,0,0,0,.92-.33,2.21,2.21,0,0,0,.57-.46c.2-.22.43-.51.68-.85l.06-.09.56.19Z"/><path class="cls-1" d="M167.84,66.94h-7.4v-.56h.14a.44.44,0,0,0,.4-.24,2.17,2.17,0,0,0,.14-.91V57.81a2.06,2.06,0,0,0-.15-.93.42.42,0,0,0-.38-.23h-.15v-.57h3.18v.57h-.15a.42.42,0,0,0-.39.23,2.18,2.18,0,0,0-.14.93v7.45c0,.56.11.7.16.73s.27.13.9.13a9.52,9.52,0,0,0,1.66-.1,2.72,2.72,0,0,0,.92-.33,2.6,2.6,0,0,0,.57-.46,9.05,9.05,0,0,0,.67-.85l.07-.09.56.19Z"/><path class="cls-1" d="M178.08,66.94h-3.16v-.55l.12,0a.48.48,0,0,0,.29-.15.33.33,0,0,0,.1-.24,1.85,1.85,0,0,0-.12-.5l-.05-.18-.55-1.78h-3.4l-.42,1.31a2.34,2.34,0,0,0-.09.38,2,2,0,0,0,0,.33,1,1,0,0,0,.15.57.68.68,0,0,0,.44.26l.12,0v.55H168.6V66.4l.11,0a1.75,1.75,0,0,0,.84-.65,6.44,6.44,0,0,0,.73-1.68l2.68-8.2h1.14l0,.1,2.92,9a4.44,4.44,0,0,0,.47,1.1.58.58,0,0,0,.4.31h.14Zm-6.5-4.25h2.88l-1.38-4.57Z"/><path class="cls-1" d="M136.3,80a4.57,4.57,0,0,1-3.54-1.47,5.64,5.64,0,0,1-1.32-3.89,7.37,7.37,0,0,1,.5-2.76,5.72,5.72,0,0,1,1.48-2.14,3.85,3.85,0,0,1,1.37-.79,5.29,5.29,0,0,1,3.49,0,8.37,8.37,0,0,1,1.88,1l.1.06-.63,2-.55-.09,0-.09A4,4,0,0,0,137.92,70a2.66,2.66,0,0,0-1.75-.61A2.49,2.49,0,0,0,134,70.58a5.56,5.56,0,0,0-.83,3.2,6,6,0,0,0,1.07,3.69,3.21,3.21,0,0,0,2.68,1.4,3.35,3.35,0,0,0,1.74-.46A5.17,5.17,0,0,0,140.17,77l.08-.12.51.35-.08.12a6,6,0,0,1-1.9,2A4.62,4.62,0,0,1,136.3,80Z"/><path class="cls-1" d="M149.59,79.77h-3.16v-.54l.11,0a.58.58,0,0,0,.3-.16.32.32,0,0,0,.09-.24,2.18,2.18,0,0,0-.11-.5l-.61-2h-3.39l-.42,1.31a3.75,3.75,0,0,0-.1.39,2,2,0,0,0,0,.32,1,1,0,0,0,.16.57.67.67,0,0,0,.44.27l.12,0v.55h-2.88v-.53l.1,0a1.65,1.65,0,0,0,.84-.64,6.22,6.22,0,0,0,.74-1.68l2.68-8.21h1.14l0,.11,2.93,9a4.82,4.82,0,0,0,.47,1.1c.13.2.26.3.4.31h.13Zm-6.5-4.24H146L144.58,71Z"/><path class="cls-1" d="M157.36,79.77H150v-.56h.14a.43.43,0,0,0,.4-.24,2.15,2.15,0,0,0,.13-.9V70.64a2.07,2.07,0,0,0-.14-.92.43.43,0,0,0-.39-.24H150V68.9h3.17v.58H153a.42.42,0,0,0-.39.23,2.25,2.25,0,0,0-.14.93V78.1c0,.55.11.69.15.73a1.73,1.73,0,0,0,.9.13,9.52,9.52,0,0,0,1.66-.1,3.3,3.3,0,0,0,.93-.33,2.73,2.73,0,0,0,.56-.47,8.72,8.72,0,0,0,.68-.84l.06-.09.56.18Z"/><path class="cls-1" d="M167.32,79.77h-3.16v-.54l.11,0a.58.58,0,0,0,.3-.16.33.33,0,0,0,.1-.24,1.93,1.93,0,0,0-.12-.5l-.61-2h-3.39l-.42,1.31A3.56,3.56,0,0,0,160,78a1.33,1.33,0,0,0,0,.32,1,1,0,0,0,.16.57.67.67,0,0,0,.44.27l.12,0v.55h-2.88v-.53l.1,0a1.65,1.65,0,0,0,.84-.64,6.22,6.22,0,0,0,.74-1.68l2.68-8.21h1.14l0,.11,2.93,9a4.82,4.82,0,0,0,.47,1.1.58.58,0,0,0,.4.31h.14Zm-6.5-4.24h2.88L162.32,71Z"/><path class="cls-1" d="M171.67,79.77h-4V79.2h.15a.42.42,0,0,0,.38-.23,2.2,2.2,0,0,0,.14-.91V70.64a2.25,2.25,0,0,0-.14-.93.42.42,0,0,0-.39-.23h-.14v-.57l2.45-.06.83,0h.49a6,6,0,0,1,3.19.77,2.32,2.32,0,0,1,1.26,2,2,2,0,0,1-.73,1.56,4.12,4.12,0,0,1-1.48.78,4.16,4.16,0,0,1,1.74.94,2.62,2.62,0,0,1,.87,2A2.46,2.46,0,0,1,175,79,6.39,6.39,0,0,1,171.67,79.77Zm-1.58-5.43v3.73c0,.58.12.76.19.81a2.42,2.42,0,0,0,1.19.16,3.61,3.61,0,0,0,2.25-.57,2.16,2.16,0,0,0,.69-1.77,2.2,2.2,0,0,0-.67-1.77,3.24,3.24,0,0,0-2.13-.59Zm0-.73h.79a4.81,4.81,0,0,0,2.5-.48,1.63,1.63,0,0,0,.7-1.5,1.85,1.85,0,0,0-.65-1.53,2.92,2.92,0,0,0-1.89-.54,2.44,2.44,0,0,0-1.21.19c-.16.12-.24.42-.24.88Z"/><path class="cls-1" d="M186,81.05l-.21-.08a7.46,7.46,0,0,1-2.84-2.25,13.66,13.66,0,0,1-2-3.8h-.57l-.83,0v3.15a2.14,2.14,0,0,0,.14.91.42.42,0,0,0,.39.23h.14v.57H177V79.2h.15a.42.42,0,0,0,.38-.23,2,2,0,0,0,.14-.91V70.64a2.09,2.09,0,0,0-.14-.93.42.42,0,0,0-.39-.23H177v-.57l2.54-.12.87,0h.51a6.23,6.23,0,0,1,3.47.85,2.7,2.7,0,0,1,1.33,2.33,2.44,2.44,0,0,1-.83,1.85,4.28,4.28,0,0,1-2,1,24.53,24.53,0,0,0,1.51,3.53,7.6,7.6,0,0,0,1.57,2.12l.05,0Zm-6.5-6.88a3.16,3.16,0,0,0,.32,0,5.83,5.83,0,0,0,.63,0,4.48,4.48,0,0,0,2.57-.58,2,2,0,0,0,.8-1.75,2.33,2.33,0,0,0-.71-1.81,3.08,3.08,0,0,0-2.08-.64,2.34,2.34,0,0,0-1.23.23,1,1,0,0,0-.3.84Z"/><path class="cls-1" d="M189.6,79.77h-3.18v-.56h.14A.42.42,0,0,0,187,79a2.12,2.12,0,0,0,.14-.9V70.64a2.23,2.23,0,0,0-.14-.92.44.44,0,0,0-.39-.24h-.15V68.9h3.18v.58h-.15a.43.43,0,0,0-.39.23,2.25,2.25,0,0,0-.14.93v7.42a2.14,2.14,0,0,0,.14.91.42.42,0,0,0,.39.23h.15Z"/><path class="cls-1" d="M199.65,79.77h-3.16v-.54l.12,0a.55.55,0,0,0,.29-.16.3.3,0,0,0,.1-.24,1.93,1.93,0,0,0-.12-.5l-.6-2h-3.39l-.43,1.31a3.56,3.56,0,0,0-.09.39,2,2,0,0,0,0,.32,1,1,0,0,0,.15.57.69.69,0,0,0,.45.27l.12,0v.55h-2.88v-.53l.1,0a1.73,1.73,0,0,0,.84-.64,6.6,6.6,0,0,0,.73-1.68l2.68-8.21h1.14l0,.11,2.92,9a4.82,4.82,0,0,0,.47,1.1c.14.2.27.3.4.31h.14Zm-6.49-4.24H196L194.65,71Z"/><path class="cls-1" d="M383,48.22c0-1.57-.63-2.35-1.89-2.35s-1.89.78-1.89,2.35v27.1c0,1.57.63,2.35,1.89,2.35s1.89-.78,1.89-2.35V70.16h3.37v5.26a5.11,5.11,0,0,1-1.33,3.76,6.37,6.37,0,0,1-7.87,0,5.11,5.11,0,0,1-1.33-3.76V48.12a5.12,5.12,0,0,1,1.33-3.76,6.41,6.41,0,0,1,7.87,0,5.12,5.12,0,0,1,1.33,3.76V53H383Z"/><path class="cls-1" d="M390.53,46.18h-3.79V43.31h10.94v2.87H393.9V80.23h-3.37Z"/><path class="cls-1" d="M405.37,48.22c0-1.57-.63-2.35-1.89-2.35s-1.89.78-1.89,2.35v27.1c0,1.57.63,2.35,1.89,2.35s1.89-.78,1.89-2.35V70.16h3.38v5.26a5.15,5.15,0,0,1-1.33,3.76,6.39,6.39,0,0,1-7.88,0,5.15,5.15,0,0,1-1.33-3.76V48.12a5.17,5.17,0,0,1,1.33-3.76,6.42,6.42,0,0,1,7.88,0,5.17,5.17,0,0,1,1.33,3.76V53h-3.38Z"/></svg>