<?xml version="1.0" encoding="UTF-8" standalone="no"?>
<svg
   id="Livello_1"
   data-name="Livello 1"
   viewBox="0 0 289.43148 41.89"
   version="1.1"
   width="289.43149"
   height="41.889999"
   xmlns="http://www.w3.org/2000/svg"
   xmlns:svg="http://www.w3.org/2000/svg"
   xmlns:rdf="http://www.w3.org/1999/02/22-rdf-syntax-ns#"
   xmlns:cc="http://creativecommons.org/ns#"
   xmlns:dc="http://purl.org/dc/elements/1.1/">
  <defs
     id="defs4">
    <style
       id="style2">.cls-1{fill:#b71918;}.cls-2{fill:#fff;}</style>
  </defs>
  <title
     id="title6">testate dipartimenti</title>
  <rect
     class="cls-1"
     width="841.89001"
     height="121.67"
     id="rect8"
     x="-52.634003"
     y="150.70607" />
  <path
     class="cls-2"
     d="M 131.98,14.84 V 6.0900002 h 3.11 c 2.53,0 3.22,1.77 3.22,4.2299998 0,2.46 -0.66,4.52 -3.22,4.52 z m 3.11,-7.8499998 h -2.14 V 13.99 h 2.14 c 1.81,0 2.22,-1.73 2.22,-3.62 0,-1.8899998 -0.41,-3.4199998 -2.22,-3.4199998 z"
     id="path10" />
  <path
     class="cls-2"
     d="m 140.34,6.0900002 h 1 V 14.84 h -1 z"
     id="path12" />
  <path
     class="cls-2"
     d="m 144.71,11.84 v 3 h -1 V 6.0900002 h 3.18 c 1.9,0 2.78,0.92 2.78,2.81 C 149.67,10.79 148.79,11.9 146.89,11.9 Z m 2.2,-0.86 c 1.27,0 1.79,-0.77 1.79,-2.1099998 0,-1.34 -0.52,-2 -1.79,-2 h -2.2 V 10.93 Z"
     id="path14" />
  <path
     class="cls-2"
     d="m 152.63,6.0900002 h 2.08 L 157.13,14.84 h -1 L 155.5,12.6 h -3.72 l -0.59,2.24 h -0.95 z M 152.03,11.69 h 3.3 l -1.32,-4.7699998 h -0.66 z"
     id="path16" />
  <path
     class="cls-2"
     d="m 159.71,11.46 v 3.38 h -1 V 6.0900002 h 3.22 c 1.82,0 2.77,0.81 2.77,2.65 A 2.35,2.35 0 0 1 163.11,11.26 l 1.71,3.58 h -1.11 l -1.57,-3.34 z m 2.25,-4.5099998 h -2.25 V 10.61 h 2.26 c 1.31,0 1.77,-0.7799998 1.77,-1.8699998 a 1.56,1.56 0 0 0 -1.77,-1.79 z"
     id="path18" />
  <path
     class="cls-2"
     d="M 165.71,6.0900002 H 172 v 0.87 h -2.65 V 14.84 h -1 V 6.9600002 h -2.64 z"
     id="path20" />
  <path
     class="cls-2"
     d="m 173.48,6.0900002 h 1 V 14.84 h -1 z"
     id="path22" />
  <path
     class="cls-2"
     d="m 176.83,6.0900002 h 1.74 L 181.04,13.45 183.5,6.0900002 h 1.75 V 14.84 h -1 V 7.1300002 h -0.18 L 181.55,14.48 h -1.08 l -2.53,-7.3499998 h -0.18 V 14.84 h -1 z"
     id="path24" />
  <path
     class="cls-2"
     d="m 187.64,6.0900002 h 5.29 v 0.86 h -4.33 v 3 h 3.58 V 10.84 h -3.58 v 3.1 h 4.33 v 0.9 h -5.29 z"
     id="path26" />
  <path
     class="cls-2"
     d="m 194.84,6.0900002 h 1.81 L 199.98,13.94 h 0.27 V 6.0900002 h 0.95 V 14.84 h -1.77 l -3.38,-7.8499998 h -0.24 V 14.84 h -1 z"
     id="path28" />
  <path
     class="cls-2"
     d="M 202.71,6.0900002 H 209 v 0.87 h -2.65 V 14.84 h -1 V 6.9600002 h -2.64 z"
     id="path30" />
  <path
     class="cls-2"
     d="m 209.85,10.48 c 0,-2.8599998 0.74,-4.5099998 3.43,-4.5099998 2.69,0 3.43,1.62 3.43,4.5099998 0,2.89 -0.74,4.44 -3.45,4.44 -2.71,0 -3.41,-1.52 -3.41,-4.44 z m 5.87,0 c 0,-2.3499998 -0.45,-3.6599998 -2.44,-3.6599998 -1.99,0 -2.44,1.3 -2.44,3.6599998 0,2.36 0.43,3.59 2.44,3.59 2.01,0 2.43,-1.14 2.43,-3.59 z"
     id="path32" />
  <path
     class="cls-2"
     d="m 131.98,27.97 v -8.71 h 3.11 c 2.53,0 3.22,1.77 3.22,4.23 0,2.46 -0.66,4.48 -3.22,4.48 z m 3.11,-7.85 h -2.14 v 7 h 2.14 c 1.81,0 2.22,-1.73 2.22,-3.62 0,-1.89 -0.41,-3.38 -2.22,-3.38 z"
     id="path34" />
  <path
     class="cls-2"
     d="m 140.34,19.26 h 1 v 8.71 h -1 z"
     id="path36" />
  <path
     class="cls-2"
     d="m 146.57,19.42 h 1.73 v 8.55 h -1.73 z"
     id="path38" />
  <path
     class="cls-2"
     d="m 150.41,19.42 h 2.93 l 2.06,7 h 0.13 v -7 h 1.74 v 8.55 h -2.86 l -2.14,-7 h -0.12 v 7 h -1.74 z"
     id="path40" />
  <path
     class="cls-2"
     d="m 162.93,23.39 h 2.49 v 4.45 a 23.59,23.59 0 0 1 -2.91,0.29 c -2.79,0 -3.5,-1.56 -3.5,-4.43 0,-3.12 0.91,-4.43 3.43,-4.43 a 17,17 0 0 1 3,0.36 v 1.34 c 0,0 -1.58,-0.13 -2.73,-0.13 -1.48,0 -1.92,0.49 -1.92,2.89 0,2.4 0.31,2.92 1.87,2.92 0.52,0 1,0 1,0 V 24.9 h -0.78 z"
     id="path42" />
  <path
     class="cls-2"
     d="m 167.31,19.42 h 5.53 v 1.5 h -3.8 v 2 h 3.05 v 1.49 h -3.05 v 2.05 h 3.8 v 1.51 h -5.53 z"
     id="path44" />
  <path
     class="cls-2"
     d="m 178.01,23.39 h 2.49 v 4.45 a 23.85,23.85 0 0 1 -2.92,0.29 c -2.79,0 -3.5,-1.56 -3.5,-4.43 0,-3.12 0.91,-4.43 3.44,-4.43 a 17,17 0 0 1 3,0.36 l -0.05,1.34 c 0,0 -1.51,-0.16 -2.66,-0.16 -1.48,0 -1.92,0.49 -1.92,2.89 0,2.4 0.31,2.92 1.87,2.92 0.52,0 1.05,0 1.05,0 V 24.9 h -0.78 z"
     id="path46" />
  <path
     class="cls-2"
     d="m 182.38,19.42 h 2.93 l 2.06,7 h 0.13 v -7 h 1.73 v 8.55 h -2.85 l -2.14,-7 h -0.12 v 7 h -1.74 z"
     id="path48" />
  <path
     class="cls-2"
     d="m 191.34,19.42 h 5.54 v 1.5 h -3.8 v 2 h 3 v 1.49 h -3 v 2.05 h 3.8 v 1.51 h -5.54 z"
     id="path50" />
  <path
     class="cls-2"
     d="m 200.3,25.1 v 2.87 h -1.74 v -8.55 h 3.32 c 1.95,0 3,0.86 3,2.81 a 2.72,2.72 0 0 1 -1.26,2.47 l 1.22,3.27 h -1.9 l -1,-2.87 z m 1.58,-4.2 h -1.58 v 2.72 h 1.6 c 0.87,0 1.22,-0.61 1.22,-1.36 0,-0.75 -0.41,-1.36 -1.24,-1.36 z"
     id="path52" />
  <path
     class="cls-2"
     d="m 206.61,19.42 h 1.73 v 8.55 h -1.73 z"
     id="path54" />
  <path
     class="cls-2"
     d="M 211.71,19.42 H 215 l 1.93,8.55 h -1.74 l -0.34,-1.55 h -3 l -0.34,1.55 h -1.8 z m 0.48,5.49 h 2.34 l -0.92,-4.07 h -0.6 z"
     id="path56" />
  <path
     class="cls-2"
     d="m 131.85,41.14 v -8.55 h 2.86 c 3,0 3.63,1.27 3.63,4.11 0,2.84 -0.57,4.44 -3.63,4.44 z m 2.88,-7 h -1.15 v 5.54 h 1.13 c 1.68,0 1.84,-1 1.84,-2.93 0,-1.93 -0.14,-2.66 -1.84,-2.66 z"
     id="path58" />
  <path
     class="cls-2"
     d="m 140.12,32.59 h 5.53 v 1.5 h -3.8 v 2 h 3.05 v 1.49 h -3.05 v 2.05 h 3.8 v 1.51 h -5.53 z"
     id="path60" />
  <path
     class="cls-2"
     d="m 147.33,41.14 v -8.55 h 1.74 v 7 h 3.13 v 1.55 z"
     id="path62" />
  <path
     class="cls-2"
     d="m 153.52,41.14 v -8.55 h 1.73 v 7 h 3.13 v 1.55 z"
     id="path64" />
  <path
     class="cls-2"
     d="m 158.94,32.59 h 1.77 l -1.07,3.1 h -1.29 z"
     id="path66" />
  <path
     class="cls-2"
     d="m 162.95,32.59 h 3.29 l 1.92,8.55 h -1.73 l -0.34,-1.55 h -3 l -0.34,1.55 h -1.74 z m 0.47,5.49 h 2.34 l -0.86,-4.06 h -0.61 z"
     id="path68" />
  <path
     class="cls-2"
     d="m 169.56,32.59 h 2.95 l 1.51,6.25 1.51,-6.23 h 3 v 8.53 h -1.82 v -6.62 h -0.19 l -1.67,6.24 h -1.74 l -1.67,-6.24 h -0.19 v 6.62 h -1.73 z"
     id="path70" />
  <path
     class="cls-2"
     d="m 183.95,32.59 c 1.73,0 2.67,0.62 2.67,2.26 a 1.89,1.89 0 0 1 -0.94,1.88 1.83,1.83 0 0 1 1.1,2 c 0,1.71 -1.07,2.46 -2.78,2.46 h -3.4 v -8.6 z m -1.62,1.48 v 2 h 1.55 c 0.68,0 1,-0.36 1,-1 a 0.88,0.88 0 0 0 -1,-1 z m 0,3.49 v 2.09 h 1.59 c 0.71,0 1.1,-0.21 1.1,-1 0,-0.79 -0.41,-1 -1.1,-1 z"
     id="path72" />
  <path
     class="cls-2"
     d="m 188.5,32.59 h 1.74 v 8.55 h -1.74 z"
     id="path74" />
  <path
     class="cls-2"
     d="m 192.35,32.59 h 5.53 v 1.5 h -3.79 v 2 h 3 v 1.49 h -3 v 2.05 h 3.79 v 1.51 h -5.53 z"
     id="path76" />
  <path
     class="cls-2"
     d="m 199.57,32.59 h 2.93 l 2.06,7 h 0.15 v -7 h 1.74 v 8.55 h -2.86 l -2.13,-7 h -0.13 v 7 h -1.73 z"
     id="path78" />
  <path
     class="cls-2"
     d="m 207.76,32.59 h 6.29 v 1.53 h -2.26 v 7 h -1.74 v -7 h -2.29 z"
     id="path80" />
  <path
     class="cls-2"
     d="m 215.39,32.59 h 5.54 v 1.5 h -3.8 v 2 h 3 v 1.49 h -3 v 2.05 h 3.8 v 1.51 h -5.54 z"
     id="path82" />
  <rect
     class="cls-2"
     x="0"
     y="16.02"
     width="19.23"
     height="3.2"
     id="rect84" />
  <rect
     class="cls-2"
     x="0"
     y="12.02"
     width="19.23"
     height="3.21"
     id="rect86" />
  <rect
     class="cls-2"
     x="0"
     y="8.0200005"
     width="19.23"
     height="3.2"
     id="rect88" />
  <rect
     class="cls-2"
     x="0"
     y="4.0099983"
     width="19.23"
     height="3.2"
     id="rect90" />
  <rect
     class="cls-2"
     x="0"
     y="0.0099983215"
     width="19.23"
     height="3.2"
     id="rect92" />
  <path
     class="cls-2"
     d="m 26.519999,12.32 -6.19,6.19 v -6.19 h 6.19 m 0.72,-0.3 h -7.21 v 7.21 z"
     id="path94" />
  <path
     class="cls-2"
     d="M 29.319999,8.3200002 V 10.92 h -9 V 8.3200002 h 9 m 0.3,-0.3 h -9.59 V 11.22 h 9.59 z"
     id="path96" />
  <path
     class="cls-2"
     d="m 29.319999,4.3100002 v 2.6 h -9 v -2.6 h 9 m 0.3,-0.3 h -9.59 v 3.2 h 9.59 z"
     id="path98" />
  <rect
     class="cls-2"
     x="34.269997"
     y="0"
     width="0.30000001"
     height="41.68"
     id="rect100" />
  <path
     class="cls-2"
     d="m 42.919999,15.18 a 5.29,5.29 0 0 1 -1.94,-0.33 3.43,3.43 0 0 1 -1.38,-1 2.89,2.89 0 0 1 -0.52,-1.12 9.34,9.34 0 0 1 -0.16,-2 V 5.8400002 a 2.09,2.09 0 0 0 -0.14,-0.93 0.43,0.43 0 0 0 -0.39,-0.24 h -0.14 v -0.57 h 3.17 v 0.57 h -0.14 a 0.42,0.42 0 0 0 -0.39,0.23 2.27,2.27 0 0 0 -0.18,0.94 V 11.07 a 4,4 0 0 0 0.59,2.5 2.46,2.46 0 0 0 2,0.7 4.33,4.33 0 0 0 1.16,-0.14 2.39,2.39 0 0 0 0.84,-0.43 2,2 0 0 0 0.65,-1 9.75,9.75 0 0 0 0.2,-2.37 V 6.7800002 a 4.21,4.21 0 0 0 -0.23,-1.58 0.86,0.86 0 0 0 -0.67,-0.55 h -0.12 v -0.55 h 2.77 v 0.54 h -0.1 a 0.94,0.94 0 0 0 -0.63,0.58 4.51,4.51 0 0 0 -0.2,1.62 V 10.28 a 12.56,12.56 0 0 1 -0.16,2.27 2.91,2.91 0 0 1 -1.87,2.29 5.51,5.51 0 0 1 -2.02,0.34 z"
     id="path102" />
  <path
     class="cls-2"
     d="m 57.299999,15.06 h -0.83 V 15 l -6.39,-8.9499998 V 12.52 a 2.93,2.93 0 0 0 0.24,1.32 0.93,0.93 0 0 0 0.67,0.53 h 0.12 v 0.56 h -2.85 v -0.54 h 0.1 a 1.25,1.25 0 0 0 0.69,-0.58 2.57,2.57 0 0 0 0.22,-1.16 V 5.9000002 a 1.91,1.91 0 0 0 -0.19,-1 0.68,0.68 0 0 0 -0.55,-0.3 h -0.14 v -0.56 h 2.45 v 0.06 l 5.64,7.9199998 V 7.3100002 a 6.3,6.3 0 0 0 -0.23,-2 1,1 0 0 0 -0.73,-0.63 h -0.12 v -0.55 h 2.65 v 0.51 h -0.07 a 1.3,1.3 0 0 0 -0.53,0.68 7.56,7.56 0 0 0 -0.16,1.9 z"
     id="path104" />
  <path
     class="cls-2"
     d="m 62.209999,14.95 h -3.18 v -0.57 h 0.14 a 0.44,0.44 0 0 0 0.4,-0.23 2.2,2.2 0 0 0 0.14,-0.91 V 5.8400002 a 2.25,2.25 0 0 0 -0.14,-0.93 0.44,0.44 0 0 0 -0.39,-0.24 h -0.15 v -0.57 h 3.18 v 0.57 h -0.15 a 0.43,0.43 0 0 0 -0.35,0.17 2.27,2.27 0 0 0 -0.14,0.94 V 13.19 a 2.14,2.14 0 0 0 0.14,0.91 0.42,0.42 0 0 0 0.39,0.23 h 0.15 z"
     id="path106" />
  <path
     class="cls-2"
     d="m 67.909999,15.18 h -1.12 l -3.16,-9.2299998 a 3.65,3.65 0 0 0 -0.42,-0.92 0.94,0.94 0 0 0 -0.44,-0.39 h -0.1 v -0.53 h 3.13 v 0.55 h -0.12 a 0.53,0.53 0 0 0 -0.29,0.15 0.36,0.36 0 0 0 -0.09,0.26 0.92,0.92 0 0 0 0,0.18 c 0,0.09 0,0.19 0.08,0.32 l 2.41,7.1899998 2.06,-6.6099998 a 1.36,1.36 0 0 0 0.06,-0.29 1.51,1.51 0 0 0 0,-0.3 1.09,1.09 0 0 0 -0.18,-0.61 0.59,0.59 0 0 0 -0.39,-0.29 h -0.13 v -0.55 h 2.78 v 0.52 h -0.09 a 1.85,1.85 0 0 0 -0.78,0.64 4.93,4.93 0 0 0 -0.59,1.31 z"
     id="path108" />
  <path
     class="cls-2"
     d="m 80.339999,14.95 h -7.91 v -0.58 h 0.15 a 0.43,0.43 0 0 0 0.39,-0.23 2.2,2.2 0 0 0 0.14,-0.91 V 5.8400002 a 2.27,2.27 0 0 0 -0.14,-0.94 0.43,0.43 0 0 0 -0.39,-0.23 h -0.15 v -0.57 h 7.67 l 0.2,2.33 -0.57,0.08 v -0.11 a 2,2 0 0 0 -0.91,-1.16 6,6 0 0 0 -2.46,-0.33 h -0.45 c -0.68,0 -0.83,0.08 -0.86,0.1 -0.03,0.02 -0.11,0.12 -0.11,0.58 v 2.86 h 1.38 a 4.29,4.29 0 0 0 1.63,-0.22 1.1,1.1 0 0 0 0.61,-0.7 v -0.1 h 0.5 V 10.24 h -0.51 v -0.1 a 1.19,1.19 0 0 0 -0.52,-0.6899998 3.42,3.42 0 0 0 -1.5,-0.2 h -1.59 V 13.25 c 0,0.56 0.12,0.71 0.17,0.74 a 2.42,2.42 0 0 0 1.11,0.13 c 0.76,0 1.32,0 1.64,0 a 5.47,5.47 0 0 0 0.84,-0.16 2.67,2.67 0 0 0 0.86,-0.51 6.11,6.11 0 0 0 0.9,-1 l 0.07,-0.11 0.53,0.29 z"
     id="path110" />
  <path
     class="cls-2"
     d="m 90.709999,16.23 -0.21,-0.09 a 7.36,7.36 0 0 1 -2.84,-2.25 13.38,13.38 0 0 1 -2,-3.8 h -0.57 -0.83 v 3.15 a 2.14,2.14 0 0 0 0.14,0.91 0.42,0.42 0 0 0 0.38,0.23 h 0.15 v 0.58 h -3.22 v -0.58 h 0.14 a 0.42,0.42 0 0 0 0.39,-0.23 2.2,2.2 0 0 0 0.14,-0.91 V 5.8400002 a 2.27,2.27 0 0 0 -0.14,-0.94 0.42,0.42 0 0 0 -0.39,-0.23 h -0.14 v -0.57 l 2.53,-0.12 h 0.88 0.51 a 6.32,6.32 0 0 1 3.47,0.85 2.71,2.71 0 0 1 1.33,2.34 2.44,2.44 0 0 1 -0.83,1.84 4.38,4.38 0 0 1 -2,0.9999998 24.86,24.86 0 0 0 1.51,3.52 7.6,7.6 0 0 0 1.57,2.12 h 0.05 z m -6.5,-6.8899998 h 0.32 0.63 a 4.5,4.5 0 0 0 2.55,-0.5 2,2 0 0 0 0.8,-1.75 2.31,2.31 0 0 0 -0.72,-1.81 3.05,3.05 0 0 0 -2.07,-0.64 2.34,2.34 0 0 0 -1.23,0.23 1,1 0 0 0 -0.3,0.84 z"
     id="path112" />
  <path
     class="cls-2"
     d="m 95.219999,15.18 a 5.92,5.92 0 0 1 -3.86,-1.4 l -0.07,-0.06 0.64,-2.26 0.55,0.1 v 0.09 a 4,4 0 0 0 1.06,2.08 2.47,2.47 0 0 0 1.81,0.72 2.22,2.22 0 0 0 1.54,-0.53 1.74,1.74 0 0 0 0.58,-1.37 1.85,1.85 0 0 0 -0.46,-1.29 6,6 0 0 0 -2,-1.13 l -0.41,-0.1499998 a 6,6 0 0 1 -2,-1.16 3,3 0 0 1 -0.6,-0.92 2.63,2.63 0 0 1 -0.29,-1.06 2.78,2.78 0 0 1 1,-2.15 3.41,3.41 0 0 1 2.37,-0.85 5.35,5.35 0 0 1 1.6,0.26 7.63,7.63 0 0 1 1.66,0.8 l 0.09,0.06 -0.53,2.06 -0.53,-0.1 v -0.09 a 3.42,3.42 0 0 0 -0.92,-1.66 2.13,2.13 0 0 0 -1.49,-0.58 2,2 0 0 0 -1.36,0.44 1.43,1.43 0 0 0 -0.49,1.14 1.47,1.47 0 0 0 0.42,1.07 5.59,5.59 0 0 0 1.75,1 l 0.42,0.18 a 7.79,7.79 0 0 1 2.43,1.3 2.5,2.5 0 0 1 0.64,0.9399998 3.4,3.4 0 0 1 0.2,1.18 3.09,3.09 0 0 1 -1.05,2.4 3.81,3.81 0 0 1 -2.7,0.94 z"
     id="path114" />
  <path
     class="cls-2"
     d="m 103.18,14.95 h -3.17 v -0.57 h 0.14 a 0.44,0.44 0 0 0 0.4,-0.23 2.24,2.24 0 0 0 0.13,-0.91 V 5.8400002 a 2.09,2.09 0 0 0 -0.14,-0.93 0.43,0.43 0 0 0 -0.39,-0.24 h -0.14 v -0.57 h 3.17 v 0.57 h -0.14 a 0.42,0.42 0 0 0 -0.39,0.23 2.27,2.27 0 0 0 -0.14,0.94 V 13.25 a 2.14,2.14 0 0 0 0.14,0.91 0.41,0.41 0 0 0 0.39,0.23 h 0.14 z"
     id="path116" />
  <path
     class="cls-2"
     d="m 110.09,14.95 h -3.2 v -0.58 h 0.14 a 0.42,0.42 0 0 0 0.39,-0.23 2.24,2.24 0 0 0 0.13,-0.91 V 5.1700002 a 0.59,0.59 0 0 0 0,-0.25 v 0 a 0.41,0.41 0 0 0 -0.21,0 3.5,3.5 0 0 0 -1.8,0.37 3.39,3.39 0 0 0 -1.14,1.3 l -0.06,0.12 -0.63,-0.27 0.62,-2.36 h 8.22 l 0.62,2.36 -0.57,0.24 -0.06,-0.12 a 3.35,3.35 0 0 0 -1.14,-1.31 3.55,3.55 0 0 0 -1.79,-0.36 c -0.18,0 -0.22,0 -0.22,0 0,0 0,0 0,0.24 V 13.19 a 2,2 0 0 0 0.15,0.91 0.43,0.43 0 0 0 0.39,0.23 h 0.14 z"
     id="path118" />
  <path
     class="cls-2"
     d="m 122.3,14.95 h -3.16 V 14.4 h 0.12 a 0.67,0.67 0 0 0 0.29,-0.15 0.37,0.37 0 0 0 0.1,-0.25 1.93,1.93 0 0 0 -0.12,-0.5 v -0.17 l -0.55,-1.79 h -3.4 l -0.47,1.3 a 2.74,2.74 0 0 0 -0.09,0.39 2,2 0 0 0 0,0.32 1,1 0 0 0 0.15,0.58 0.73,0.73 0 0 0 0.44,0.26 h 0.12 v 0.56 h -2.88 v -0.54 h 0.1 a 1.73,1.73 0 0 0 0.85,-0.65 6.6,6.6 0 0 0 0.73,-1.68 l 2.68,-8.1999998 h 1.14 v 0.1 L 121.28,12.98 a 4.82,4.82 0 0 0 0.47,1.1 0.58,0.58 0 0 0 0.4,0.31 h 0.14 z m -6.5,-4.25 h 2.91 l -1.38,-4.5799998 z"
     id="path120" />
  <path
     class="cls-2"
     d="m 119.38,3.3500002 h -0.88 l -2.4,-1.51 a 1.61,1.61 0 0 1 -0.38,-0.33 0.72,0.72 0 0 1 -0.14,-0.4 0.63,0.63 0 0 1 0.2,-0.47000005 0.7,0.7 0 0 1 0.84,-0.08 2.37,2.37 0 0 1 0.44,0.37 z"
     id="path122" />
  <path
     class="cls-2"
     d="m 42.229999,27.78 h -4.05 V 27.2 h 0.14 a 0.39,0.39 0 0 0 0.39,-0.23 2.14,2.14 0 0 0 0.14,-0.91 v -7.41 a 2.18,2.18 0 0 0 -0.14,-0.93 0.42,0.42 0 0 0 -0.39,-0.23 h -0.14 v -0.57 l 2.53,-0.08 h 1.19 a 10.23,10.23 0 0 1 1.92,0.15 5,5 0 0 1 1.38,0.46 4.85,4.85 0 0 1 2.07,2 6.2,6.2 0 0 1 0.76,3 5.05,5.05 0 0 1 -1.53,3.89 6.06,6.06 0 0 1 -4.27,1.44 z m 0.23,-10.2 a 3.06,3.06 0 0 0 -1.5,0.22 c -0.21,0.13 -0.31,0.42 -0.31,0.85 v 7.58 a 0.83,0.83 0 0 0 0.19,0.65 1.89,1.89 0 0 0 1,0.16 4.3,4.3 0 0 0 3.26,-1 5.33,5.33 0 0 0 0.94,-3.59 6.12,6.12 0 0 0 -0.9,-3.67 3.16,3.16 0 0 0 -2.68,-1.2 z"
     id="path124" />
  <path
     class="cls-2"
     d="m 57.009999,27.78 h -7.91 V 27.2 h 0.15 a 0.38,0.38 0 0 0 0.38,-0.23 2,2 0 0 0 0.14,-0.91 v -7.41 a 2,2 0 0 0 -0.14,-0.93 0.42,0.42 0 0 0 -0.39,-0.23 h -0.14 v -0.57 h 7.67 l 0.19,2.33 -0.56,0.08 -0.05,-0.11 a 2,2 0 0 0 -0.9,-1.16 6,6 0 0 0 -2.46,-0.32 h -0.45 a 2,2 0 0 0 -0.83,0.1 c 0,0 -0.11,0.13 -0.11,0.58 v 2.86 h 1.38 a 4.41,4.41 0 0 0 1.63,-0.21 1.17,1.17 0 0 0 0.61,-0.71 v -0.1 h 0.5 v 2.82 h -0.51 v -0.1 a 1.21,1.21 0 0 0 -0.51,-0.7 3.5,3.5 0 0 0 -1.5,-0.19 h -1.59 v 4 c 0,0.57 0.12,0.71 0.17,0.75 0.05,0.04 0.28,0.13 1.11,0.13 0.83,0 1.31,0 1.64,0 a 4.48,4.48 0 0 0 0.84,-0.16 2.67,2.67 0 0 0 0.85,-0.5 5.69,5.69 0 0 0 0.9,-1 l 0.08,-0.11 0.53,0.28 z"
     id="path126" />
  <path
     class="cls-2"
     d="m 65.839999,27.78 h -7.4 v -0.56 h 0.15 a 0.43,0.43 0 0 0 0.39,-0.24 2.17,2.17 0 0 0 0.14,-0.91 v -7.42 a 2.25,2.25 0 0 0 -0.14,-0.93 0.43,0.43 0 0 0 -0.39,-0.23 h -0.15 v -0.57 h 3.18 v 0.57 h -0.15 a 0.4,0.4 0 0 0 -0.38,0.23 2,2 0 0 0 -0.15,0.93 v 7.45 c 0,0.56 0.11,0.7 0.16,0.73 a 1.73,1.73 0 0 0 0.9,0.13 9.52,9.52 0 0 0 1.71,-0.12 2.72,2.72 0 0 0 0.92,-0.33 2.21,2.21 0 0 0 0.57,-0.46 c 0.2,-0.22 0.43,-0.51 0.68,-0.85 l 0.06,-0.09 0.56,0.19 z"
     id="path128" />
  <path
     class="cls-2"
     d="m 74.549999,27.78 h -7.4 v -0.56 h 0.14 a 0.44,0.44 0 0 0 0.4,-0.24 2.17,2.17 0 0 0 0.14,-0.91 v -7.42 a 2.06,2.06 0 0 0 -0.15,-0.93 0.42,0.42 0 0 0 -0.38,-0.23 h -0.15 v -0.57 h 3.18 v 0.57 h -0.15 a 0.42,0.42 0 0 0 -0.39,0.23 2.18,2.18 0 0 0 -0.14,0.93 v 7.45 c 0,0.56 0.11,0.7 0.16,0.73 0.05,0.03 0.27,0.13 0.9,0.13 a 9.52,9.52 0 0 0 1.66,-0.1 2.72,2.72 0 0 0 0.92,-0.33 2.6,2.6 0 0 0 0.57,-0.46 9.05,9.05 0 0 0 0.67,-0.85 l 0.07,-0.09 0.56,0.19 z"
     id="path130" />
  <path
     class="cls-2"
     d="m 84.789999,27.78 h -3.16 v -0.55 h 0.12 a 0.48,0.48 0 0 0 0.29,-0.15 0.33,0.33 0 0 0 0.1,-0.24 1.85,1.85 0 0 0 -0.12,-0.5 l -0.05,-0.18 -0.55,-1.78 h -3.4 l -0.42,1.31 a 2.34,2.34 0 0 0 -0.09,0.38 2,2 0 0 0 0,0.33 1,1 0 0 0 0.15,0.57 0.68,0.68 0 0 0 0.44,0.26 h 0.12 v 0.55 h -2.91 v -0.54 h 0.11 a 1.75,1.75 0 0 0 0.84,-0.65 6.44,6.44 0 0 0 0.73,-1.68 l 2.68,-8.2 h 1.14 v 0.1 l 2.92,9 a 4.44,4.44 0 0 0 0.47,1.1 0.58,0.58 0 0 0 0.4,0.31 h 0.14 z m -6.5,-4.25 h 2.88 l -1.38,-4.57 z"
     id="path132" />
  <path
     class="cls-2"
     d="m 43.009999,40.84 a 4.57,4.57 0 0 1 -3.54,-1.47 5.64,5.64 0 0 1 -1.32,-3.89 7.37,7.37 0 0 1 0.5,-2.76 5.72,5.72 0 0 1 1.48,-2.14 3.85,3.85 0 0 1 1.37,-0.79 5.29,5.29 0 0 1 3.49,0 8.37,8.37 0 0 1 1.88,1 l 0.1,0.06 -0.63,2 -0.55,-0.09 v -0.09 a 4,4 0 0 0 -1.16,-1.83 2.66,2.66 0 0 0 -1.75,-0.61 2.49,2.49 0 0 0 -2.17,1.19 5.56,5.56 0 0 0 -0.83,3.2 6,6 0 0 0 1.07,3.69 3.21,3.21 0 0 0 2.68,1.4 3.35,3.35 0 0 0 1.74,-0.46 5.17,5.17 0 0 0 1.51,-1.41 l 0.08,-0.12 0.51,0.35 -0.08,0.12 a 6,6 0 0 1 -1.9,2 4.62,4.62 0 0 1 -2.48,0.65 z"
     id="path134" />
  <path
     class="cls-2"
     d="m 56.299999,40.61 h -3.16 v -0.54 h 0.11 a 0.58,0.58 0 0 0 0.3,-0.16 0.32,0.32 0 0 0 0.09,-0.24 2.18,2.18 0 0 0 -0.11,-0.5 l -0.61,-2 h -3.39 l -0.42,1.31 a 3.75,3.75 0 0 0 -0.1,0.39 2,2 0 0 0 0,0.32 1,1 0 0 0 0.16,0.57 0.67,0.67 0 0 0 0.44,0.27 h 0.12 v 0.55 h -2.88 v -0.53 h 0.1 a 1.65,1.65 0 0 0 0.84,-0.64 6.22,6.22 0 0 0 0.74,-1.68 l 2.68,-8.21 h 1.14 v 0.11 l 2.93,9 a 4.82,4.82 0 0 0 0.47,1.1 c 0.13,0.2 0.26,0.3 0.4,0.31 h 0.13 z m -6.5,-4.24 h 2.91 l -1.42,-4.53 z"
     id="path136" />
  <path
     class="cls-2"
     d="m 64.069999,40.61 h -7.36 v -0.56 h 0.14 a 0.43,0.43 0 0 0 0.4,-0.24 2.15,2.15 0 0 0 0.13,-0.9 v -7.43 a 2.07,2.07 0 0 0 -0.14,-0.92 0.43,0.43 0 0 0 -0.39,-0.24 h -0.14 v -0.58 h 3.17 v 0.58 h -0.17 a 0.42,0.42 0 0 0 -0.39,0.23 2.25,2.25 0 0 0 -0.14,0.93 v 7.46 c 0,0.55 0.11,0.69 0.15,0.73 a 1.73,1.73 0 0 0 0.9,0.13 9.52,9.52 0 0 0 1.66,-0.1 3.3,3.3 0 0 0 0.93,-0.33 2.73,2.73 0 0 0 0.56,-0.47 8.72,8.72 0 0 0 0.68,-0.84 l 0.06,-0.09 0.56,0.18 z"
     id="path138" />
  <path
     class="cls-2"
     d="m 74.029999,40.61 h -3.16 v -0.54 h 0.11 a 0.58,0.58 0 0 0 0.3,-0.16 0.33,0.33 0 0 0 0.1,-0.24 1.93,1.93 0 0 0 -0.12,-0.5 l -0.61,-2 h -3.39 l -0.42,1.31 a 3.56,3.56 0 0 0 -0.13,0.36 1.33,1.33 0 0 0 0,0.32 1,1 0 0 0 0.16,0.57 0.67,0.67 0 0 0 0.44,0.27 h 0.12 v 0.55 h -2.88 v -0.53 h 0.1 a 1.65,1.65 0 0 0 0.84,-0.64 6.22,6.22 0 0 0 0.74,-1.68 l 2.68,-8.21 h 1.14 v 0.11 l 2.93,9 a 4.82,4.82 0 0 0 0.47,1.1 0.58,0.58 0 0 0 0.4,0.31 h 0.14 z m -6.5,-4.24 h 2.88 l -1.38,-4.53 z"
     id="path140" />
  <path
     class="cls-2"
     d="m 78.379999,40.61 h -4 v -0.57 h 0.15 a 0.42,0.42 0 0 0 0.38,-0.23 2.2,2.2 0 0 0 0.14,-0.91 v -7.42 a 2.25,2.25 0 0 0 -0.14,-0.93 0.42,0.42 0 0 0 -0.39,-0.23 h -0.14 v -0.57 l 2.45,-0.06 h 0.83 0.49 a 6,6 0 0 1 3.19,0.77 2.32,2.32 0 0 1 1.26,2 2,2 0 0 1 -0.73,1.56 4.12,4.12 0 0 1 -1.48,0.78 4.16,4.16 0 0 1 1.74,0.94 2.62,2.62 0 0 1 0.87,2 2.46,2.46 0 0 1 -1.29,2.1 6.39,6.39 0 0 1 -3.33,0.77 z m -1.58,-5.43 v 3.73 c 0,0.58 0.12,0.76 0.19,0.81 a 2.42,2.42 0 0 0 1.19,0.16 3.61,3.61 0 0 0 2.25,-0.57 2.16,2.16 0 0 0 0.69,-1.77 2.2,2.2 0 0 0 -0.67,-1.77 3.24,3.24 0 0 0 -2.13,-0.59 z m 0,-0.73 h 0.79 a 4.81,4.81 0 0 0 2.5,-0.48 1.63,1.63 0 0 0 0.7,-1.5 1.85,1.85 0 0 0 -0.65,-1.53 2.92,2.92 0 0 0 -1.89,-0.54 2.44,2.44 0 0 0 -1.21,0.19 c -0.16,0.12 -0.24,0.42 -0.24,0.88 z"
     id="path142" />
  <path
     class="cls-2"
     d="m 92.709999,41.89 -0.21,-0.08 a 7.46,7.46 0 0 1 -2.84,-2.25 13.66,13.66 0 0 1 -2,-3.8 h -0.57 -0.83 v 3.15 a 2.14,2.14 0 0 0 0.14,0.91 0.42,0.42 0 0 0 0.39,0.23 h 0.14 v 0.57 h -3.22 v -0.58 h 0.15 a 0.42,0.42 0 0 0 0.38,-0.23 2,2 0 0 0 0.14,-0.91 v -7.42 a 2.09,2.09 0 0 0 -0.14,-0.93 0.42,0.42 0 0 0 -0.39,-0.23 h -0.14 v -0.57 l 2.54,-0.12 h 0.87 0.51 a 6.23,6.23 0 0 1 3.47,0.85 2.7,2.7 0 0 1 1.33,2.33 2.44,2.44 0 0 1 -0.83,1.85 4.28,4.28 0 0 1 -2,1 24.53,24.53 0 0 0 1.51,3.53 7.6,7.6 0 0 0 1.57,2.12 h 0.05 z m -6.5,-6.88 a 3.16,3.16 0 0 0 0.32,0 5.83,5.83 0 0 0 0.63,0 4.48,4.48 0 0 0 2.57,-0.58 2,2 0 0 0 0.8,-1.75 2.33,2.33 0 0 0 -0.71,-1.81 3.08,3.08 0 0 0 -2.08,-0.64 2.34,2.34 0 0 0 -1.23,0.23 1,1 0 0 0 -0.3,0.84 z"
     id="path144" />
  <path
     class="cls-2"
     d="m 96.309999,40.61 h -3.18 v -0.56 h 0.14 a 0.42,0.42 0 0 0 0.44,-0.21 2.12,2.12 0 0 0 0.14,-0.9 v -7.46 a 2.23,2.23 0 0 0 -0.14,-0.92 0.44,0.44 0 0 0 -0.39,-0.24 h -0.15 v -0.58 h 3.18 v 0.58 h -0.15 a 0.43,0.43 0 0 0 -0.39,0.23 2.25,2.25 0 0 0 -0.14,0.93 v 7.42 a 2.14,2.14 0 0 0 0.14,0.91 0.42,0.42 0 0 0 0.39,0.23 h 0.15 z"
     id="path146" />
  <path
     class="cls-2"
     d="m 106.36,40.61 h -3.16 v -0.54 h 0.12 a 0.55,0.55 0 0 0 0.29,-0.16 0.3,0.3 0 0 0 0.1,-0.24 1.93,1.93 0 0 0 -0.12,-0.5 l -0.6,-2 h -3.390001 l -0.43,1.31 a 3.56,3.56 0 0 0 -0.09,0.39 2,2 0 0 0 0,0.32 1,1 0 0 0 0.15,0.57 0.69,0.69 0 0 0 0.45,0.27 h 0.12 v 0.55 h -2.88 v -0.53 h 0.1 a 1.73,1.73 0 0 0 0.84,-0.64 6.6,6.6 0 0 0 0.73,-1.68 L 101.27,29.52 h 1.14 v 0.11 l 2.92,9 a 4.82,4.82 0 0 0 0.47,1.1 c 0.14,0.2 0.27,0.3 0.4,0.31 h 0.14 z M 99.869999,36.37 H 102.71 l -1.35,-4.53 z"
     id="path148" />
  <path
     class="cls-2"
     d="m 239.07,3.8400002 h 5.8 q 3.29,0 4.53,1.52 a 7,7 0 0 1 1.23,4.48 V 34.91 a 7,7 0 0 1 -1.23,4.5 q -1.24,1.52 -4.53,1.52 h -5.8 z M 244.26,38.07 a 3.35,3.35 0 0 0 2.33,-0.62 3.08,3.08 0 0 0 0.65,-2.26 V 9.5800002 a 3.08,3.08 0 0 0 -0.65,-2.26 3.3,3.3 0 0 0 -2.33,-0.62 h -1.8 V 38.05 Z"
     id="path150" />
  <rect
     class="cls-2"
     x="252.70999"
     y="3.9000015"
     width="3.1900001"
     height="37.029999"
     id="rect152" />
  <path
     class="cls-2"
     d="m 267.63,30.72 h -6 L 260.24,41 h -3.39 L 262.3,3.9000002 h 4.62 L 272.37,41 h -3.39 z M 264.71,6.4700002 h -0.1 L 262.03,27.84 h 5.24 z"
     id="path154" />
  <path
     class="cls-2"
     d="m 272.51,4.0500002 3,1.9 h 0.11 a 5.76,5.76 0 0 1 1.62,-1.67 3.76,3.76 0 0 1 2.08,-0.54 3.29,3.29 0 0 1 3,1.75 4.21,4.21 0 0 1 3.29,-1.75 3.43,3.43 0 0 1 2.82,1.21 4.65,4.65 0 0 1 1,3 V 40.95 h -3.19 V 8.9500002 c 0,-1.61 -0.53,-2.42 -1.59,-2.42 a 1.78,1.78 0 0 0 -1.49,0.75 2.89,2.89 0 0 0 -0.57,1.82 V 41 h -3.18 V 9.0000002 c 0,-1.61 -0.53,-2.42 -1.59,-2.42 a 1.76,1.76 0 0 0 -1.49,0.75 2.89,2.89 0 0 0 -0.57,1.82 V 41 h -3.25 z"
     id="path156" />
  <metadata
     id="metadata177">
    <rdf:RDF>
      <cc:Work
         rdf:about="">
        <dc:title>testate dipartimenti</dc:title>
      </cc:Work>
    </rdf:RDF>
  </metadata>
</svg>
