<?xml version="1.0" encoding="UTF-8" standalone="no"?>
<svg
   version="1.1"
   width="728.81702"
   height="134.903"
   viewBox="0 0 728.81699 134.903"
   id="svg79"
   xmlns="http://www.w3.org/2000/svg"
   xmlns:svg="http://www.w3.org/2000/svg">
  <defs
     id="defs79" />
  <path
     stroke-width="0.25"
     stroke-linecap="butt"
     stroke-miterlimit="10"
     stroke-linejoin="miter"
     fill="none"
     stroke="#ffffff"
     d="m 120.99,34.029 c 0,2.751 0.154,4.767 0.465,6.046 0.31,1.28 0.821,2.371 1.531,3.273 1.022,1.259 2.379,2.225 4.072,2.897 1.695,0.673 3.643,1.01 5.848,1.01 2.382,0 4.405,-0.33 6.07,-0.987 1.664,-0.659 3.023,-1.661 4.073,-3.009 0.725,-0.959 1.246,-2.214 1.564,-3.761 0.317,-1.544 0.477,-3.857 0.477,-6.934 V 21.932 c 0,-2.411 0.218,-4.144 0.655,-5.203 0.435,-1.058 1.186,-1.75 2.252,-2.075 v -0.865 h -7.678 v 0.865 c 1.094,0.178 1.898,0.837 2.407,1.975 0.511,1.139 0.766,2.834 0.766,5.082 v 10.807 c 0,3.523 -0.211,6.011 -0.632,7.468 -0.423,1.459 -1.15,2.609 -2.186,3.452 -0.798,0.637 -1.716,1.107 -2.752,1.408 -1.037,0.304 -2.271,0.456 -3.705,0.456 -3.093,0 -5.284,-0.777 -6.571,-2.331 -1.286,-1.553 -1.929,-4.23 -1.929,-8.033 V 18.716 c 0,-1.466 0.162,-2.5 0.487,-3.107 0.325,-0.607 0.857,-0.925 1.597,-0.955 v -0.865 h -8.898 v 0.865 c 0.739,0.03 1.273,0.355 1.598,0.976 0.325,0.622 0.489,1.65 0.489,3.086 z"
     id="path43"
     style="fill:#ffffff" />
  <path
     stroke-width="0.25"
     stroke-linecap="butt"
     stroke-miterlimit="10"
     stroke-linejoin="miter"
     fill="none"
     stroke="#ffffff"
     d="m 154.475,43.671 c -0.496,0.925 -1.284,1.587 -2.363,1.986 v 0.866 h 7.878 v -0.866 c -1.051,-0.207 -1.846,-0.832 -2.386,-1.876 -0.54,-1.043 -0.81,-2.473 -0.81,-4.294 V 17.983 l 20.639,28.895 h 1.864 V 23.021 c 0,-2.974 0.174,-4.979 0.522,-6.015 0.347,-1.035 0.958,-1.819 1.831,-2.352 v -0.866 h -7.302 v 0.866 c 1.229,0.237 2.094,0.984 2.597,2.242 0.503,1.257 0.755,3.41 0.755,6.458 V 39.487 L 159.391,13.788 h -6.902 v 0.866 c 0.931,0.075 1.62,0.455 2.063,1.143 0.444,0.687 0.666,1.75 0.666,3.185 v 20.861 c 0,1.627 -0.248,2.903 -0.743,3.828 z"
     id="path44"
     style="fill:#ffffff" />
  <path
     stroke-width="0.25"
     stroke-linecap="butt"
     stroke-miterlimit="10"
     stroke-linejoin="miter"
     fill="none"
     stroke="#ffffff"
     d="m 196.792,46.523 v -0.865 c -0.754,-0.03 -1.291,-0.345 -1.608,-0.944 -0.319,-0.599 -0.478,-1.616 -0.478,-3.051 V 18.715 c 0,-1.464 0.163,-2.5 0.488,-3.106 0.326,-0.607 0.858,-0.925 1.598,-0.954 v -0.866 h -8.899 v 0.866 c 0.74,0.029 1.272,0.354 1.598,0.975 0.325,0.622 0.489,1.651 0.489,3.085 v 22.948 c 0,1.406 -0.16,2.416 -0.478,3.029 -0.318,0.614 -0.855,0.943 -1.609,0.987 v 0.844 z"
     id="path45"
     style="fill:#ffffff" />
  <path
     stroke-width="0.25"
     stroke-linecap="butt"
     stroke-miterlimit="10"
     stroke-linejoin="miter"
     fill="none"
     stroke="#ffffff"
     d="m 216.885,47.255 8.167,-26.276 c 0.577,-1.82 1.213,-3.218 1.909,-4.195 0.695,-0.976 1.561,-1.686 2.596,-2.13 v -0.866 h -7.679 v 0.866 c 0.592,0.088 1.103,0.455 1.531,1.098 0.43,0.644 0.645,1.358 0.645,2.142 0,0.326 -0.023,0.655 -0.067,0.988 -0.044,0.333 -0.111,0.654 -0.2,0.965 l -6.813,21.86 -7.923,-23.657 c -0.118,-0.4 -0.207,-0.732 -0.266,-0.999 -0.059,-0.267 -0.088,-0.488 -0.088,-0.666 0,-0.474 0.132,-0.855 0.399,-1.143 0.266,-0.289 0.65,-0.484 1.153,-0.588 v -0.866 h -8.765 v 0.866 c 0.591,0.222 1.121,0.673 1.587,1.354 0.465,0.681 0.92,1.672 1.364,2.974 l 9.677,28.273 z"
     id="path46"
     style="fill:#ffffff" />
  <path
     stroke-width="0.25"
     stroke-linecap="butt"
     stroke-miterlimit="10"
     stroke-linejoin="miter"
     fill="none"
     stroke="#ffffff"
     d="m 257.705,46.523 1.908,-6.636 -0.954,-0.51 c -1.006,1.406 -1.96,2.497 -2.862,3.273 -0.904,0.777 -1.843,1.328 -2.82,1.653 -0.768,0.238 -1.664,0.408 -2.684,0.511 -1.022,0.104 -2.73,0.155 -5.127,0.155 -1.997,0 -3.232,-0.166 -3.706,-0.499 -0.474,-0.333 -0.71,-1.224 -0.71,-2.674 v -12.96 h 4.726 0.644 c 2.456,0 4.084,0.221 4.883,0.666 0.799,0.443 1.398,1.242 1.798,2.396 h 0.799 v -7.789 h -0.755 c -0.4,1.168 -1.107,1.985 -2.119,2.452 -1.014,0.466 -2.763,0.698 -5.25,0.698 h -4.726 v -9.32 c 0,-1.154 0.17,-1.868 0.511,-2.143 0.34,-0.272 1.323,-0.41 2.951,-0.41 h 1.398 c 3.891,0 6.502,0.356 7.834,1.066 1.331,0.711 2.337,1.99 3.018,3.84 l 0.955,-0.134 -0.533,-6.369 h -22.859 v 0.866 c 0.741,0.029 1.273,0.347 1.598,0.954 0.325,0.606 0.488,1.642 0.488,3.106 v 22.948 c 0,1.406 -0.163,2.419 -0.488,3.041 -0.325,0.621 -0.857,0.939 -1.598,0.954 v 0.865 z"
     id="path47"
     style="fill:#ffffff" />
  <path
     stroke-width="0.25"
     stroke-linecap="butt"
     stroke-miterlimit="10"
     stroke-linejoin="miter"
     fill="none"
     stroke="#ffffff"
     d="m 271.783,18.293 c 0,-1.449 0.377,-2.44 1.132,-2.974 0.755,-0.532 2.116,-0.798 4.084,-0.798 2.898,0 5.141,0.703 6.723,2.108 1.584,1.406 2.375,3.389 2.375,5.947 0,2.605 -0.891,4.535 -2.673,5.793 -1.784,1.258 -4.532,1.886 -8.245,1.886 -0.769,0 -1.423,-0.018 -1.964,-0.055 -0.541,-0.037 -1.018,-0.1 -1.432,-0.189 z m 2.086,28.229 v -0.865 c -0.74,-0.014 -1.273,-0.325 -1.598,-0.932 -0.326,-0.607 -0.488,-1.627 -0.488,-3.063 v -10.23 h 0.134 c 1.302,0.059 2.27,0.089 2.907,0.089 0.221,0 0.568,-0.008 1.043,-0.023 0.473,-0.015 0.82,-0.022 1.043,-0.022 1.7,4.779 3.832,8.766 6.391,11.962 2.559,3.196 5.43,5.466 8.611,6.813 v -0.954 c -1.656,-1.421 -3.311,-3.654 -4.959,-6.702 -1.65,-3.048 -3.282,-6.872 -4.895,-11.474 2.827,-0.517 5.045,-1.527 6.659,-3.029 1.611,-1.502 2.418,-3.296 2.418,-5.382 0,-2.841 -1.302,-5.119 -3.906,-6.836 -2.603,-1.716 -6.103,-2.574 -10.496,-2.574 -0.341,0 -0.863,0.012 -1.566,0.033 -0.702,0.023 -1.602,0.056 -2.697,0.101 l -7.412,0.354 v 0.866 c 0.741,0.03 1.273,0.348 1.598,0.954 0.325,0.607 0.488,1.642 0.488,3.107 v 22.947 c 0,1.406 -0.163,2.419 -0.488,3.041 -0.325,0.621 -0.857,0.94 -1.598,0.954 v 0.865 z"
     id="path48"
     style="fill:#ffffff" />
  <path
     stroke-width="0.25"
     stroke-linecap="butt"
     stroke-miterlimit="10"
     stroke-linejoin="miter"
     fill="none"
     stroke="#ffffff"
     d="m 302.517,46.167 c 1.989,0.726 4.064,1.088 6.225,1.088 3.225,0 5.874,-0.933 7.945,-2.796 2.071,-1.864 3.106,-4.225 3.106,-7.08 0,-1.302 -0.203,-2.471 -0.61,-3.506 -0.406,-1.036 -1.024,-1.953 -1.853,-2.752 -1.094,-1.08 -3.558,-2.39 -7.39,-3.929 -0.563,-0.236 -0.991,-0.414 -1.287,-0.532 -2.782,-1.139 -4.646,-2.197 -5.592,-3.174 -0.947,-0.976 -1.421,-2.189 -1.421,-3.639 0,-1.613 0.563,-2.91 1.687,-3.895 1.124,-0.983 2.626,-1.475 4.505,-1.475 1.878,0 3.517,0.639 4.915,1.919 1.399,1.28 2.394,3.066 2.986,5.36 l 0.909,0.177 1.465,-5.637 c -1.701,-1.066 -3.377,-1.867 -5.027,-2.407 -1.649,-0.54 -3.251,-0.811 -4.804,-0.811 -2.826,0 -5.175,0.844 -7.046,2.53 -1.872,1.687 -2.808,3.795 -2.808,6.325 0,1.081 0.2,2.105 0.6,3.074 0.399,0.969 0.99,1.868 1.775,2.696 1.065,1.125 3.129,2.278 6.192,3.462 0.562,0.222 0.976,0.385 1.243,0.488 3.284,1.302 5.44,2.504 6.469,3.607 1.028,1.102 1.542,2.541 1.542,4.316 0,1.879 -0.648,3.406 -1.942,4.583 -1.295,1.176 -2.985,1.764 -5.071,1.764 -2.322,0 -4.302,-0.783 -5.937,-2.352 -1.634,-1.568 -2.77,-3.795 -3.406,-6.68 l -0.999,-0.178 -1.775,6.303 c 1.612,1.376 3.414,2.426 5.404,3.151 z"
     id="path49"
     style="fill:#ffffff" />
  <path
     stroke-width="0.25"
     stroke-linecap="butt"
     stroke-miterlimit="10"
     stroke-linejoin="miter"
     fill="none"
     stroke="#ffffff"
     d="m 335.27,46.523 v -0.865 c -0.754,-0.03 -1.291,-0.345 -1.608,-0.944 -0.319,-0.599 -0.478,-1.616 -0.478,-3.051 V 18.715 c 0,-1.464 0.163,-2.5 0.488,-3.106 0.326,-0.607 0.858,-0.925 1.598,-0.954 v -0.866 h -8.899 v 0.866 c 0.74,0.029 1.272,0.354 1.598,0.975 0.325,0.622 0.489,1.651 0.489,3.085 v 22.948 c 0,1.406 -0.16,2.416 -0.478,3.029 -0.318,0.614 -0.855,0.943 -1.609,0.987 v 0.844 z"
     id="path50"
     style="fill:#ffffff" />
  <path
     stroke-width="0.25"
     stroke-linecap="butt"
     stroke-miterlimit="10"
     stroke-linejoin="miter"
     fill="none"
     stroke="#ffffff"
     d="m 358.958,46.523 -0.022,-0.865 c -0.741,-0.015 -1.281,-0.329 -1.621,-0.944 -0.34,-0.614 -0.51,-1.63 -0.51,-3.051 V 16.718 c 0,-0.532 0.081,-0.887 0.244,-1.065 0.163,-0.178 0.511,-0.267 1.043,-0.267 2.515,0 4.439,0.397 5.77,1.188 1.332,0.792 2.56,2.201 3.684,4.227 l 0.999,-0.421 -1.732,-6.591 h -24.721 l -1.732,6.591 0.999,0.421 c 1.124,-2.011 2.356,-3.417 3.695,-4.215 1.339,-0.799 3.273,-1.2 5.803,-1.2 0.518,0 0.851,0.085 0.999,0.256 0.148,0.17 0.222,0.529 0.222,1.076 v 24.945 c 0,1.406 -0.159,2.416 -0.477,3.029 -0.319,0.614 -0.847,0.936 -1.587,0.966 l -0.022,0.865 z"
     id="path51"
     style="fill:#ffffff" />
  <path
     stroke-width="0.25"
     stroke-linecap="butt"
     stroke-miterlimit="10"
     stroke-linejoin="miter"
     fill="none"
     stroke="#ffffff"
     d="m 384.088,18.116 4.904,16.179 h -10.186 z m -5.415,28.406 v -0.865 c -0.725,-0.148 -1.276,-0.48 -1.653,-0.999 -0.377,-0.518 -0.567,-1.197 -0.567,-2.042 0,-0.325 0.034,-0.687 0.101,-1.087 0.066,-0.399 0.166,-0.821 0.3,-1.266 l 1.42,-4.371 h 11.184 l 1.798,5.837 c 0.045,0.134 0.103,0.318 0.178,0.554 0.251,0.814 0.377,1.376 0.377,1.687 0,0.416 -0.144,0.773 -0.433,1.077 -0.288,0.302 -0.669,0.507 -1.143,0.61 v 0.865 h 8.855 l -0.023,-0.865 c -0.561,-0.028 -1.09,-0.414 -1.585,-1.153 -0.497,-0.741 -1.003,-1.916 -1.521,-3.53 l -9.055,-27.895 h -2.862 l -8.189,25.077 c -0.799,2.5 -1.58,4.28 -2.342,5.337 -0.762,1.059 -1.705,1.779 -2.829,2.164 v 0.865 z m 3.085,-43.608 c -0.311,-0.178 -0.621,-0.267 -0.933,-0.267 -0.458,0 -0.84,0.149 -1.142,0.445 -0.304,0.296 -0.455,0.665 -0.455,1.109 0,0.325 0.114,0.644 0.343,0.954 0.23,0.311 0.574,0.615 1.033,0.91 l 7.323,4.55 h 1.487 L 383,3.979 c -0.517,-0.533 -0.932,-0.887 -1.242,-1.065 z"
     id="path52"
     style="fill:#ffffff" />
  <path
     stroke-width="0.25"
     stroke-linecap="butt"
     stroke-miterlimit="10"
     stroke-linejoin="miter"
     fill="none"
     stroke="#ffffff"
     d="m 125.405,58.456 c 0,-1.509 0.389,-2.515 1.165,-3.018 0.776,-0.503 2.415,-0.754 4.916,-0.754 3.906,0 6.817,1.28 8.733,3.838 1.916,2.561 2.873,6.445 2.873,11.652 0,5.386 -1.009,9.187 -3.029,11.407 -2.019,2.219 -5.5,3.329 -10.441,3.329 -1.776,0 -2.923,-0.207 -3.441,-0.622 -0.516,-0.414 -0.776,-1.198 -0.776,-2.352 z m 5.371,27.808 c 5.444,0 9.698,-1.406 12.76,-4.217 3.063,-2.811 4.595,-6.709 4.595,-11.695 0,-3.388 -0.762,-6.448 -2.287,-9.177 -1.524,-2.73 -3.595,-4.76 -6.213,-6.092 -1.244,-0.636 -2.63,-1.099 -4.162,-1.387 -1.531,-0.289 -3.481,-0.432 -5.847,-0.432 -0.814,0 -1.491,0.003 -2.03,0.01 -0.541,0.008 -1.084,0.019 -1.632,0.034 l -7.28,0.221 v 0.866 c 0.741,0.03 1.273,0.348 1.598,0.955 0.325,0.606 0.489,1.641 0.489,3.106 v 22.947 c 0,1.407 -0.164,2.419 -0.489,3.041 -0.325,0.621 -0.857,0.94 -1.598,0.954 v 0.866 z"
     id="path53"
     style="fill:#ffffff" />
  <path
     stroke-width="0.25"
     stroke-linecap="butt"
     stroke-miterlimit="10"
     stroke-linejoin="miter"
     fill="none"
     stroke="#ffffff"
     d="m 178.498,86.264 1.908,-6.636 -0.954,-0.51 c -1.006,1.406 -1.96,2.497 -2.862,3.273 -0.904,0.777 -1.843,1.328 -2.82,1.653 -0.768,0.238 -1.664,0.408 -2.684,0.511 -1.022,0.104 -2.73,0.155 -5.127,0.155 -1.997,0 -3.232,-0.166 -3.706,-0.499 -0.474,-0.333 -0.71,-1.224 -0.71,-2.674 v -12.96 h 4.726 0.644 c 2.456,0 4.084,0.221 4.883,0.666 0.799,0.443 1.398,1.242 1.798,2.396 h 0.799 V 63.85 h -0.755 c -0.4,1.168 -1.107,1.985 -2.119,2.452 -1.014,0.466 -2.763,0.698 -5.25,0.698 h -4.726 v -9.32 c 0,-1.154 0.17,-1.868 0.511,-2.142 0.34,-0.273 1.323,-0.411 2.951,-0.411 h 1.398 c 3.891,0 6.502,0.356 7.834,1.066 1.331,0.711 2.337,1.99 3.018,3.84 l 0.955,-0.134 -0.533,-6.369 h -22.859 v 0.866 c 0.741,0.029 1.273,0.347 1.598,0.954 0.325,0.606 0.488,1.642 0.488,3.106 v 22.948 c 0,1.406 -0.163,2.419 -0.488,3.041 -0.325,0.621 -0.857,0.939 -1.598,0.954 v 0.865 z"
     id="path54"
     style="fill:#ffffff" />
  <path
     stroke-width="0.25"
     stroke-linecap="butt"
     stroke-miterlimit="10"
     stroke-linejoin="miter"
     fill="none"
     stroke="#ffffff"
     d="m 208.155,86.264 1.687,-6.857 -1,-0.333 c -0.768,1.08 -1.482,1.967 -2.141,2.663 -0.657,0.695 -1.275,1.206 -1.852,1.531 -0.888,0.503 -1.891,0.862 -3.007,1.076 -1.118,0.215 -2.859,0.322 -5.227,0.322 -1.598,0 -2.619,-0.167 -3.062,-0.5 -0.445,-0.332 -0.667,-1.209 -0.667,-2.629 V 58.456 c 0,-1.464 0.165,-2.5 0.49,-3.106 0.325,-0.607 0.857,-0.925 1.596,-0.954 V 53.53 h -8.898 v 0.866 c 0.739,0.029 1.271,0.354 1.598,0.975 0.325,0.622 0.488,1.651 0.488,3.085 v 22.948 c 0,1.406 -0.159,2.416 -0.477,3.029 -0.319,0.614 -0.855,0.943 -1.609,0.987 v 0.844 z"
     id="path55"
     style="fill:#ffffff" />
  <path
     stroke-width="0.25"
     stroke-linecap="butt"
     stroke-miterlimit="10"
     stroke-linejoin="miter"
     fill="none"
     stroke="#ffffff"
     d="m 237.436,86.264 1.687,-6.857 -1,-0.333 c -0.768,1.08 -1.483,1.967 -2.141,2.663 -0.658,0.695 -1.275,1.206 -1.853,1.531 -0.887,0.503 -1.89,0.862 -3.006,1.076 -1.118,0.215 -2.86,0.322 -5.227,0.322 -1.598,0 -2.619,-0.167 -3.063,-0.5 -0.444,-0.332 -0.666,-1.209 -0.666,-2.629 V 58.456 c 0,-1.464 0.164,-2.5 0.489,-3.106 0.325,-0.607 0.857,-0.925 1.597,-0.954 V 53.53 h -8.899 v 0.866 c 0.74,0.029 1.272,0.354 1.599,0.975 0.325,0.622 0.488,1.651 0.488,3.085 v 22.948 c 0,1.406 -0.159,2.416 -0.478,3.029 -0.318,0.614 -0.854,0.943 -1.609,0.987 v 0.844 z"
     id="path56"
     style="fill:#ffffff" />
  <path
     stroke-width="0.25"
     stroke-linecap="butt"
     stroke-miterlimit="10"
     stroke-linejoin="miter"
     fill="none"
     stroke="#ffffff"
     d="m 256.352,57.857 4.904,16.179 H 251.07 Z m -5.415,28.407 v -0.866 c -0.725,-0.148 -1.276,-0.479 -1.653,-0.998 -0.377,-0.518 -0.567,-1.198 -0.567,-2.043 0,-0.325 0.034,-0.687 0.101,-1.086 0.066,-0.4 0.166,-0.821 0.3,-1.266 l 1.42,-4.371 h 11.184 l 1.798,5.836 c 0.045,0.134 0.103,0.319 0.178,0.555 0.251,0.814 0.377,1.375 0.377,1.687 0,0.415 -0.144,0.773 -0.433,1.077 -0.288,0.302 -0.669,0.506 -1.143,0.609 v 0.866 h 8.855 l -0.023,-0.866 c -0.561,-0.028 -1.09,-0.413 -1.585,-1.153 -0.497,-0.74 -1.003,-1.916 -1.521,-3.529 L 259.17,52.82 h -2.862 l -8.189,25.078 c -0.799,2.5 -1.58,4.279 -2.342,5.337 -0.762,1.058 -1.705,1.779 -2.829,2.163 v 0.866 z"
     id="path57"
     style="fill:#ffffff" />
  <path
     stroke-width="0.25"
     stroke-linecap="butt"
     stroke-miterlimit="10"
     stroke-linejoin="miter"
     fill="none"
     stroke="#ffffff"
     d="m 145.534,118.06 c -1.465,2.042 -3.049,3.566 -4.75,4.572 -1.701,1.006 -3.572,1.509 -5.614,1.509 -3.522,0 -6.417,-1.513 -8.689,-4.538 -2.271,-3.025 -3.406,-6.921 -3.406,-11.685 0,-4.231 0.891,-7.623 2.674,-10.175 1.783,-2.552 4.124,-3.829 7.024,-3.829 2.234,0 4.146,0.67 5.737,2.009 1.59,1.339 2.799,3.288 3.628,5.848 l 1.043,0.155 1.709,-5.504 c -1.983,-1.301 -3.895,-2.27 -5.737,-2.907 -1.842,-0.636 -3.636,-0.954 -5.382,-0.954 -1.79,0 -3.491,0.281 -5.104,0.844 -1.612,0.562 -2.973,1.353 -4.083,2.374 -1.968,1.791 -3.459,3.939 -4.472,6.447 -1.014,2.508 -1.52,5.301 -1.52,8.378 0,4.882 1.328,8.792 3.983,11.728 2.656,2.938 6.188,4.406 10.598,4.406 2.825,0 5.303,-0.655 7.434,-1.964 2.13,-1.31 4.046,-3.355 5.747,-6.137 z"
     id="path58"
     style="fill:#ffffff" />
  <path
     stroke-width="0.25"
     stroke-linecap="butt"
     stroke-miterlimit="10"
     stroke-linejoin="miter"
     fill="none"
     stroke="#ffffff"
     d="m 162.031,97.599 4.904,16.178 h -10.186 z m -5.414,28.406 v -0.865 c -0.725,-0.148 -1.277,-0.48 -1.654,-0.999 -0.377,-0.518 -0.567,-1.198 -0.567,-2.042 0,-0.325 0.034,-0.688 0.101,-1.087 0.066,-0.399 0.166,-0.821 0.3,-1.266 l 1.42,-4.371 h 11.184 l 1.798,5.836 c 0.045,0.134 0.104,0.319 0.179,0.555 0.25,0.814 0.376,1.376 0.376,1.687 0,0.415 -0.144,0.773 -0.433,1.077 -0.288,0.302 -0.668,0.506 -1.143,0.61 v 0.865 h 8.855 l -0.023,-0.865 c -0.561,-0.029 -1.09,-0.414 -1.584,-1.154 -0.498,-0.74 -1.004,-1.916 -1.522,-3.529 l -9.055,-27.896 h -2.862 l -8.188,25.078 c -0.8,2.5 -1.58,4.279 -2.343,5.337 -0.762,1.058 -1.705,1.779 -2.828,2.164 v 0.865 z"
     id="path59"
     style="fill:#ffffff" />
  <path
     stroke-width="0.25"
     stroke-linecap="butt"
     stroke-miterlimit="10"
     stroke-linejoin="miter"
     fill="none"
     stroke="#ffffff"
     d="m 204.383,126.005 1.687,-6.857 -1,-0.333 c -0.768,1.08 -1.483,1.967 -2.141,2.663 -0.658,0.695 -1.275,1.206 -1.853,1.531 -0.887,0.503 -1.89,0.862 -3.006,1.076 -1.118,0.215 -2.86,0.322 -5.227,0.322 -1.598,0 -2.619,-0.167 -3.063,-0.5 -0.444,-0.332 -0.666,-1.209 -0.666,-2.629 V 98.197 c 0,-1.464 0.164,-2.5 0.489,-3.106 0.325,-0.607 0.857,-0.925 1.597,-0.954 v -0.866 h -8.899 v 0.866 c 0.74,0.029 1.272,0.354 1.599,0.975 0.325,0.622 0.488,1.651 0.488,3.085 v 22.948 c 0,1.406 -0.159,2.416 -0.478,3.029 -0.318,0.614 -0.854,0.943 -1.609,0.987 v 0.844 z"
     id="path60"
     style="fill:#ffffff" />
  <path
     stroke-width="0.25"
     stroke-linecap="butt"
     stroke-miterlimit="10"
     stroke-linejoin="miter"
     fill="none"
     stroke="#ffffff"
     d="m 223.299,97.599 4.904,16.178 h -10.186 z m -5.415,28.406 v -0.865 c -0.725,-0.148 -1.276,-0.48 -1.653,-0.999 -0.377,-0.518 -0.567,-1.198 -0.567,-2.042 0,-0.325 0.034,-0.688 0.101,-1.087 0.066,-0.399 0.166,-0.821 0.3,-1.266 l 1.42,-4.371 h 11.184 l 1.798,5.836 c 0.045,0.134 0.103,0.319 0.178,0.555 0.251,0.814 0.377,1.376 0.377,1.687 0,0.415 -0.144,0.773 -0.433,1.077 -0.288,0.302 -0.669,0.506 -1.143,0.61 v 0.865 h 8.855 l -0.023,-0.865 c -0.561,-0.029 -1.09,-0.414 -1.585,-1.154 -0.497,-0.74 -1.003,-1.916 -1.521,-3.529 l -9.055,-27.896 h -2.862 l -8.189,25.078 c -0.799,2.5 -1.58,4.279 -2.342,5.337 -0.762,1.058 -1.705,1.779 -2.829,2.164 v 0.865 z"
     id="path61"
     style="fill:#ffffff" />
  <path
     stroke-width="0.25"
     stroke-linecap="butt"
     stroke-miterlimit="10"
     stroke-linejoin="miter"
     fill="none"
     stroke="#ffffff"
     d="m 255.442,126.005 c 4.437,0 7.827,-0.735 10.165,-2.208 2.337,-1.472 3.506,-3.599 3.506,-6.381 0,-2.219 -0.847,-4.128 -2.541,-5.725 -1.694,-1.598 -4.014,-2.678 -6.957,-3.241 2.707,-0.621 4.764,-1.549 6.169,-2.785 1.405,-1.234 2.108,-2.725 2.108,-4.472 0,-2.381 -1.235,-4.341 -3.706,-5.88 -2.471,-1.539 -5.675,-2.308 -9.609,-2.308 -0.104,0 -0.607,0.011 -1.509,0.033 -0.903,0.022 -1.761,0.041 -2.574,0.055 l -7.147,0.178 v 0.866 c 0.741,0.029 1.273,0.347 1.598,0.954 0.325,0.606 0.488,1.642 0.488,3.106 v 22.948 c 0,1.406 -0.163,2.419 -0.488,3.041 -0.325,0.621 -0.857,0.939 -1.598,0.954 v 0.865 z m -0.199,-16.822 c 3.092,0 5.388,0.64 6.89,1.92 1.502,1.28 2.253,3.229 2.253,5.847 0,2.634 -0.777,4.576 -2.332,5.826 -1.551,1.25 -3.97,1.875 -7.256,1.875 -2.085,0 -3.395,-0.192 -3.928,-0.577 -0.532,-0.384 -0.798,-1.346 -0.798,-2.884 v -12.007 z m -5.171,-11.03 c 0,-1.612 0.317,-2.644 0.954,-3.095 0.635,-0.451 1.968,-0.677 3.994,-0.677 2.664,0 4.716,0.592 6.159,1.775 1.443,1.184 2.164,2.877 2.164,5.082 0,2.353 -0.792,4.039 -2.375,5.06 -1.583,1.02 -4.246,1.531 -7.989,1.531 h -2.907 z"
     id="path62"
     style="fill:#ffffff" />
  <path
     stroke-width="0.25"
     stroke-linecap="butt"
     stroke-miterlimit="10"
     stroke-linejoin="miter"
     fill="none"
     stroke="#ffffff"
     d="m 282.303,97.775 c 0,-1.448 0.377,-2.439 1.132,-2.973 0.755,-0.532 2.115,-0.798 4.083,-0.798 2.899,0 5.141,0.703 6.724,2.108 1.583,1.406 2.375,3.388 2.375,5.947 0,2.605 -0.891,4.535 -2.674,5.793 -1.784,1.258 -4.532,1.886 -8.244,1.886 -0.77,0 -1.424,-0.018 -1.964,-0.056 -0.541,-0.036 -1.018,-0.1 -1.432,-0.188 z m 2.086,28.23 v -0.866 c -0.74,-0.014 -1.273,-0.325 -1.598,-0.932 -0.326,-0.607 -0.488,-1.627 -0.488,-3.062 v -10.231 h 0.133 c 1.302,0.059 2.271,0.09 2.907,0.09 0.222,0 0.569,-0.008 1.043,-0.024 0.474,-0.014 0.821,-0.021 1.043,-0.021 1.701,4.779 3.832,8.766 6.392,11.962 2.559,3.195 5.429,5.466 8.611,6.813 v -0.954 c -1.657,-1.421 -3.311,-3.655 -4.96,-6.702 -1.65,-3.048 -3.281,-6.873 -4.894,-11.474 2.826,-0.517 5.045,-1.527 6.658,-3.029 1.612,-1.502 2.419,-3.296 2.419,-5.382 0,-2.841 -1.302,-5.12 -3.906,-6.836 -2.604,-1.716 -6.103,-2.575 -10.497,-2.575 -0.341,0 -0.862,0.013 -1.565,0.034 -0.702,0.023 -1.602,0.055 -2.697,0.1 l -7.412,0.355 v 0.866 c 0.741,0.029 1.273,0.348 1.598,0.954 0.325,0.607 0.488,1.641 0.488,3.107 v 22.947 c 0,1.405 -0.163,2.419 -0.488,3.041 -0.325,0.621 -0.857,0.939 -1.598,0.953 v 0.866 z"
     id="path63"
     style="fill:#ffffff" />
  <path
     stroke-width="0.25"
     stroke-linecap="butt"
     stroke-miterlimit="10"
     stroke-linejoin="miter"
     fill="none"
     stroke="#ffffff"
     d="m 316.842,126.005 v -0.865 c -0.754,-0.03 -1.291,-0.345 -1.608,-0.944 -0.319,-0.599 -0.478,-1.616 -0.478,-3.051 V 98.197 c 0,-1.464 0.163,-2.5 0.488,-3.106 0.326,-0.607 0.858,-0.925 1.598,-0.954 v -0.866 h -8.899 v 0.866 c 0.74,0.029 1.272,0.354 1.598,0.975 0.325,0.622 0.489,1.651 0.489,3.085 v 22.948 c 0,1.406 -0.16,2.416 -0.478,3.029 -0.318,0.614 -0.855,0.943 -1.609,0.987 v 0.844 z"
     id="path64"
     style="fill:#ffffff" />
  <path
     stroke-width="0.25"
     stroke-linecap="butt"
     stroke-miterlimit="10"
     stroke-linejoin="miter"
     fill="none"
     stroke="#ffffff"
     d="m 334.294,97.599 4.904,16.178 h -10.186 z m -5.415,28.406 v -0.865 c -0.725,-0.148 -1.276,-0.48 -1.653,-0.999 -0.377,-0.518 -0.567,-1.198 -0.567,-2.042 0,-0.325 0.034,-0.688 0.101,-1.087 0.066,-0.399 0.166,-0.821 0.3,-1.266 l 1.42,-4.371 h 11.184 l 1.798,5.836 c 0.045,0.134 0.103,0.319 0.178,0.555 0.251,0.814 0.377,1.376 0.377,1.687 0,0.415 -0.144,0.773 -0.433,1.077 -0.288,0.302 -0.669,0.506 -1.143,0.61 v 0.865 h 8.855 l -0.023,-0.865 c -0.561,-0.029 -1.09,-0.414 -1.585,-1.154 -0.497,-0.74 -1.003,-1.916 -1.521,-3.529 l -9.055,-27.896 h -2.862 l -8.189,25.078 c -0.799,2.5 -1.58,4.279 -2.342,5.337 -0.762,1.058 -1.705,1.779 -2.829,2.164 v 0.865 z"
     id="path65"
     style="fill:#ffffff" />
  <path
     d="m 106.563,134.903 c -0.403,0 -0.729,-0.328 -0.729,-0.73 V 0.73 c 0,-0.403 0.326,-0.73 0.729,-0.73 0.403,0 0.729,0.327 0.729,0.73 v 133.443 c 0,0.402 -0.326,0.73 -0.729,0.73"
     fill="#ffffff"
     id="path66"
     style="fill:#ffffff;stroke-width:0.1" />
  <path
     d="M 0,60.172 H 59.5359 V 50.24893 H 0 Z"
     fill="#ffffff"
     fill-rule="evenodd"
     id="path67"
     style="fill:#ffffff;stroke-width:0.1" />
  <path
     d="M 0,47.784 H 59.5359 V 37.8551 H 0 Z"
     fill="#ffffff"
     fill-rule="evenodd"
     id="path68"
     style="fill:#ffffff;stroke-width:0.1" />
  <path
     d="M 0,35.376 H 59.5359 V 25.45294 H 0 Z"
     fill="#ffffff"
     fill-rule="evenodd"
     id="path69"
     style="fill:#ffffff;stroke-width:0.1" />
  <path
     d="M 0,22.965 H 59.5359 V 13.0443 H 0 Z"
     fill="#ffffff"
     fill-rule="evenodd"
     id="path70"
     style="fill:#ffffff;stroke-width:0.1" />
  <path
     d="M 0,10.565 H 59.5359 V 0.6451 H 0 Z"
     fill="#ffffff"
     fill-rule="evenodd"
     id="path71"
     style="fill:#ffffff;stroke-width:0.1" />
  <path
     d="M 84.35,37.855 H 62.018 v 22.318 z m -3.523,1.459 -17.35,17.339 V 39.314"
     fill="#ffffff"
     id="path72"
     style="fill:#ffffff;stroke-width:0.1" />
  <path
     d="M 91.715,25.453 H 62.0189 v 9.92303 H 91.715 Z m -1.459,8.464 H 63.47709 V 26.91114 H 90.256 Z"
     fill="#ffffff"
     id="path73"
     style="fill:#ffffff;stroke-width:0.1" />
  <path
     d="M 91.715,13.044 H 62.0189 v 9.92071 H 91.715 Z m -1.459,8.462 H 63.47709 V 14.50326 H 90.256 Z"
     fill="#ffffff"
     id="path74"
     style="fill:#ffffff;stroke-width:0.1" />
  <path
     d="m 435.954,80.807 c 2.727,0 5.385,-1.34 7.968,-4.02 2.583,-2.68 4.972,-6.236 7.165,-10.674 2.191,-4.431 4.14,-9.377 5.847,-14.838 1.704,-5.458 3.091,-11.038 4.168,-16.74 1.07,-5.699 1.754,-11.038 2.046,-16.009 -1.268,-0.681 -2.756,-1.167 -4.46,-1.459 -1.707,-0.295 -3.436,-0.44 -5.19,-0.44 -5.361,0 -9.846,1.293 -13.448,3.873 -3.61,2.583 -6.484,5.947 -8.628,10.09 -2.143,4.143 -3.678,8.527 -4.604,13.156 -0.929,4.629 -1.39,8.991 -1.39,13.084 0,4.485 0.317,8.53 0.951,12.136 0.634,3.606 1.729,6.481 3.289,8.624 1.56,2.147 3.656,3.217 6.286,3.217 m -4.676,44.882 c -1.755,0 -3.829,-0.195 -6.214,-0.584 -2.392,-0.392 -4.752,-1.048 -7.093,-1.974 -2.338,-0.929 -4.29,-2.194 -5.847,-3.8 -1.559,-1.61 -2.388,-3.584 -2.485,-5.923 0,-1.365 0.292,-2.608 0.878,-3.728 0.584,-1.12 1.41,-2.024 2.486,-2.705 1.07,-0.681 2.241,-1.023 3.509,-1.023 1.754,0 3.289,0.561 4.604,1.682 1.315,1.12 1.974,2.799 1.974,5.043 0,1.171 -0.292,2.436 -0.879,3.801 0.973,1.462 2.461,2.51 4.46,3.144 1.996,0.634 3.876,0.951 5.63,0.951 5.555,0 9.964,-1.462 13.228,-4.387 3.267,-2.922 5.775,-6.798 7.529,-11.622 1.754,-4.823 3.022,-10.064 3.804,-15.716 0.875,-5.75 1.509,-11.622 1.899,-17.616 0.389,-5.994 0.925,-11.427 1.61,-16.301 h -0.44 c -2.046,7.018 -4.193,12.695 -6.433,17.032 -2.244,4.337 -4.532,7.651 -6.87,9.939 -2.342,2.291 -4.658,3.829 -6.946,4.607 -2.291,0.779 -4.557,1.168 -6.797,1.168 -4.485,0 -8.188,-1.243 -11.11,-3.725 -2.925,-2.486 -5.097,-5.872 -6.506,-10.162 -1.415,-4.287 -2.122,-9.111 -2.122,-14.475 0,-6.333 0.854,-12.352 2.558,-18.055 1.704,-5.702 4.29,-10.818 7.749,-15.349 3.458,-4.532 7.896,-8.091 13.303,-10.674 5.411,-2.58 11.769,-3.873 19.082,-3.873 3.311,0 6.65,0.22 10.014,0.656 3.361,0.44 6.211,1.052 8.552,1.83 -0.392,5.847 -0.806,11.794 -1.242,17.835 -0.44,6.045 -0.929,12.039 -1.463,17.983 -0.537,5.944 -1.048,11.794 -1.535,17.544 -0.489,5.749 -0.976,11.354 -1.462,16.812 -0.782,9.453 -2.756,17.251 -5.922,23.39 -3.167,6.142 -7.407,10.721 -12.717,13.743 -5.313,3.019 -11.577,4.532 -18.786,4.532"
     fill="#ffffff"
     id="path75"
     style="fill:#ffffff;stroke-width:0.1" />
  <path
     d="m 490.778,86.07 c -0.097,-0.681 -0.148,-1.29 -0.148,-1.827 V 82.27 c 0,-1.657 0.051,-3.632 0.148,-5.923 0.097,-2.288 0.314,-5.334 0.659,-9.134 0.339,-3.802 0.851,-8.773 1.535,-14.915 0.681,-6.333 1.217,-11.11 1.607,-14.327 0.389,-3.217 0.681,-5.576 0.878,-7.089 0.192,-1.51 0.292,-2.753 0.292,-3.728 0.094,-1.95 -0.025,-3.85 -0.367,-5.703 -0.342,-1.852 -1.535,-2.778 -3.581,-2.778 -1.56,0 -3.361,1.074 -5.41,3.217 -2.047,2.144 -3.801,5.8 -5.264,10.966 l -4.092,-0.879 c 0.292,-1.754 0.901,-3.775 1.827,-6.066 0.925,-2.288 2.168,-4.557 3.728,-6.798 1.56,-2.241 3.458,-4.096 5.702,-5.555 2.241,-1.463 4.824,-2.194 7.749,-2.194 4.384,0 7.309,1.513 8.772,4.532 1.462,3.022 2.093,7.068 1.902,12.133 -0.101,2.148 -0.368,4.51 -0.807,7.093 -0.436,2.583 -0.901,5.289 -1.387,8.112 h 0.439 c 2.825,-8.48 5.775,-15.007 8.844,-19.589 3.07,-4.582 6.189,-7.771 9.356,-9.575 3.166,-1.805 6.311,-2.706 9.431,-2.706 2.924,0 5.357,0.757 7.309,2.266 1.949,1.513 2.925,3.581 2.925,6.215 0,1.753 -0.612,3.36 -1.83,4.823 -1.218,1.462 -2.85,2.193 -4.896,2.193 -1.754,0 -3.267,-0.536 -4.532,-1.609 -1.268,-1.071 -1.999,-2.58 -2.193,-4.532 -2.731,-0.584 -5.386,0.293 -7.969,2.634 -2.583,2.337 -5.021,5.676 -7.309,10.013 -2.291,4.338 -4.29,9.187 -5.994,14.547 -1.707,5.36 -3.048,10.818 -4.02,16.374 -0.976,5.553 -1.463,10.723 -1.463,15.496 0,1.462 0.022,2.558 0.075,3.289 0.047,0.731 0.12,1.732 0.217,2.997"
     fill="#ffffff"
     id="path76"
     style="fill:#ffffff;stroke-width:0.1" />
  <path
     d="m 612.372,16.336 c -4.482,0 -8.162,1.51 -11.037,4.532 -2.875,3.022 -5.068,6.92 -6.579,11.693 -1.512,4.777 -2.462,9.798 -2.848,15.061 5.161,-0.681 10.086,-1.901 14.766,-3.656 4.675,-1.754 8.527,-4.02 11.548,-6.798 3.02,-2.777 4.532,-6.016 4.532,-9.722 0,-3.12 -0.853,-5.75 -2.557,-7.896 -1.707,-2.141 -4.316,-3.214 -7.825,-3.214 m 2.05,-4.971 c 3.509,0 6.82,0.536 9.939,1.607 3.12,1.073 5.652,2.827 7.604,5.263 1.946,2.438 2.923,5.752 2.923,9.942 0,3.998 -1.366,7.457 -4.094,10.379 -2.729,2.925 -6.286,5.338 -10.672,7.237 -4.386,1.902 -9.064,3.436 -14.036,4.607 -4.971,1.167 -9.748,1.996 -14.326,2.485 0,6.042 0.609,11.11 1.826,15.203 1.217,4.095 3.047,7.165 5.483,9.211 2.435,2.046 5.555,3.069 9.359,3.069 2.825,0 5.673,-0.631 8.551,-1.899 2.872,-1.267 5.627,-3.191 8.261,-5.774 2.629,-2.583 5.018,-5.922 7.161,-10.015 l 4.827,2.778 c -2.729,5.068 -5.654,9.258 -8.772,12.572 -3.123,3.314 -6.53,5.753 -10.234,7.309 -3.705,1.557 -7.798,2.338 -12.28,2.338 -9.261,0 -16.082,-2.896 -20.468,-8.696 -4.384,-5.8 -6.579,-13.426 -6.579,-22.882 0,-5.649 0.731,-11.157 2.195,-16.52 1.459,-5.357 3.652,-10.159 6.577,-14.399 2.923,-4.24 6.625,-7.601 11.111,-10.087 4.48,-2.485 9.696,-3.728 15.644,-3.728"
     fill="#ffffff"
     id="path77"
     style="fill:#ffffff;stroke-width:0.1" />
  <path
     d="m 709.811,87.677 c -4.582,0 -7.702,-1.218 -9.355,-3.653 -1.661,-2.435 -2.486,-5.897 -2.486,-10.382 0,-2.727 0.22,-5.944 0.656,-9.647 0.439,-3.703 0.973,-7.651 1.61,-11.841 0.631,-4.19 1.167,-8.43 1.607,-12.72 0.439,-4.287 0.659,-8.383 0.659,-12.28 0,-1.171 -0.173,-2.436 -0.512,-3.801 -0.342,-1.365 -1.001,-2.561 -1.974,-3.584 -0.976,-1.023 -2.438,-1.535 -4.387,-1.535 -2.728,0 -5.458,1.268 -8.185,3.801 -2.731,2.536 -5.313,5.947 -7.749,10.234 -2.438,4.29 -4.632,9.042 -6.578,14.255 -1.952,5.215 -3.487,10.576 -4.607,16.081 -1.12,5.507 -1.682,10.745 -1.682,15.717 0,1.462 0.025,2.802 0.075,4.02 0.047,1.221 0.119,2.463 0.22,3.728 h -12.281 c -0.1,-0.681 -0.147,-1.29 -0.147,-1.826 V 82.27 c 0,-1.657 0.097,-3.581 0.292,-5.775 0.194,-2.194 0.511,-5.119 0.951,-8.772 0.439,-3.656 0.998,-8.552 1.682,-14.694 0.681,-5.749 1.192,-10.234 1.535,-13.451 0.338,-3.213 0.605,-5.674 0.803,-7.381 0.195,-1.704 0.314,-3.019 0.364,-3.948 0.05,-0.926 0.075,-1.924 0.075,-2.997 0,-1.755 -0.244,-3.289 -0.731,-4.604 -0.489,-1.315 -1.56,-1.974 -3.217,-1.974 -1.56,0 -3.361,1.073 -5.41,3.216 -2.046,2.144 -3.801,5.8 -5.263,10.966 l -4.093,-0.879 c 0.292,-1.754 0.901,-3.775 1.827,-6.066 0.926,-2.288 2.168,-4.557 3.728,-6.798 1.56,-2.241 3.459,-4.096 5.703,-5.555 2.24,-1.462 4.823,-2.194 7.748,-2.194 3.311,0 5.775,0.901 7.382,2.706 1.61,1.804 2.633,4.117 3.072,6.942 0.436,2.827 0.559,5.85 0.364,9.063 -0.194,2.731 -0.511,5.364 -0.951,7.896 -0.436,2.536 -0.853,4.777 -1.243,6.726 h 0.44 c 3.314,-8.869 6.578,-15.717 9.795,-20.541 3.217,-4.823 6.408,-8.163 9.575,-10.014 3.166,-1.852 6.311,-2.778 9.431,-2.778 3.898,0 7.017,0.876 9.355,2.63 2.341,1.755 4.02,4.071 5.047,6.946 1.023,2.874 1.534,6.019 1.534,9.43 0,5.361 -0.367,10.843 -1.098,16.445 -0.731,5.606 -1.463,10.771 -2.191,15.498 -0.731,4.729 -1.098,8.505 -1.098,11.329 0,1.755 0.22,3.317 0.659,4.68 0.439,1.365 1.535,2.046 3.289,2.046 1.657,0 3.484,-1.045 5.483,-3.142 1.996,-2.096 3.728,-5.774 5.191,-11.037 l 4.092,1.023 c -0.292,1.657 -0.904,3.653 -1.827,5.994 -0.929,2.338 -2.171,4.604 -3.728,6.798 -1.56,2.193 -3.462,4.02 -5.702,5.482 -2.244,1.463 -4.824,2.191 -7.749,2.191"
     fill="#ffffff"
     id="path78"
     style="fill:#ffffff;stroke-width:0.1" />
  <path
     d="m 555.322,32.561 c 1.51,-4.773 3.703,-8.671 6.578,-11.694 2.875,-3.022 6.556,-4.531 11.038,-4.531 3.508,0 6.116,1.073 7.824,3.213 1.704,2.147 2.557,4.777 2.557,7.896 0,3.707 -1.512,6.946 -4.531,9.723 -3.023,2.778 -6.873,5.043 -11.55,6.798 -4.679,1.754 -9.603,2.975 -14.766,3.656 0.386,-5.263 1.337,-10.284 2.85,-15.061 m 33.441,36.729 c -0.953,1.238 -1.932,2.396 -2.958,3.405 -2.633,2.582 -5.389,4.506 -8.26,5.774 -2.878,1.268 -5.728,1.899 -8.552,1.899 -3.804,0 -6.924,-1.023 -9.359,-3.07 -2.435,-2.046 -4.265,-5.115 -5.483,-9.211 -1.217,-4.092 -1.826,-9.161 -1.826,-15.202 4.579,-0.489 9.355,-1.318 14.327,-2.485 4.971,-1.171 9.65,-2.706 14.034,-4.608 4.388,-1.898 7.944,-4.312 10.674,-7.237 2.727,-2.922 4.092,-6.38 4.092,-10.378 0,-4.19 -0.976,-7.504 -2.921,-9.943 -1.953,-2.435 -4.485,-4.189 -7.605,-5.263 -3.119,-1.07 -6.43,-1.607 -9.939,-1.607 -5.947,0 -11.163,1.243 -15.645,3.729 -4.484,2.485 -8.188,5.847 -11.11,10.087 -2.925,4.239 -5.118,9.041 -6.578,14.398 -1.462,5.364 -2.193,10.872 -2.193,16.521 0,9.456 2.193,17.082 6.578,22.882 4.387,5.799 11.207,8.696 20.468,8.696 4.482,0 8.574,-0.781 12.281,-2.338 3.703,-1.557 7.111,-3.995 10.234,-7.309 0.91,-0.968 1.798,-2.033 2.675,-3.149 -1.687,-1.414 -2.771,-3.381 -2.934,-5.591"
     fill="#ffffff"
     id="path79"
     style="fill:#ffffff;stroke-width:0.1" />
</svg>
